<?xml version="1.0" standalone="no"?>
<!DOCTYPE svg PUBLIC "-//W3C//DTD SVG 1.1//EN" "http://www.w3.org/Graphics/SVG/1.1/DTD/svg11.dtd" >
<svg xmlns="http://www.w3.org/2000/svg" xmlns:xlink="http://www.w3.org/1999/xlink" version="1.1">
    <metadata>
        Created by FontForge 20170924 at Sat Oct 5 00:56:14 2002
        By www-data
        (c) Copyright 1996 Autodesk, Inc. All rights reserved
    </metadata>
    <defs>
        <font id="GothicG" horiz-adv-x="1210">
            <font-face
                    font-family="GothicG"
                    font-weight="400"
                    font-stretch="normal"
                    units-per-em="2048"
                    panose-1="0 0 4 0 0 0 0 0 0 0"
                    ascent="1638"
                    descent="-410"
                    x-height="1038"
                    cap-height="1538"
                    bbox="-26 -675 2364 2363"
                    underline-thickness="20"
                    underline-position="-143"
                    unicode-range="U+0020-E001"
            />
            <missing-glyph horiz-adv-x="1024"
                           d="M128 0v1542h768v-1542h-768zM256 128h512v1286h-512v-1286z"/>
            <glyph glyph-name=".notdef" horiz-adv-x="1024"
                   d="M128 0v1542h768v-1542h-768zM256 128h512v1286h-512v-1286z"/>
            <glyph glyph-name=".null" horiz-adv-x="0"
            />
            <glyph glyph-name="nonmarkingreturn" horiz-adv-x="1496"
            />
            <glyph glyph-name="space" unicode=" " horiz-adv-x="1496"
            />
            <glyph glyph-name="lessequal" unicode="&#x2264;" horiz-adv-x="1783"
                   d="M1553 348l-1274 600l1274 600v-108l-1053 -492l1053 -491v-109zM1553 72h-1251v104h1251v-104z"/>
            <glyph glyph-name="mu" unicode="&#xb5;" horiz-adv-x="1640"
                   d="M1537 0h-375v233l-41 -83l-76 -76l-149 -74h-226l-147 74l-76 78l-67 202l-119 -705l-221 -148l-21 27l141 139l213 1207l-43 87l-88 43h-67v32h375v-731l69 -209l64 -63h204l138 69l67 68l70 137v697h-199v32h375v-872l43 -88l88 -43h68v-33z"/>
            <glyph glyph-name="mu" unicode="&#x3bc;" horiz-adv-x="1640"
                   d="M1537 0h-375v233l-41 -83l-76 -76l-149 -74h-226l-147 74l-76 78l-67 202l-119 -705l-221 -148l-21 27l141 139l213 1207l-43 87l-88 43h-67v32h375v-731l69 -209l64 -63h204l138 69l67 68l70 137v697h-199v32h375v-872l43 -88l88 -43h68v-33z"/>
            <glyph glyph-name="exclam" unicode="!" horiz-adv-x="851"
                   d="M713 1378l-163 -82l-72 -780h-33l-72 780l-163 82l170 86l81 80l82 -80zM550 82l-89 -87l-88 87v84l88 88l89 -88v-84z"/>
            <glyph glyph-name="quotedbl" unicode="&#x22;"
                   d="M908 1518l-74 -150l-74 -74l-24 25l70 70l69 137v100l-55 -55l-88 88v84l88 88l88 -88v-225zM478 1518l-74 -150l-74 -74l-24 25l69 70l70 137v100l-55 -55l-88 88v84l88 88l88 -88v-225z"/>
            <glyph glyph-name="numbersign" unicode="#" horiz-adv-x="1568"
                   d="M1410 717h-273l-82 -326h283v-104h-309l-197 -788h-104l196 788h-325l-197 -788h-104l196 788h-264v104h291l82 326h-301v104h325l181 717h104l-178 -717h323l181 717h104l-178 -717h246v-104zM1033 717h-326l-82 -326h326z"/>
            <glyph glyph-name="dollar" unicode="$" horiz-adv-x="1425"
                   d="M1266 299l-73 -149l-72 -72l-2 -4l-211 -70v-273h-33v269h-254v-269h-33v273l-206 70l-78 76l-74 149v164h176v-176h-104v88h32v-56h39v111h-110v-123l69 -137l66 -68l190 -63v729l-63 23l-219 147l-76 149v226l152 151l206 70v274h33v-270h254v270h33v-274l207 -70
l78 -75l73 -150v-164h-176v176h105v-88h-33v56h-39v-111h111v123l-70 137l-66 68l-190 63v-659l63 -21l220 -147l75 -150v-223zM875 852v653h-254v-569zM588 946v553l-186 -63l-68 -133v-136l68 -135l137 -69zM1162 236v206l-68 136l-186 73v-612l186 63zM875 33v633l-39 14
l-215 76v-723h254z"/>
            <glyph glyph-name="percent" unicode="%" horiz-adv-x="1998"
                   d="M1787 1538l-1317 -1538h-115l1235 1442l-117 -78l-147 -74h-224l-122 82v-141l-76 -154l-225 -73h-150l-137 73l-90 78v156l75 153l226 74h149l359 -143h207l354 141zM1840 227l-76 -153l-225 -74h-150l-149 74l-78 80v153l76 154l225 74h149l150 -74l78 -80v-154z
M803 1239v135l-65 131h-127l-64 -65l-69 -137v-136l65 -131h127l64 66zM1664 236v135l-66 131h-127l-63 -66l-70 -137v-135l66 -131h127l63 65z"/>
            <glyph glyph-name="ampersand" unicode="&#x26;" horiz-adv-x="1855"
                   d="M1739 315l-116 -237l-80 -78h-154l-149 74l-146 147l-133 199l-430 -427l-307 384l430 428l-287 287l82 82l299 374l309 -387l-286 -284l133 -134l133 -198l428 426l78 -78h59l53 41l33 27l-8 -48l-57 -118l-80 -78h-84l-103 100l-301 -301l136 -203l69 -67l137 -70h205z
M941 1094l-256 321l-201 -250l264 -266zM943 449l-135 202l-131 131l-336 -338l266 -331z"/>
            <glyph glyph-name="quotesingle" unicode="'" horiz-adv-x="780"
                   d="M478 1518l-74 -150l-74 -74l-24 25l69 70l70 137v100l-55 -55l-88 88v84l88 88l88 -88v-225z"/>
            <glyph glyph-name="parenleft" unicode="(" horiz-adv-x="995"
                   d="M760 -472l-24 -25l-146 148l-143 215l-145 288l-72 362v291l72 362l145 289l143 217l146 146l24 -25l-141 -141l-72 -139l-69 -213l-72 -429v-425l72 -429l69 -212l72 -139z"/>
            <glyph glyph-name="parenright" unicode=")" horiz-adv-x="995"
                   d="M836 516l-71 -362l-146 -288l-143 -217l-146 -146l-24 25l141 141l72 139l69 212l72 429v425l-72 429l-69 213l-72 139l-141 141l24 25l146 -148l143 -215l146 -289l71 -362v-291z"/>
            <glyph glyph-name="asterisk" unicode="*" horiz-adv-x="1138"
                   d="M980 860h-95l-256 193l66 -326l-90 -88l-90 88l65 326l-256 -193h-94v98l330 134l-330 133v98h94l256 -193l-65 326l90 88l90 -88l-66 -326l256 193h95v-98l-330 -133l330 -134v-98z"/>
            <glyph glyph-name="plus" unicode="+" horiz-adv-x="1783"
                   d="M1553 645h-573v-573h-105v573h-573v105h573v573h105v-573h573v-105z"/>
            <glyph glyph-name="comma" unicode="," horiz-adv-x="780"
                   d="M478 -58l-74 -150l-74 -74l-24 25l69 70l70 137v99l-55 -54l-88 87v84l88 88l88 -88v-224z"/>
            <glyph glyph-name="period" unicode="." horiz-adv-x="780"
                   d="M478 82l-88 -87l-88 87v84l88 88l88 -88v-84z"/>
            <glyph glyph-name="slash" unicode="/" horiz-adv-x="1640"
                   d="M1565 1825l-1308 -2326h-111l1309 2326h110z"/>
            <glyph glyph-name="zero" unicode="0" horiz-adv-x="1425"
                   d="M1391 1395l-196 -99v-1153h-158l-354 -71l-154 -75l-78 77l-137 69h-209l197 99v1153h157l355 71l153 76l78 -78l137 -69h209zM1019 174v1122l-138 68l-67 68l-336 -68v-1122l137 -68l68 -68z"/>
            <glyph glyph-name="one" unicode="1" horiz-adv-x="1425"
                   d="M1105 176l-203 -102l-82 -79l-82 79l-137 69h-137l196 99v917l-70 137l-83 84l247 166l82 -164v-1140l131 -66h138z"/>
            <glyph glyph-name="two" unicode="2" horiz-adv-x="1425"
                   d="M1354 168l-172 -169l-221 73h-354l-354 -72l-23 -9v386l74 221l149 150l221 73h345v545l-195 66l-66 -68l-149 -74h-152l-209 105h209l138 69l77 78l154 -78l211 -69h158v-607h-516l-209 -69l-138 -137l-69 -209v-330l119 59l145 74l291 72h219z"/>
            <glyph glyph-name="three" unicode="3" horiz-adv-x="1425"
                   d="M1195 143h-158l-436 -144l-78 75l-137 69h-209l209 105h151l150 -74l73 -74l-22 -22l281 94v477l-205 70l-58 29l-73 -29l-13 29l45 18l-47 25l17 28l71 -37l263 105v479l-267 66l-141 -142h-154l-209 105h138l137 69l78 78l153 -76l283 -71h158v-535h-156l-244 -96
l31 -16l211 -70h158v-535z"/>
            <glyph glyph-name="four" unicode="4" horiz-adv-x="1425"
                   d="M1410 336l-95 94h-264v-188l131 -66h138l-203 -102l-82 -79l-82 79l-137 69h-137l196 99v188h-645v381l733 733l164 -162l-76 -151v-768h264l95 94v-221zM875 463v948l-469 -469v-479h469z"/>
            <glyph glyph-name="five" unicode="5" horiz-adv-x="1425"
                   d="M1391 965l-196 -99v-723h-158l-283 -71l-153 -75l-78 77l-137 69h-209l209 105h151l150 -74l65 -68l267 66v694l-132 66h-65l-287 -72h-233v678h915l-100 -102l-150 -74h-633v-469h197l283 72l139 69l82 80l82 -80l137 -69h137z"/>
            <glyph glyph-name="six" unicode="6" horiz-adv-x="1425"
                   d="M1391 893l-196 -98v-652h-158l-354 -71l-154 -75l-78 77l-137 69h-209l197 99v1153h157l283 71l154 76l77 -78l138 -69h137l-209 -105h-154l-141 142l-266 -66v-545h53l283 72l139 70l82 79l82 -79l137 -70h137zM1019 174v621l-132 65h-65l-287 -72h-57v-546l137 -68
l68 -68z"/>
            <glyph glyph-name="seven" unicode="7" horiz-adv-x="1425"
                   d="M1352 1546l-88 -176l-145 -217l-285 -356l-69 -209v-211l73 -221l-168 -169l-82 242v220l74 221l146 217l286 287l142 212l49 99l-244 -123l-291 -72h-219l-317 80l172 170l221 -74h426z"/>
            <glyph glyph-name="eight" unicode="8" horiz-adv-x="1425"
                   d="M1391 1395l-196 -99v-436h-158l-242 -90l242 -92h158v-535h-158l-354 -71l-154 -75l-78 77l-137 69h-209l197 99v436h157l242 92l-242 90h-157v463h157l355 72l139 69l82 80l82 -80l137 -69h137zM1019 889v407l-132 66h-65l-344 -70v-403l270 -103zM1019 174v475
l-271 103l-270 -103v-407l137 -68l68 -68z"/>
            <glyph glyph-name="nine" unicode="9" horiz-adv-x="1425"
                   d="M1391 1395l-196 -99v-1153h-158l-283 -71l-153 -75l-78 77l-137 69h-209l209 105h151l150 -74l65 -68l267 66v545h-54l-282 -72l-140 -70l-82 -79l-81 79l-138 70h-137l197 98v652h157l355 71l153 76l78 -78l137 -69h209zM1019 750v546l-138 68l-67 68l-336 -68v-621
l131 -65h65l287 72h58z"/>
            <glyph glyph-name="colon" unicode=":" horiz-adv-x="780"
                   d="M478 870l-88 -88l-88 88v84l88 88l88 -88v-84zM478 82l-88 -87l-88 87v84l88 88l88 -88v-84z"/>
            <glyph glyph-name="semicolon" unicode=";" horiz-adv-x="780"
                   d="M478 870l-88 -88l-88 88v84l88 88l88 -88v-84zM478 -58l-74 -150l-74 -74l-24 25l69 70l70 137v99l-55 -54l-88 87v84l88 88l88 -88v-224z"/>
            <glyph glyph-name="less" unicode="&#x3c;" horiz-adv-x="1711"
                   d="M1481 -11l-1196 673l1196 673v-110l-987 -563l987 -564v-109z"/>
            <glyph glyph-name="equal" unicode="=" horiz-adv-x="1783"
                   d="M1553 932h-1251v104h1251v-104zM1553 358h-1251v105h1251v-105z"/>
            <glyph glyph-name="greater" unicode="&#x3e;" horiz-adv-x="1711"
                   d="M1498 662l-1196 -673v109l987 564l-987 563v110z"/>
            <glyph glyph-name="question" unicode="?"
                   d="M1123 1087l-74 -149l-147 -147l-139 -70l-86 -254l-95 283h160l135 137l70 137v279l-68 135l-135 67h-135l-135 -67l-68 -135v-166l-182 90l80 162l78 75l221 74h147l221 -74l78 -75l74 -150v-152zM765 82l-88 -87l-89 87v84l89 88l88 -88v-84z"/>
            <glyph glyph-name="at" unicode="@" horiz-adv-x="1998"
                   d="M1840 657l-74 -149l-76 -76l-141 -70l-2 -4h-88l-148 74l-77 80v8l-43 -86l-152 -76h-152l-149 74l-76 76l-74 149v150l74 221l78 78l221 74h150l153 -76l25 -76l18 152h176l-73 -727l61 -62h55l138 275v208l-70 211l-72 140l-139 139l-270 141h-146l-280 -141l-140 -139
l-71 -140l-70 -211v-210l70 -211l71 -148l140 -131l280 -141h138l210 69l140 72l69 70l25 -25l-74 -74l-147 -71l-219 -74h-152l-287 72l-147 73l-148 148l-71 147l-74 219v220l74 219l71 147l148 148l147 73l289 72h164l276 -72l148 -73l147 -148l72 -147l74 -219v-222z
M1279 952l-43 127l-134 68h-133l-135 -135l-69 -209v-209l69 -137l64 -66h133l135 68l68 135z"/>
            <glyph glyph-name="A" unicode="A" horiz-adv-x="1711"
                   d="M1625 1362h-127l88 88l-55 55h-132l-63 -63l-70 -209v-924l127 -127l131 133l25 -24l-133 -131l-10 -13l-156 -152l-160 159v188l-487 -345l-387 384l237 80l137 137l70 209v496l-70 137l-63 65h-133l-135 -67l-64 -127l51 -54l50 50l-62 59l25 25l82 -84l-95 -95l-92 91
l80 159l152 76h151l150 -74l76 -78l73 -221v-291l-73 -221l-148 -149l-147 -72l-29 -10l295 -295l356 256v856l74 150l76 75l149 74h154l82 -82v-94z"/>
            <glyph glyph-name="B" unicode="B" horiz-adv-x="1855"
                   d="M1719 1147h-35l-215 -109l154 -153l73 -221v-220l-73 -221l-150 -149l-221 -74h-219l-219 74l-428 213h-62l-61 -62v-131l55 -55l49 49l-61 59l24 25l82 -84l-94 -93l-88 87v156l2 4l76 149h156l219 -74l43 -20l77 154v782l-69 209l-64 63h-202l-134 -133v-133l142 -211
l74 -147v-230l-154 -78h-156l-82 82v78h33v-65l62 -62h131l61 62v133l-141 211l-74 147v152l76 151l151 76h224l149 -74l76 -75l39 -80l78 153l151 76h152l149 -74l76 -75l72 -144zM1610 1147h-79l-80 80l-72 215l-64 63h-133l-135 -67l-84 -166l17 -33v-408zM1664 449v137
l-70 137l-137 139l-205 68l-272 -135v-136l-74 -221l-154 -153l217 -111l211 -70h209l137 70l68 66z"/>
            <glyph glyph-name="C" unicode="C" horiz-adv-x="1711"
                   d="M1549 291l-145 -146l-148 -71l-219 -74h-219l-219 74l-148 73l-147 222l-74 290v291l74 291l147 221l150 76h153l140 -139l215 143l80 -78l137 -69h133l65 67l25 -24l-74 -74l-149 -74h-154l-156 154l-114 -78l-66 -66v-61l68 -137l215 -144l76 -149v-152l-76 -151
l-152 -76h-80l-151 76l-74 147l29 17l69 -140l136 -67h63l131 65v129l-67 138l-215 143l-76 149v80l71 146l66 65l-127 127h-131l-64 -65l-69 -140l-72 -282v-283l72 -282l69 -140l138 -139l209 -70h211l208 70l215 143z"/>
            <glyph glyph-name="D" unicode="D" horiz-adv-x="1855"
                   d="M1696 444l-73 -221l-150 -149l-221 -74h-219l-219 74l-428 213h-62l-61 -62v-131l55 -55l49 49l-61 59l24 25l82 -84l-94 -93l-88 87v156l2 4l76 149h115l-50 49v78h33v-65l62 -62h131l61 62v133l-143 286v152l71 145l193 193h-174l-209 -70l-135 -135v-65h-33v75l74 150
l149 147l221 74h291l219 -74l148 -71l145 -148l146 -219l73 -291v-291zM1664 449v210l-70 209l-141 213l-70 70l-213 141l-209 70h-135l-205 -205v-133l144 -287v-151l-74 -150l-80 -78h-49l121 -41l286 -143l211 -70h209l137 70l68 66z"/>
            <glyph glyph-name="E" unicode="E" horiz-adv-x="1711"
                   d="M1647 1108l-176 -176h-156l-88 86l-100 -74l68 -135v-152l-72 -143v-6l-156 -78h-80l-151 76l-74 147l29 17l69 -140l136 -67h63l131 65v129l-67 138l-215 143l-76 149v80l74 150l63 61l-127 127h-129l-137 -205l-70 -282v-283l72 -282l69 -140l140 -139l137 -70h281
l208 70l215 143l21 -26l-145 -146l-148 -71l-219 -74h-219l-219 74l-148 73l-147 222l-74 290v291l74 291l147 221l144 72l2 4h157l140 -139l215 143l80 -78l137 -69h133l65 67l25 -24l-78 -76h-2l-143 -72h-154l-156 154l-114 -78l-64 -66l15 -61l53 -137l201 -133l288 217
l76 -78h176z"/>
            <glyph glyph-name="F" unicode="F" horiz-adv-x="1568"
                   d="M1504 1036l-176 -176h-156l-65 66l-131 -133l69 -48l148 -147l73 -221v-221l-73 -150l-150 -146l-221 -74h-291l-221 74l-78 75l-74 149v223l144 215v133l-62 62h-59l-62 -62v-65h-32v78l82 82h155l82 -82v-152l-72 -215v-281l68 -134l135 -67h279l137 69l68 66l69 208
v211l-69 209l-70 67l-217 217l-74 148v153l74 150l41 41l-29 4h-352l-135 -68l-66 -131l66 -131l139 -69l-16 -29l-148 74l-76 151v152l76 153l225 74h220l219 -74l284 -141h133l62 61v60l-62 61h-65v33h78l82 -82v-84l-82 -82h-156l-356 60l-53 -54l-70 -137v-133l137 -137
l115 -78l305 303l78 -78h176z"/>
            <glyph glyph-name="G" unicode="G" horiz-adv-x="1855"
                   d="M1791 1290h-177l-63 -65l-66 -129l138 -140l73 -221v-219l-73 -221l-150 -150l-119 -47l-243 -98h-222l-223 74l-143 71l-148 148l-71 147l-74 219v291l74 291l147 223l221 74h224l149 -74l6 -8l119 80l16 -29l-110 -73l45 -45l72 -146l-29 -16l-72 141l-45 47l-74 -49
l-137 -137v-62l68 -137l203 -135l346 209l67 135v133l-94 94h176l94 95v-177zM1520 449v280l-69 137l-123 125l-201 -121l68 -133v-151l-76 -152l-152 -76h-80l-151 76l-74 148l29 16l69 -139l136 -68h63l131 66v129l-67 137l-201 131l-90 162v80l71 145l150 150l70 47
l-136 67h-206l-136 -67l-67 -138l-72 -282v-354l72 -283l69 -139l138 -140l209 -69h208l234 92l115 115z"/>
            <glyph glyph-name="H" unicode="H" horiz-adv-x="1711"
                   d="M1625 516l-74 -221l-150 -150l-221 -73l-291 -72l-145 72h-129l-63 -126l65 -131l135 -68h135l140 70l16 -29l-147 -74h-152l-151 76l-78 156l80 158h6l143 72h152l143 -72h135l137 70l68 68l70 137v280l-70 209l-135 136h-45l-310 -228l19 -39v-151l-74 -150l-76 -76
l-149 -73h-152l-149 73l-76 76l-74 150v153l88 88l95 -94l-82 -84l-25 25l62 59l-50 49l-55 -55v-133l70 -137l67 -68l138 -70h135l137 70l65 64v133l-69 137l-144 143l-73 150v151l71 146l138 137l170 92l116 -147h162l139 69l17 -28l-219 -146h-152l-149 74l-62 63
l-127 -127v-133l70 -137l143 -143l39 -80l524 379l154 -230l74 -221v-219z"/>
            <glyph glyph-name="I" unicode="I" horiz-adv-x="1855"
                   d="M1696 1229l-82 -82h-151l-219 74l-144 71l-211 70h-280l-137 -70l-66 -63v-133l70 -138l67 -67l138 -70h139v-33h-148l-149 74l-76 76l-74 149v154l74 148l78 75l221 74h148l221 -74l217 -215l137 -69h133l62 61v131l-62 62h-137v32h149l82 -82v-155zM1553 84l-74 -149
l-75 -75l-150 -74h-223l-150 74l-73 75l-146 217l-72 141l-63 65h-131l-62 -61v-131l56 -55l49 49l-62 59l25 25l82 -84l-94 -94l-88 88v155l82 82h153l150 -74l145 -147l144 -214l137 -137h133l135 67l68 134v136l-70 139l-143 215l-74 147v154l153 154h156l82 -82v-78h-33
v65l-61 62h-131l-62 -62v-61l70 -139l143 -215l74 -148v-223z"/>
            <glyph glyph-name="J" unicode="J" horiz-adv-x="1783"
                   d="M1625 1229l-82 -82h-152l-219 74l-143 71l-211 70h-281l-137 -70l-66 -63v-133l70 -138l68 -67l137 -70h139v-33h-147l-150 74l-76 76l-73 149v154l2 4l71 144l78 75l221 74h148l221 -74l217 -215l137 -69h134l61 61v131l-61 62h-138v32h150l82 -82v-155zM1481 84
l-73 -149l-76 -75l-150 -74h-223l-149 74l-74 75l-146 217l-71 141l-64 65h-131l-61 -61v-131l55 -55l49 49l-61 59l24 25l82 -84l-94 -94l-88 88v155l82 82h156l79 -78l72 -145l141 -212l70 -68l137 -69h207l135 67l68 134v136l-70 139l-143 215l-74 147v154l154 154h155
l82 -82v-78h-32v65l-62 62h-131l-61 -62v-61l69 -139l144 -215l73 -148v-223z"/>
            <glyph glyph-name="K" unicode="K" horiz-adv-x="1855"
                   d="M1692 219l-227 -224l-158 155l-291 653l-190 -84l-12 29l424 188l-74 145l-66 68l-204 68l-134 -66l-67 -135v-135l141 -285l74 -219v-150l-76 -151l-149 -76h-154l-149 74l-68 69h-176l94 95v176l94 -95h176l-94 -94v-127l131 -65h133l133 133v133l-213 428l-73 219v221
l73 150l150 147l221 74h219l221 -74l150 -147l72 -146l-29 -16l-72 141l-137 140l-209 69h-211l-207 -69l-137 -205v-207l39 -78v78l76 152l151 75h224l149 -73l139 -142h144l-348 -155l284 -639l64 -66h59l66 68z"/>
            <glyph glyph-name="L" unicode="L" horiz-adv-x="1640"
                   d="M1479 295l-71 -145l-78 -76l-221 -74h-150l-502 215h-63l-139 -70l-17 29l213 141l68 70l69 137v64l-286 501v152l71 145l80 80l221 74h363l221 -74l78 -75l74 -150v-152l-74 -149l-143 -143l-70 -138v-61l61 -61h131l66 67l25 -24l-78 -76h-228l-81 82v153l73 148
l144 215l69 139v133l-63 64l-209 69h-354l-209 -69l-64 -64v-133l287 -502v-151l-74 -150l-119 -117h109l430 -215h276l64 66l72 141z"/>
            <glyph glyph-name="M" unicode="M" horiz-adv-x="2285"
                   d="M2194 219l-229 -228l-156 234l-74 291v219l74 221l148 150l83 41h-79l-80 80l-72 215l-63 63h-134l-137 -69l-59 -58l63 -63l74 -221v-437l-145 -362l-301 -300l-78 77h-60l-65 -68l-25 25l221 219h84l62 -60l59 121l72 283v569l-70 209l-135 135h-133l-168 -84l107 -106
l73 -221v-437l-145 -362l-148 -148l-227 -150l-76 75h-59l-66 -68l-24 25l221 219h84l66 -66l57 60l69 139l72 283v497l-69 209l-136 135h-131l-133 -133v-133l141 -211l74 -147v-230l-155 -78h-154l-82 82v78h33v-65l61 -62h131l62 62v133l-142 211l-73 147v152l75 151
l150 76h156l147 -74l19 -18l182 92h151l150 -74l61 -63l62 63l149 74h152l149 -74l76 -75l72 -144l80 -82l-152 -153l-70 -138v-280l70 -281l129 -129l59 62z"/>
            <glyph glyph-name="N" unicode="N" horiz-adv-x="1998"
                   d="M1836 219l-230 -228l-155 234l-74 291v219l74 221l147 150l84 41h-80l-80 80l-71 215l-64 63h-133l-137 -69l-94 -95l26 -26l74 -221v-435l-74 -219l-71 -147l-148 -146l-227 -150l-76 75h-133l-135 -68l-25 25l221 219h154l133 -68l135 201l70 283v497l-70 209l-135 135
h-203l-133 -133v-133l141 -211l74 -147v-230l-153 -78h-156l-82 82v78h33v-65l61 -62h131l62 62v133l-142 211l-73 147v152l75 151l152 76h223l150 -74l96 -98l98 98l150 74h151l150 -74l76 -75l71 -144l80 -82l-151 -153l-70 -138v-280l70 -281l129 -129l59 62z"/>
            <glyph glyph-name="O" unicode="O" horiz-adv-x="1998"
                   d="M1768 588l-74 -219l-71 -148l-150 -147l-221 -74h-219l-219 74l-428 213h-62l-61 -62v-131l55 -55l49 49l-61 59l24 25l82 -84l-94 -93l-88 87v154l78 155h156l219 -74l286 -143l211 -70h209l137 70l68 68l72 139l69 211v209l-69 137l-140 139l-139 72l-432 143l-80 80
v123l-117 -59l-137 -136v-133l144 -286v-152l-72 -145l-82 -82h-156l-82 82v78h33v-66l62 -61h131l61 61v133l-143 287v151l73 150l148 147l137 68v29l96 -97l430 -143l220 -147l73 -148l74 -219v-219z"/>
            <glyph glyph-name="P" unicode="P" horiz-adv-x="1926"
                   d="M1696 659l-73 -221l-146 -217l-71 -74l-158 -156l-154 230l-43 43v-322l-75 -152l-152 -76h-225l-82 82v156l88 87l94 -93l-82 -84l-24 24l61 60l-49 49l-55 -55v-132l61 -61h131l64 66l69 137v337h-123l-231 -115l217 217l137 68v776l-69 209l-64 63h-203l-133 -133
v-133l141 -211l74 -147v-230l-155 -78h-154l-82 82v78h33v-65l61 -62h131l62 62v133l-142 211l-73 147v152l75 151l150 76h227l148 -74l76 -75l63 -129l356 286l154 -231l74 -146l71 -290v-220zM1592 592v211l-70 209l-141 213l-149 147l-181 -145v-770l138 -70l172 -235
l90 90l71 139z"/>
            <glyph glyph-name="Q" unicode="Q" horiz-adv-x="1998"
                   d="M1907 147l-149 -147h-156l-88 88l-262 -88h-219l-219 74l-428 213h-62l-61 -62v-131l55 -55l49 49l-61 59l24 25l82 -84l-94 -93l-88 87v154l78 155h156l219 -74l286 -143l211 -70h318l-183 183h-59l-65 -68l-25 25l149 147h156l133 -131l62 121l69 211v209l-69 137
l-140 139l-139 72l-432 143l-80 80v123l-117 -59l-137 -136v-133l144 -286v-152l-72 -145l-82 -82h-156l-82 82v78h33v-66l62 -61h131l61 61v133l-143 287v151l73 150l148 147l158 78l75 -78l430 -143l220 -147l73 -148l74 -219v-219l-74 -219l-65 -133l129 -132h59l66 68z
"/>
            <glyph glyph-name="R" unicode="R" horiz-adv-x="1998"
                   d="M1836 219l-228 -224l-157 157l-281 702l-119 -59v-424l-73 -150l-148 -147l-147 -74h-154l-149 74l-68 69h-176l94 95v176l94 -95h176l-94 -94v-127l131 -65h133l136 135l69 209v856l-69 209l-64 63h-203l-133 -133v-133l141 -211l74 -147v-230l-155 -78h-154l-82 82v78
h33v-65l61 -62h131l62 62v133l-142 211l-73 147v152l75 151l150 76h227l148 -74l76 -75l38 -80l78 153l152 76h153l148 -74l76 -75l71 -144l64 -65h63l-479 -240l281 -700l63 -64h60l65 68zM1682 1147h-80l-80 80l-71 215l-64 63h-133l-135 -67l-84 -166l16 -33v-408z"/>
            <glyph glyph-name="S" unicode="S" horiz-adv-x="1926"
                   d="M1766 512l-72 -217l-147 -150l-148 -71l-219 -74h-293l-217 74l-147 71l-148 148l-71 145l-74 221v291l74 224l71 143l150 147l221 74h291l221 -74l285 -213h131l61 62v131l-55 55l-49 -49l61 -59l-24 -25l-82 84l94 94l88 -88v-153l-78 -156h-157l-289 145l-211 70h-283
l-280 -70l-138 -137l-69 -209v-282l69 -209l140 -138l139 -71l211 -70h354l283 72l139 69l68 68l69 137v205l-133 133h-133l-137 -67l-143 -215l-150 -76h-152l-151 76l-76 151v152l76 151l147 74l17 -29l-140 -69l-67 -136v-135l65 -131h129l138 68l143 215l150 76h223
l151 -76l76 -150z"/>
            <glyph glyph-name="T" unicode="T" horiz-adv-x="1783"
                   d="M1625 1300l-2 -4l-76 -149h-158l-278 139l-203 -201v-133l143 -286v-152l-71 -145l-82 -82h-152l223 -113l211 -70h209l211 142l21 -27l-148 -145l-221 -74h-219l-219 74l-146 71l-282 142h-62l-61 -62v-131l55 -55l49 49l-61 59l24 25l82 -84l-94 -93l-88 87v154l78 155
h156l219 -74l53 -26l-76 78v149h33v-137l61 -62h131l62 62v133l-144 287v151l74 150l199 198l-187 62h-423l-136 -68l-65 -131l65 -131l140 -69l-17 -29l-147 74l-76 151v152l76 153l225 74h363l221 -74l284 -213h132l61 62v131l-55 55l-49 -49l61 -59l-25 -25l-82 84l95 94
l88 -88v-156z"/>
            <glyph glyph-name="U" unicode="U" horiz-adv-x="1568"
                   d="M1477 219l-227 -224l-160 159v188l-217 -166l-43 -29l-227 -150l-152 148l-137 70h-137l196 98v987l-61 62h-59l-66 -68l-25 25l228 225l160 -160v-1075l133 -133h131l276 207v917l-61 62h-60l-65 -68l-25 25l226 223l243 -162l-82 -80v-1062l62 -62h59l66 68z"/>
            <glyph glyph-name="V" unicode="V" horiz-adv-x="1998"
                   d="M1791 1147h-320l-61 -62v-59l65 -65l217 -146l76 -149v-295l-74 -150l-147 -147l-150 -74h-292l-220 74l-428 213h-61l-62 -62v-131l56 -55l49 49l-62 59l25 25l82 -84l-94 -93l-88 87v154l78 155h163l211 -74l43 -20l78 154v782l-69 209l-64 63h-203l-133 -133v-133
l141 -211l74 -147v-230l-153 -78h-156l-82 82v78h33v-65l61 -62h131l62 62v133l-142 211l-73 147v152l75 151l152 76h223l150 -74l76 -75l38 -80l78 153l152 76h151l150 -76l145 -217zM1735 379v135l-67 137l-215 144l-76 149v154l82 82h110l-47 47l-71 215l-64 63h-133
l-135 -67l-84 -166l16 -33v-580l-73 -221l-154 -153l217 -111l211 -70h209l137 70l68 68z"/>
            <glyph glyph-name="W" unicode="W" horiz-adv-x="2346"
                   d="M2149 1147h-319l-62 -62v-59l137 -135l146 -74l75 -151v-367l-73 -149l-76 -76l-150 -74h-221l-211 70l-141 -70h-295l-149 74l-144 143l-137 70h-133l-62 -62v-131l56 -55l49 49l-62 59l25 25l82 -84l-94 -93l-88 87v154l78 155h229l149 -74l215 -215l138 -69h135
l137 69l68 68l69 137v135l-69 140l-144 215l-73 221v293l75 153l13 2l-76 39h-207l-119 -59l58 -57l73 -150v-293l-73 -221l-146 -217l-143 -146l-27 21l144 213l69 283v354l-69 209l-64 63h-203l-133 -133v-133l141 -211l74 -147v-230l-155 -78h-154l-82 82v78h33v-65
l61 -62h131l62 62v133l-142 211l-73 147v152l75 151l150 76l231 -2l134 -68l139 70h223l113 -55l168 55h221l151 -76l74 -145zM2094 307v207l-68 137l-215 144l-76 149v154l82 82h111l-47 47l-72 215l-63 63h-205l-135 -67l-68 -135v-207l70 -140l143 -215l74 -221v-149
l-68 -135l62 -62l137 -70h135l135 68zM449 1462l-47 -24l-25 -47z"/>
            <glyph glyph-name="X" unicode="X" horiz-adv-x="1711"
                   d="M1621 1581l-295 -295l-152 76h-61l-64 -64l-69 -208v-197h264l209 211l-193 -387h-280v-197l69 -209l68 -65l137 -70h160l114 70l17 -29l-367 -218l-153 75l-148 149l-57 172l-57 -172l-226 -226l-147 73l-228 -112l295 294l152 -76h61l64 64l69 209v268h-264l-209 -211
l193 387h280v125l-69 209l-68 65l-137 70h-160l-114 -70l-17 29l367 219l153 -76l148 -149l57 -172l58 172l225 227l147 -74z"/>
            <glyph glyph-name="Y" unicode="Y" horiz-adv-x="1855"
                   d="M1625 373l-72 -291l-74 -147l-149 -147l-221 -74h-291l-221 74l-150 147l-78 157l92 90l95 -94l-82 -84l-25 25l62 59l-50 49l-51 -53l66 -128l137 -139l209 -70h283l208 70l66 65l70 208v1333l-398 -198v-351l-73 -219l-70 -141v-61l133 -134h59l66 68l25 -25l-228 -225
l-235 234l75 153l72 283v426l-69 209l-64 63h-203l-133 -133v-133l141 -211l74 -147v-230l-153 -78h-156l-82 82v78h33v-65l61 -62h131l62 62v133l-142 211l-73 147v152l75 151l152 76h223l150 -74l76 -75l65 -132l582 291v-1175z"/>
            <glyph glyph-name="Z" unicode="Z" horiz-adv-x="1711"
                   d="M1481 84l-73 -149l-150 -147l-221 -74h-293l-149 76l-218 288l-65 65h-59l-62 -61v-130l62 -62h65v-32h-78l-82 82v154l82 82h228l77 -78l144 -214l69 -67l138 -70h135l137 70l68 67l69 136v422l-67 138l-207 137h-207l-137 -70l-68 -67l-72 -142l-28 17l71 145l76 76
l117 57l-119 60l-74 147l29 16l70 -139l135 -67h205l63 65l70 137v351l-70 137l-63 65h-205l-135 -67l-70 -140l-29 17l74 147l152 76h223l150 -74l75 -75l74 -150v-223l-74 -150l-75 -75l-111 -56l180 -59l150 -148l73 -149v-295z"/>
            <glyph glyph-name="bracketleft" unicode="[" horiz-adv-x="995"
                   d="M836 -501h-534v2326h534v-105h-430v-2116h430v-105z"/>
            <glyph glyph-name="backslash" unicode="\" horiz-adv-x="1640"
                   d="M1494 -501h-111l-1309 2326h111z"/>
            <glyph glyph-name="bracketright" unicode="]" horiz-adv-x="995"
                   d="M765 -501h-535v105h430v2116h-430v105h535v-2326z"/>
            <glyph glyph-name="asciicircum" unicode="^" horiz-adv-x="1568"
                   d="M1401 1464l-14 -28l-567 211l-567 -211l-15 28l582 363z"/>
            <glyph glyph-name="underscore" unicode="_" horiz-adv-x="1711"
                   d="M1625 -214h-1467v104h1467v-104z"/>
            <glyph glyph-name="grave" unicode="`" horiz-adv-x="851"
                   d="M478 1659l-88 -88l-56 55v-100l70 -137l70 -70l-25 -25l-74 74l-73 150v225l88 88l88 -88v-84z"/>
            <glyph glyph-name="a" unicode="a"
                   d="M1191 219l-228 -224l-160 159v51l-421 -210l-78 159l-74 219v219l74 221l76 78l147 74h4l221 73l78 -75l137 -70h107l-94 -94v-561l61 -62h59l66 68zM803 242v553l-137 67l-67 70h-60l-135 -135l-70 -209v-209l70 -137l133 -133z"/>
            <glyph glyph-name="b" unicode="b"
                   d="M1051 444l-73 -221l-76 -78l-148 -71l-225 -75l-78 75l-137 69h-106l94 95v921l-70 137l-70 70l25 25l74 -74l57 -117l57 117l150 147l217 74l14 -31l-141 -71l-68 -66l-69 -209v-330l422 211l78 -159l73 -219v-220zM947 449v139l-70 209l-133 131l-266 -133v-553
l137 -68l74 -74l-23 -22l74 24l137 138z"/>
            <glyph glyph-name="c" unicode="c" horiz-adv-x="923"
                   d="M849 872l-177 -88l-141 144l-74 -49l19 -11l-70 -139v-350l70 -137l133 -133l131 65l16 -29l-299 -148l-153 153l-74 149v367l76 149l219 148l156 77z"/>
            <glyph glyph-name="d" unicode="d"
                   d="M1051 444l-73 -223l-228 -149l-221 -73l-78 75l-137 69h-106l94 95v577l293 156l-215 106l-78 80v156l75 78l144 143l24 -25l-139 -137v-59l66 -66l358 -215l148 -147l73 -221v-220zM947 449v208l-68 138l-211 139l-37 18l-153 -86v-624l137 -68l68 -70h59l135 136z"/>
            <glyph glyph-name="e" unicode="e" horiz-adv-x="923"
                   d="M842 729l-436 -291v-59l70 -137l133 -133l131 65l16 -29l-299 -148l-153 153l-74 149v367l76 149l303 227zM668 651l-143 209h-53l-66 -131v-252z"/>
            <glyph glyph-name="f" unicode="f" horiz-adv-x="923"
                   d="M951 1606l-117 -238l-80 -78h-153l-144 72h-61l-62 -62v-133l70 -137l68 -67l137 -70h156v-105h-287v-342l-72 -789h-33l-71 789v342h-166l96 99l70 137v358l78 156h157l144 -72h133z"/>
            <glyph glyph-name="g" unicode="g"
                   d="M1074 893l-94 -94v-857l-74 -150l-76 -76l-149 -73h-224l-149 73l-78 80v94h104v-88h-32v56h-39v-50l65 -63l138 -70h206l136 68l67 135v136l-65 195l-428 -214l-78 159l-74 219v219l74 221l76 78l147 72l225 75l78 -75l137 -70h107zM803 242v553l-137 67l-73 74l22 22
l-74 -24l-137 -137l-70 -209v-139l70 -209l133 -131z"/>
            <glyph glyph-name="h" unicode="h"
                   d="M1051 301l-73 -219l-72 -147l-148 -145l-217 -145l-16 28l211 142l141 208l70 282v211l-70 209l-135 203l-264 -133v-557l61 -62h60l65 68l25 -25l-228 -224l-81 79l-162 82l84 82v921l-70 137l-70 70l25 25l74 -74l57 -117l57 117l150 147l217 74l14 -31l-141 -71
l-68 -66l-69 -209v-330l422 211l80 -159l71 -291v-291z"/>
            <glyph glyph-name="i" unicode="i" horiz-adv-x="708"
                   d="M550 1372l-89 -88l-88 88v84l88 88l89 -88v-84zM760 219l-227 -224l-160 159v645l-61 61h-59l-66 -67l-25 24l228 225l82 -79l161 -82l-83 -82v-561l61 -62h59l66 68z"/>
            <glyph glyph-name="j" unicode="j" horiz-adv-x="708"
                   d="M478 1372l-88 -88l-88 88v84l88 88l88 -88v-84zM617 -185l-24 -25l-74 74l-58 117l-57 -117l-149 -148l-217 -82l-15 29l142 80l67 68l70 207v781l-62 61h-59l-66 -67l-24 24l227 225l82 -79l162 -82l-84 -82v-779l69 -136z"/>
            <glyph glyph-name="k" unicode="k" horiz-adv-x="995"
                   d="M908 788h-358v-550l61 -62h59l66 68l24 -25l-227 -224l-82 79l-162 82l84 82v550h-165l96 99l69 137v135l-69 137l-70 70l25 25l73 -74l58 -117l57 117l148 147l237 117l-213 -211l-69 -209v-37l272 205l86 -88v-156l-150 -151l-84 -41h234v-105zM803 1096v61l-67 66l2 2
l-188 -142v-190h51l135 68z"/>
            <glyph glyph-name="l" unicode="l" horiz-adv-x="708"
                   d="M756 1507l-141 -71l-68 -66l-69 -209v-923l61 -62h60l65 68l25 -25l-228 -224l-81 79l-162 82l84 82v921l-70 137l-70 70l25 25l74 -74l57 -117l57 117l150 147l217 74z"/>
            <glyph glyph-name="m" unicode="m" horiz-adv-x="1855"
                   d="M1836 219l-228 -224l-159 159v641l-138 67l-63 66l-197 -131v-559l78 -78l-166 -165l-166 165l78 78v491l-67 135l-129 66l-201 -133v-559l78 -78l-166 -165l-166 165l78 78v561l-62 61h-59l-66 -67l-24 24l227 225l160 -159v-47l190 127l152 75l156 -77l65 -132l201 134
l155 77l78 -77l137 -70h107l-94 -94v-561l61 -62h60l65 68z"/>
            <glyph glyph-name="n" unicode="n" horiz-adv-x="1281"
                   d="M1262 219l-227 -224l-160 159v641l-137 67l-64 66l-196 -131v-559l78 -78l-166 -165l-166 165l78 78v561l-62 61h-59l-66 -67l-24 24l227 225l160 -159v-47l190 127l156 77l78 -77l137 -70h106l-94 -94v-561l62 -62h59l66 68z"/>
            <glyph glyph-name="o" unicode="o"
                   d="M1051 444l-73 -221l-76 -78l-148 -71l-225 -75l-78 75l-137 69h-106l94 95v577l368 150l230 75l78 -157l73 -219v-220zM947 449v139l-70 209l-141 139l22 22l-75 -24l-148 -60l10 -10l-67 -65v-557l137 -68l74 -74l-23 -22l74 24l137 138z"/>
            <glyph glyph-name="p" unicode="p"
                   d="M1051 444l-73 -221l-76 -78l-144 -71l-10 -8l-4 2l-143 -71l-127 128l-84 -583l-84 593l-215 -106l211 209v493l-72 215v152l147 149l25 -24l-68 -66v-61l70 -142l74 -219v-487h59l150 -74l61 -63l129 129l70 209v139l-70 209l-133 131l-274 -137l-17 28l447 223l78 -159
l73 -219v-220z"/>
            <glyph glyph-name="q" unicode="q"
                   d="M1074 893l-94 -94v-641l-91 -622l-83 671l-424 -212l-78 159l-74 219v219l74 221l76 78l147 72l225 75l78 -75l137 -70h107zM803 242v553l-137 67l-73 74l22 22l-74 -24l-137 -137l-70 -209v-139l70 -209l133 -131z"/>
            <glyph glyph-name="r" unicode="r" horiz-adv-x="995"
                   d="M914 868l-174 -86l-72 144l-118 -60v-628l61 -62h59l66 68l24 -25l-227 -224l-82 79l-162 82l84 82v561l-61 61h-59l-66 -67l-25 24l228 225l147 -145l291 145z"/>
            <glyph glyph-name="s" unicode="s" horiz-adv-x="780"
                   d="M951 1606l-117 -238l-80 -78h-153l-144 72h-61l-62 -62v-133l144 -358v-291l-72 -861h-33l-71 861v270h-166l96 99l70 137v358l78 156h157l144 -72h133z"/>
            <glyph glyph-name="t" unicode="t" horiz-adv-x="851"
                   d="M765 788h-215v-550l61 -62h59l66 68l24 -25l-227 -224l-82 79l-162 82l84 82v550h-268l203 103l67 67l72 140l103 309v-514h215v-105z"/>
            <glyph glyph-name="u" unicode="u" horiz-adv-x="1281"
                   d="M1262 219l-227 -224l-160 159v47l-190 -127l-156 -77l-78 77l-137 69h-106l94 95v561l-62 61h-59l-66 -67l-24 24l227 225l160 -159v-641l137 -68l64 -65l196 131v559l-78 78l166 165l166 -165l-78 -78v-561l62 -62h59l66 68z"/>
            <glyph glyph-name="v" unicode="v"
                   d="M1051 444l-73 -221l-76 -78l-148 -71l-225 -75l-78 75l-137 69h-106l94 95v421l-72 215v152l147 150l25 -25l-68 -66v-61l144 -358v-424l137 -68l74 -74l-23 -22l74 24l137 138l70 209v139l-70 209l-133 131l-274 -137l-17 28l447 223l151 -376v-222z"/>
            <glyph glyph-name="w" unicode="w" horiz-adv-x="1783"
                   d="M1625 516l-74 -293l-76 -78l-147 -71l-226 -75l-77 75l-138 69h-106l94 95v491l-67 135l-129 66l-209 -139l-17 28l215 144l152 75l156 -77l67 -134l430 215l78 -159l74 -219v-148zM556 160l-166 -165l-166 165l78 78v421l-72 215v152l147 150l25 -25l-68 -66v-61
l70 -141l74 -219v-426zM1520 449v139l-69 209l-133 131l-267 -133v-553l138 -68l73 -74l-22 -22l73 24l138 138z"/>
            <glyph glyph-name="x" unicode="x" horiz-adv-x="1066"
                   d="M986 868l-174 -86l-72 144l-119 -60v-624l137 -68l66 -65l131 65l16 -29l-299 -148l-77 77l-138 69h-133l-133 -133v-132l68 -135l135 -68h209l200 68v43h-38v-55h-33v88h104v-101l-229 -75h-221l-152 75l-76 152v153l2 4l74 145l152 76h59v551l-61 61h-60l-65 -67
l-25 24l227 225l148 -145l291 145z"/>
            <glyph glyph-name="y" unicode="y"
                   d="M1051 301l-73 -219l-72 -147l-148 -145l-217 -145l-16 28l211 142l141 208l70 282v211l-70 209l-135 203l-272 -137l-17 28l447 223l80 -159l71 -291v-291zM689 219l-228 -224l-81 79l-162 82l84 82v421l-72 215v152l147 150l25 -25l-68 -66v-61l144 -358v-428l61 -62h60
l65 68z"/>
            <glyph glyph-name="z" unicode="z" horiz-adv-x="995"
                   d="M898 358l-135 -45l73 -149v-294l-76 -152l-149 -75h-154l-151 75l-76 152v150l76 152l149 74l113 39l-139 92l166 84l67 67l70 138v63l-68 135l-139 70l14 29l-284 -172l-17 28l367 219l155 -77l76 -152v-152l-76 -151l-127 -64l101 -102l151 51zM732 -122v206l-68 137
l-61 41l-135 -45l-138 -70l-67 -135v-134l67 -135l136 -68h133l63 66z"/>
            <glyph glyph-name="braceleft" unicode="{" horiz-adv-x="995"
                   d="M621 299l-74 -149l-71 -72l-70 -136v-138l70 -204l137 -70l-16 -29l-291 146l-76 151v152l74 148l71 72l70 137v135l-68 136l-167 84l167 83l68 136v135l-70 137l-71 72l-74 149v152l76 151l291 146l16 -29l-137 -70l-70 -204v-138l70 -137l71 -71l74 -150v-154l-78 -79
l-260 -129l260 -130l78 -79v-154z"/>
            <glyph glyph-name="bar" unicode="|" horiz-adv-x="636"
                   d="M406 -501h-104v2326h104v-2326z"/>
            <glyph glyph-name="braceright" unicode="}" horiz-adv-x="995"
                   d="M642 662l-168 -84l-68 -136v-135l70 -137l71 -72l74 -148v-152l-76 -151l-290 -146l-17 29l137 70l70 204v138l-70 136l-71 72l-74 149v154l78 79l260 130l-260 129l-78 79v154l74 150l71 71l70 137v138l-70 204l-137 70l17 29l290 -146l76 -151v-152l-74 -149l-71 -72
l-70 -137v-135l68 -136z"/>
            <glyph glyph-name="asciitilde" unicode="~" horiz-adv-x="1855"
                   d="M1625 727l-2 -2l-72 -219l-154 -76h-151l-574 287h-135l-137 -70l-66 -63v-138h-32v146l73 225l154 76h152l573 -287h135l137 70l66 63v138h33v-150z"/>
            <glyph glyph-name="nonbreakingspace" unicode="&#xa0;" horiz-adv-x="1496"
            />
            <glyph glyph-name="exclamdown" unicode="&#xa1;" horiz-adv-x="851"
                   d="M550 1300l-89 -88l-88 88v84l88 89l89 -89v-84zM713 160l-170 -86l-82 -79l-81 79l-170 86l163 82l72 780h33l72 -780z"/>
            <glyph glyph-name="cent" unicode="&#xa2;" horiz-adv-x="1353"
                   d="M1207 1251l-180 -301l90 -61l78 -78v-166h-176v176h120l-43 43l-86 58l-483 -805l16 -15l138 -69h137l209 69l139 142l25 -25l-148 -145l-221 -74h-150l-2 2l-178 57l-164 -273h-110l196 327l-110 110l-74 221v148l74 221l149 150l219 73h224l51 -35l149 250h111z
M930 975l-43 29h-206l-138 -70l-67 -66l-70 -209v-282l60 -178z"/>
            <glyph glyph-name="sterling" unicode="&#xa3;" horiz-adv-x="1425"
                   d="M1207 326l-141 -326h-320q-21 6 -285 72l-325 -81l-8 21l178 88l67 136v522h-184v94h184v313l74 221l76 78l147 74h82l150 -74l78 -80v-165h-177v176h121l-43 41l-137 69h-61l-64 -65l-69 -137v-451h204v-94h-204v-522l67 -136l135 -67h66l147 49l51 33l168 221z"/>
            <glyph glyph-name="yen" unicode="&#xa5;" horiz-adv-x="1568"
                   d="M1537 1505h-68l-135 -67l-414 -688h473v-33h-485v-111h485v-33h-485v-411l49 -88l82 -41h68v-33h-574v33h68l88 43l43 88v409h-486v33h486v111h-486v33h471l-448 706l-98 49h-68v33h502v-33h-68l-90 -45l445 -696l407 680l-125 61h-67v33h430v-33z"/>
            <glyph glyph-name="section" unicode="&#xa7;" horiz-adv-x="1425"
                   d="M1266 655l-147 -149l-127 -64l57 -57l74 -149v-80l-74 -150l-73 -73l-152 -75h-152l-151 75l-76 151v164h176v-176h-133l57 -114l136 -68h135l135 68l68 134v133l-64 64l-428 143l-147 72l-76 76l-74 149v154l147 149l127 64l-57 57l-74 150v79l74 150l76 76l149 73h152
l152 -75l75 -152v-164h-176v176h133l-57 115l-135 68h-135l-136 -68l-67 -135v-133l65 -64l140 -71l432 -144l78 -76l73 -149v-154zM1162 666v133l-64 63l-428 144l-137 67l-131 -65l-68 -136v-133l66 -63l139 -72l422 -139l133 65z"/>
            <glyph glyph-name="ordfeminine" unicode="&#xaa;" horiz-adv-x="708"
                   d="M644 1108l-111 -111l-76 76l-219 -74l-80 160v152l74 149l80 78h156l82 -82v-348h94zM621 860h-463v64h463v-64zM445 1108v332l-123 61l-59 -57v-275l61 -61h121z"/>
            <glyph glyph-name="guillemotleft" unicode="&#xab;" horiz-adv-x="1353"
                   d="M1123 -22l-541 540l541 541v-117l-424 -424l424 -424v-116zM765 -22l-541 540l541 541v-117l-424 -424l424 -424v-116z"/>
            <glyph glyph-name="degree" unicode="&#xb0;" horiz-adv-x="923"
                   d="M765 1231l-76 -154l-221 -73h-160l-2 4l-141 69l-78 80v154l75 153l222 74h159l2 -4l142 -70l78 -80v-153zM588 1239v135l-65 131h-127l-64 -65l-69 -137v-136l65 -131h127l64 66z"/>
            <glyph glyph-name="plusminus" unicode="&#xb1;" horiz-adv-x="1783"
                   d="M1553 860h-573v-573h-105v573h-573v105h573v573h105v-573h573v-105zM1553 72h-1251v104h1251v-104z"/>
            <glyph glyph-name="ordmasculine" unicode="&#xba;" horiz-adv-x="708"
                   d="M621 1229l-121 -121l-194 -109l-148 158v156l121 121l195 108l147 -158v-155zM621 860h-463v64h463v-64zM517 1169v203l-62 62h-131l-61 -62v-203l61 -61h131z"/>
            <glyph glyph-name="guillemotright" unicode="&#xbb;" horiz-adv-x="1353"
                   d="M1201 518l-541 -540v116l424 424l-424 424v117zM842 518l-540 -540v116l424 424l-424 424v117z"/>
            <glyph glyph-name="questiondown" unicode="&#xbf;" horiz-adv-x="1281"
                   d="M765 1300l-88 -88l-89 88v84l89 89l88 -89v-84zM1129 311l-80 -161l-78 -76l-221 -74h-147l-221 74l-78 76l-74 149v152l74 149l147 148l139 69l87 254l94 -283h-160l-135 -137l-70 -137v-278l68 -136l135 -67h135l135 67l68 136v165z"/>
            <glyph glyph-name="Agrave" unicode="&#xc0;" horiz-adv-x="1711"
                   d="M1145 1505h-114l-479 320h274zM1625 1290h-127l88 88l-55 56h-132l-63 -64l-70 -209v-852l127 -127l131 133l25 -24l-299 -296l-160 159v188l-487 -345l-387 384l237 80l137 137l70 209v424l-70 137l-63 66h-133l-135 -68l-64 -127l51 -53l50 49l-62 59l25 25l82 -84
l-95 -94l-92 90l80 160l152 75h151l150 -73l76 -78l73 -221v-220l-73 -221l-148 -149l-147 -72l-29 -10l295 -295l356 256v784l74 150l76 76l149 73h154l82 -82v-94z"/>
            <glyph glyph-name="Aacute" unicode="&#xc1;" horiz-adv-x="1711"
                   d="M1225 1825l-399 -320h-117l320 320h196zM1625 1290h-127l88 88l-55 56h-132l-63 -64l-70 -209v-852l127 -127l131 133l25 -24l-299 -296l-160 159v188l-487 -345l-387 384l237 80l137 137l70 209v424l-70 137l-63 66h-133l-135 -68l-64 -127l51 -53l50 49l-62 59l25 25
l82 -84l-95 -94l-92 90l80 160l152 75h151l150 -73l76 -78l73 -221v-220l-73 -221l-148 -149l-147 -72l-29 -10l295 -295l356 256v784l74 150l76 76l149 73h154l82 -82v-94z"/>
            <glyph glyph-name="Acircumflex" unicode="&#xc2;" horiz-adv-x="1711"
                   d="M1283 1505h-111l-209 209l-209 -209h-110l239 320h160zM1625 1290h-127l88 88l-55 56h-132l-63 -64l-70 -209v-852l127 -127l131 133l25 -24l-299 -296l-160 159v188l-487 -345l-387 384l237 80l137 137l70 209v424l-70 137l-63 66h-133l-135 -68l-64 -127l51 -53l50 49
l-62 59l25 25l82 -84l-95 -94l-92 90l80 160l152 75h151l150 -73l76 -78l73 -221v-220l-73 -221l-148 -149l-147 -72l-29 -10l295 -295l356 256v784l74 150l76 76l149 73h154l82 -82v-94z"/>
            <glyph glyph-name="Atilde" unicode="&#xc3;" horiz-adv-x="1711"
                   d="M1266 1731l-2 -5l-75 -149h-87l-358 143h-61l-62 -61v-66h-33v76l78 156h86l359 -144h61l62 62v65h32v-77zM1625 1290h-127l88 88l-55 56h-132l-63 -64l-70 -209v-852l127 -127l131 133l25 -24l-299 -296l-160 159v188l-487 -345l-387 384l237 80l137 137l70 209v424
l-70 137l-63 66h-133l-135 -68l-64 -127l51 -53l50 49l-62 59l25 25l82 -84l-95 -94l-92 90l80 160l152 75h151l150 -73l76 -78l73 -221v-220l-73 -221l-148 -149l-147 -72l-29 -10l295 -295l356 256v784l74 150l76 76l149 73h154l82 -82v-94z"/>
            <glyph glyph-name="Adieresis" unicode="&#xc4;" horiz-adv-x="1711"
                   d="M1266 1659l-88 -88l-88 88v84l88 88l88 -88v-84zM765 1659l-88 -88l-89 88v84l89 88l88 -88v-84zM1625 1290h-127l88 88l-55 56h-132l-63 -64l-70 -209v-852l127 -127l131 133l25 -24l-133 -131l-10 -13l-156 -152l-160 159v188l-487 -345l-387 384l237 80l137 137
l70 209v354l-70 209l-63 64h-133l-135 -68l-64 -127l51 -53l50 49l-62 59l25 25l82 -84l-95 -94l-92 90l80 160l152 75h151l150 -73l76 -78l73 -221v-220l-73 -221l-148 -149l-147 -72l-29 -10l295 -295l356 256v784l74 150l76 76l149 73h154l82 -82v-94z"/>
            <glyph glyph-name="Aring" unicode="&#xc5;" horiz-adv-x="1711"
                   d="M1133 1667l-168 -166l-243 162l167 166zM1625 1290h-127l88 88l-55 56h-132l-63 -64l-70 -209v-852l127 -127l131 133l25 -24l-133 -131l-10 -13l-156 -152l-160 159v188l-487 -345l-387 384l237 80l137 137l70 209v354l-70 209l-63 64h-133l-135 -68l-64 -127l51 -53
l50 49l-62 59l25 25l82 -84l-95 -94l-92 90l80 160l152 75h151l150 -73l76 -78l73 -221v-220l-73 -221l-148 -149l-147 -72l-29 -10l295 -295l356 256v784l74 150l76 76l149 73h154l82 -82v-94zM1080 1663l-186 125l-119 -121l186 -125z"/>
            <glyph glyph-name="AE" unicode="&#xc6;" horiz-adv-x="2715"
                   d="M2364 1108l-176 -176h-156l-69 67l-117 -59l65 -131v-152l-71 -143v-6l-156 -78h-80l-151 76l-74 147l29 17l69 -140l135 -67h64l131 65v129l-68 138l-215 143l-75 149v80l73 150l64 61l-127 127h-58l-137 -205l-69 -282v-283l71 -282l70 -140l137 -139l209 -70h139
l209 70l215 143l21 -26l-146 -146l-147 -71l-219 -74h-148l-219 74l-147 73l-138 205l-499 -355l-387 384l237 80l137 137l70 209v426l-70 209l-63 63h-133l-135 -67l-64 -127l51 -54l50 50l-62 59l25 25l82 -84l-95 -95l-92 91l80 159l152 76h153l148 -74l76 -78l73 -221
v-291l-73 -221l-148 -149l-145 -72l-31 -10l295 -295l354 254l-69 278v291l73 291l148 221l143 72l2 4h86l139 -139l215 143l80 -78l138 -69h133l65 67l25 -24l-74 -74l-149 -74h-154l-156 154l-114 -78l-66 -66v-61l68 -137l204 -135l132 67l153 152l78 -78h176z"/>
            <glyph glyph-name="Ccedilla" unicode="&#xc7;" horiz-adv-x="1711"
                   d="M1549 291l-145 -146l-148 -71l-219 -74h-61l-62 -181h127l82 -82v-86l-76 -56l-76 -96h-229l-104 105h116l72 -72h129l64 82v111l-62 61h-88l6 18v196h-57l-219 74l-148 73l-147 222l-74 290v291l74 291l147 221l150 76h153l140 -139l215 143l80 -78l137 -69h133l65 67
l25 -24l-74 -74l-149 -74h-154l-156 154l-114 -78l-66 -66v-61l68 -137l215 -144l76 -149v-152l-76 -151l-152 -76h-80l-151 76l-74 147l29 17l69 -140l136 -67h63l131 65v129l-67 138l-215 143l-76 149v80l71 146l66 65l-127 127h-131l-64 -65l-69 -140l-72 -282v-283
l72 -282l69 -140l138 -139l209 -70h211l208 70l215 143z"/>
            <glyph glyph-name="Egrave" unicode="&#xc8;" horiz-adv-x="1711"
                   d="M1225 1505h-123l-479 320h203zM1647 965l-176 -177h-156l-88 86l-100 -73l68 -135v-80l-72 -150l-156 -78h-80l-151 76l-74 148l29 16l69 -139l136 -68h63l131 66v57l-67 137l-215 144l-76 149v80l74 150l63 61l-127 127h-129l-137 -205l-70 -283v-139l72 -282l69 -140
l138 -139l209 -70h211l208 70l215 143l21 -26l-145 -146l-148 -71l-219 -74h-219l-219 74l-148 73l-147 222l-74 290v148l74 291l147 221l146 76h157l140 -140l215 144l80 -78l137 -70h133l65 68l25 -25l-78 -75h-2l-143 -72h-154l-156 153l-114 -77l-66 -66v-61l68 -138
l203 -133l288 217l76 -77h176z"/>
            <glyph glyph-name="Eacute" unicode="&#xc9;" horiz-adv-x="1711"
                   d="M1303 1825l-479 -320h-123l399 320h203zM1647 965l-176 -177h-156l-88 86l-100 -73l68 -135v-80l-72 -144v-6l-156 -78h-80l-151 76l-74 148l29 16l69 -139l136 -68h63l131 66v57l-67 137l-215 144l-76 149v80l74 150l63 61l-127 127h-129l-137 -205l-70 -283v-139
l72 -282l69 -140l138 -139l209 -70h211l208 70l215 143l21 -26l-145 -146l-148 -71l-219 -74h-219l-219 74l-148 73l-147 222l-74 290v148l74 291l147 221l144 72l2 4h157l140 -140l215 144l80 -78l137 -70h133l65 68l25 -25l-78 -75h-2l-143 -72h-154l-156 153l-114 -77
l-66 -66v-61l68 -138l203 -133l288 217l76 -77h176z"/>
            <glyph glyph-name="Ecircumflex" unicode="&#xca;" horiz-adv-x="1711"
                   d="M1283 1505h-111l-209 209l-209 -209h-110l239 320h160zM1647 965l-176 -177h-156l-88 86l-100 -73l68 -135v-80l-72 -144v-6l-156 -78h-80l-151 76l-74 148l29 16l69 -139l136 -68h63l131 66v57l-67 137l-215 144l-76 149v80l74 150l63 61l-127 127h-129l-137 -205
l-70 -283v-139l72 -282l69 -140l138 -139l209 -70h211l208 70l215 143l21 -26l-145 -146l-148 -71l-219 -74h-219l-219 74l-148 73l-147 222l-74 290v148l74 291l147 221l144 72l2 4h157l140 -140l215 144l80 -78l137 -70h133l65 68l25 -25l-78 -75h-2l-143 -72h-154
l-156 153l-114 -77l-66 -66v-61l68 -138l203 -133l288 217l76 -77h176z"/>
            <glyph glyph-name="Edieresis" unicode="&#xcb;" horiz-adv-x="1711"
                   d="M1338 1659l-88 -88l-88 88v84l88 88l88 -88v-84zM836 1659l-88 -88l-88 88v84l88 88l88 -88v-84zM1647 965l-176 -177h-156l-88 86l-100 -73l68 -135v-80l-72 -150l-156 -78h-80l-151 76l-74 148l29 16l69 -139l136 -68h63l131 66v57l-67 137l-215 144l-76 149v80l74 150
l63 61l-127 127h-129l-137 -205l-70 -283v-139l72 -282l69 -140l138 -139l209 -70h211l208 70l215 143l21 -26l-145 -146l-148 -71l-219 -74h-219l-219 74l-148 73l-147 222l-74 290v148l74 291l147 221l146 76h157l140 -140l215 144l80 -78l137 -70h133l65 68l25 -25
l-78 -75h-2l-143 -72h-154l-156 153l-114 -77l-66 -66v-61l68 -138l203 -133l288 217l76 -77h176z"/>
            <glyph glyph-name="Igrave" unicode="&#xcc;" horiz-adv-x="1783"
                   d="M1225 1505h-123l-479 320h203zM1625 1085l-82 -81h-152l-219 73l-143 72l-211 70h-281l-137 -70l-66 -64v-133l70 -137l68 -67l137 -70h139v-33h-147l-150 74l-76 76l-73 149v154l2 4l71 143l78 76l221 74h148l221 -74l217 -215l137 -70h134l61 62v131l-61 61h-138v33
h150l82 -82v-156zM1481 84l-73 -149l-76 -75l-150 -74h-223l-149 74l-74 75l-146 217l-71 141l-64 65h-131l-61 -61v-131l55 -55l49 49l-61 59l24 25l82 -84l-94 -94l-88 88v155l82 82h154l149 -74l145 -147l144 -214l137 -137h133l135 67l68 134v62l-213 285l-74 147v154
l154 153h155l82 -82v-77h-32v65l-62 61h-131l-61 -61v-61l69 -140l144 -215l73 -147v-80z"/>
            <glyph glyph-name="Iacute" unicode="&#xcd;" horiz-adv-x="1783"
                   d="M1303 1825l-479 -320h-123l399 320h203zM1625 1085l-82 -81h-152l-219 73l-143 72l-211 70h-281l-137 -70l-66 -64v-133l70 -137l68 -67l137 -70h139v-33h-147l-150 74l-76 76l-73 149v154l2 4l71 143l78 76l221 74h148l221 -74l217 -215l137 -70h134l61 62v131l-61 61
h-138v33h150l82 -82v-156zM1481 84l-73 -149l-76 -75l-150 -74h-223l-149 74l-74 75l-146 217l-71 141l-64 65h-131l-61 -61v-131l55 -55l49 49l-61 59l24 25l82 -84l-94 -94l-88 88v155l82 82h154l149 -74l145 -147l144 -214l137 -137h133l135 67l68 134v62l-213 285
l-74 147v154l154 153h155l82 -82v-77h-32v65l-62 61h-131l-61 -61v-61l69 -140l144 -215l73 -147v-80z"/>
            <glyph glyph-name="Icircumflex" unicode="&#xce;" horiz-adv-x="1783"
                   d="M1283 1505h-111l-209 209l-209 -209h-110l239 320h160zM1625 1085l-82 -81h-152l-219 73l-143 72l-211 70h-281l-137 -70l-66 -64v-133l70 -137l68 -67l137 -70h139v-33h-147l-150 74l-76 76l-73 149v154l2 4l71 143l78 76l221 74h148l221 -74l217 -215l137 -70h134
l61 62v131l-61 61h-138v33h150l82 -82v-156zM1481 84l-73 -149l-76 -75l-150 -74h-223l-149 74l-74 75l-146 217l-71 141l-64 65h-131l-61 -61v-131l55 -55l49 49l-61 59l24 25l82 -84l-94 -94l-88 88v155l82 82h154l149 -74l145 -147l144 -214l137 -137h133l135 67l68 134
v62l-213 285l-74 147v154l154 153h155l82 -82v-77h-32v65l-62 61h-131l-61 -61v-61l69 -140l144 -215l73 -147v-80z"/>
            <glyph glyph-name="Idieresis" unicode="&#xcf;" horiz-adv-x="1783"
                   d="M1338 1659l-88 -88l-88 88v84l88 88l88 -88v-84zM765 1659l-88 -88l-89 88v84l89 88l88 -88v-84zM1625 1085l-82 -81h-152l-219 73l-143 72l-211 70h-281l-137 -70l-66 -64v-133l70 -137l68 -67l137 -70h139v-33h-147l-150 74l-76 76l-73 149v154l2 4l71 143l78 76
l221 74h148l221 -74l217 -215l137 -70h134l61 62v131l-61 61h-138v33h150l82 -82v-156zM1481 84l-73 -149l-76 -75l-150 -74h-223l-149 74l-74 75l-146 217l-71 141l-64 65h-131l-61 -61v-131l55 -55l49 49l-61 59l24 25l82 -84l-94 -94l-88 88v155l82 82h154l149 -74
l145 -147l144 -214l137 -137h133l135 67l68 134v62l-213 285l-74 147v154l154 153h155l82 -82v-77h-32v65l-62 61h-131l-61 -61v-61l69 -140l144 -215l73 -147v-80z"/>
            <glyph glyph-name="Ntilde" unicode="&#xd1;" horiz-adv-x="1998"
                   d="M1811 1892l-117 -237l-151 -150h-82l-287 144h-133l-209 -211l117 237l151 150h82l287 -144h133zM1836 219l-230 -228l-155 232l-74 221v148l74 221l147 150l84 41h-80l-80 79l-71 215l-64 64h-133l-137 -70l-94 -94l26 -27l74 -221l2 -291l-74 -219l-71 -147l-148 -146
l-227 -150l-76 75h-133l-231 -114l292 290h154l133 -68l135 201l70 283v354l-70 209l-135 135h-205l-133 -133v-133l141 -211l74 -148v-157l-153 -78h-156l-82 82v78h33v-66l61 -61h131l62 61v61l-142 211l-73 148v151l75 152l152 76h225l150 -74l94 -98l98 98l150 74h151
l150 -74l76 -76l71 -143l80 -82l-151 -154l-70 -137v-209l70 -209l129 -129l59 62z"/>
            <glyph glyph-name="Ograve" unicode="&#xd2;" horiz-adv-x="1998"
                   d="M1225 1505h-123l-479 320h203zM1768 588l-74 -219l-71 -148l-76 -76l-74 -71l-221 -74h-219l-219 74l-428 213h-62l-61 -62v-131l55 -55l49 49l-61 59l24 25l82 -84l-94 -93l-88 87v154l78 155h156l219 -74l286 -143l211 -70h209l137 70l68 68l72 139l69 211v137l-69 137
l-140 140l-139 71l-432 144l-80 79v123l-117 -59l-137 -135v-133l144 -287v-80l-72 -145l-82 -82h-156l-82 82v78h33v-66l62 -61h131l61 61v61l-143 287v152l73 149l148 148l137 67v29l96 -96l430 -144l220 -147l73 -148l74 -219v-147z"/>
            <glyph glyph-name="Oacute" unicode="&#xd3;" horiz-adv-x="1998"
                   d="M1303 1825l-479 -320h-123l399 320h203zM1768 588l-74 -219l-71 -148l-76 -76l-74 -71l-221 -74h-219l-219 74l-428 213h-62l-61 -62v-131l55 -55l49 49l-61 59l24 25l82 -84l-94 -93l-88 87v154l78 155h156l219 -74l286 -143l211 -70h209l137 70l68 68l72 139l69 211
v137l-69 137l-140 140l-139 71l-432 144l-80 79v123l-117 -59l-137 -135v-133l144 -287v-80l-72 -145l-82 -82h-156l-82 82v78h33v-66l62 -61h131l61 61v61l-143 287v152l73 149l148 148l137 67v29l96 -96l430 -144l220 -147l73 -148l74 -219v-147z"/>
            <glyph glyph-name="Ocircumflex" unicode="&#xd4;" horiz-adv-x="1998"
                   d="M1283 1505h-111l-209 209l-209 -209h-110l239 320h160zM1768 588l-74 -219l-71 -148l-76 -76l-74 -71l-221 -74h-219l-219 74l-428 213h-62l-61 -62v-131l55 -55l49 49l-61 59l24 25l82 -84l-94 -93l-88 87v154l78 155h156l219 -74l286 -143l211 -70h209l137 70l68 68
l72 139l69 211v137l-69 137l-140 140l-139 71l-432 144l-80 79v123l-117 -59l-137 -135v-133l144 -287v-80l-72 -145l-82 -82h-156l-82 82v78h33v-66l62 -61h131l61 61v61l-143 287v152l73 149l148 148l137 67v29l96 -96l430 -144l220 -147l73 -148l74 -219v-147z"/>
            <glyph glyph-name="Otilde" unicode="&#xd5;" horiz-adv-x="1998"
                   d="M1266 1733l-86 -156h-149l-215 143h-133l-62 -61v-66h-33v76l78 156h158l215 -144h133l62 62v65h32v-75zM1768 588l-74 -219l-71 -148l-76 -76l-74 -71l-221 -74h-219l-219 74l-428 213h-62l-61 -62v-131l55 -55l49 49l-61 59l24 25l82 -84l-94 -93l-88 87v154l78 155
h156l219 -74l286 -143l211 -70h209l137 70l68 68l72 139l69 211v137l-69 137l-140 140l-139 71l-432 144l-80 79v123l-117 -59l-137 -135v-133l144 -287v-80l-72 -145l-82 -82h-156l-82 82v78h33v-66l62 -61h131l61 61v61l-143 287v152l73 149l148 148l137 67v29l96 -96
l430 -144l220 -147l73 -148l74 -219v-147z"/>
            <glyph glyph-name="Odieresis" unicode="&#xd6;" horiz-adv-x="1998"
                   d="M1410 1659l-88 -88l-88 88v84l88 88l88 -88v-84zM836 1659l-88 -88l-88 88v84l88 88l88 -88v-84zM1768 588l-74 -219l-71 -148l-76 -76l-74 -71l-221 -74h-219l-219 74l-428 213h-62l-61 -62v-131l55 -55l49 49l-61 59l24 25l82 -84l-94 -93l-88 87v154l78 155h156
l219 -74l286 -143l211 -70h209l137 70l68 68l72 139l69 211v137l-69 137l-140 140l-139 71l-432 144l-80 79v123l-117 -59l-137 -135v-133l144 -287v-80l-72 -145l-82 -82h-156l-82 82v78h33v-66l62 -61h131l61 61v61l-143 287v152l73 149l148 148l137 67v29l96 -96
l430 -144l220 -147l73 -148l74 -219v-147z"/>
            <glyph glyph-name="Ugrave" unicode="&#xd9;" horiz-adv-x="1568"
                   d="M1082 1505h-123l-479 320h203zM1477 219l-227 -224l-160 159v188l-266 -199l-221 -146l-152 148l-137 70h-137l196 98v916l-61 61h-59l-66 -67l-25 24l228 226l160 -160v-1004l133 -133h131l276 207v846l-61 61h-60l-65 -67l-25 24l226 223l243 -161l-82 -80v-991l62 -62
h59l66 68z"/>
            <glyph glyph-name="Uacute" unicode="&#xda;" horiz-adv-x="1568"
                   d="M1160 1825l-479 -320h-123l399 320h203zM1477 219l-227 -224l-160 159v188l-266 -199l-221 -146l-152 148l-137 70h-137l196 98v916l-61 61h-59l-66 -67l-25 24l228 226l160 -160v-1004l133 -133h131l276 207v846l-61 61h-60l-65 -67l-25 24l226 223l243 -161l-82 -80
v-991l62 -62h59l66 68z"/>
            <glyph glyph-name="Ucircumflex" unicode="&#xdb;" horiz-adv-x="1568"
                   d="M1139 1505h-110l-209 209l-209 -209h-111l240 320h160zM1477 219l-227 -224l-160 159v188l-266 -199l-221 -146l-152 148l-137 70h-137l196 98v916l-61 61h-59l-66 -67l-25 24l228 226l160 -160v-1004l133 -133h131l276 207v846l-61 61h-60l-65 -67l-25 24l226 223
l243 -161l-82 -80v-991l62 -62h59l66 68z"/>
            <glyph glyph-name="Udieresis" unicode="&#xdc;" horiz-adv-x="1568"
                   d="M1123 1659l-88 -88l-88 88v84l88 88l88 -88v-84zM621 1659l-88 -88l-88 88v84l88 88l88 -88v-84zM1477 219l-227 -224l-160 159v188l-266 -199l-221 -146l-152 148l-137 70h-137l196 98v916l-61 61h-59l-66 -67l-25 24l228 226l160 -160v-1004l133 -133h131l276 207v846
l-61 61h-60l-65 -67l-25 24l226 223l243 -161l-82 -80v-991l62 -62h59l66 68z"/>
            <glyph glyph-name="germandbls" unicode="&#xdf;" horiz-adv-x="995"
                   d="M836 84l-73 -149l-76 -75l-154 -76l-149 74l-80 77l-23 48l-18 -324h-33l-72 1797l82 82h80l215 -72h64l65 68l25 -25l-223 -221l-187 62l55 -111v-336l275 137l82 -82l74 -149v-80l-76 -151l-119 -60l117 -57l76 -76l73 -149v-152zM586 733l-75 133l-54 62l-123 -62
l-22 -368l209 104zM660 92v135l-67 135l-136 68h-149l-23 -383l47 -91l64 -66h131l63 66z"/>
            <glyph glyph-name="agrave" unicode="&#xe0;"
                   d="M939 1219h-123l-479 319h202zM1191 219l-228 -224l-160 159v51l-421 -210l-78 159l-74 219v219l74 221l76 78l147 74h4l221 73l78 -75l137 -70h107l-94 -94v-561l61 -62h59l66 68zM803 242v553l-137 67l-67 70h-60l-135 -135l-70 -209v-209l70 -137l133 -133z"/>
            <glyph glyph-name="aacute" unicode="&#xe1;"
                   d="M1016 1538l-479 -319h-123l400 319h202zM1191 219l-228 -224l-160 159v51l-421 -210l-78 159l-74 219v219l74 221l76 78l147 74h4l221 73l78 -75l137 -70h107l-94 -94v-561l61 -62h59l66 68zM803 242v553l-137 67l-67 70h-60l-135 -135l-70 -209v-209l70 -137l133 -133z
"/>
            <glyph glyph-name="acircumflex" unicode="&#xe2;"
                   d="M996 1219h-111l-208 208l-209 -208h-111l240 319h159zM1191 219l-228 -224l-160 159v51l-421 -210l-78 159l-74 219v219l74 221l76 78l147 74h4l221 73l78 -75l137 -70h107l-94 -94v-561l61 -62h59l66 68zM803 242v553l-137 67l-67 70h-60l-135 -135l-70 -209v-209
l70 -137l133 -133z"/>
            <glyph glyph-name="atilde" unicode="&#xe3;" horiz-adv-x="1281"
                   d="M1051 1444l-2 -4l-76 -150h-86l-358 144h-61l-62 -62v-65h-33v75l78 156h86l359 -143h61l62 61v66h32v-78zM1262 219l-227 -224l-160 159v51l-422 -210l-78 159l-73 219v219l73 221l76 78l148 74h4l221 73l78 -75l137 -70h106l-94 -94v-561l62 -62h59l66 68zM875 242v553
l-137 67l-68 70h-59l-135 -135l-70 -209v-209l70 -137l133 -133z"/>
            <glyph glyph-name="adieresis" unicode="&#xe4;"
                   d="M980 1372l-88 -88l-89 88v84l89 88l88 -88v-84zM478 1372l-88 -88l-88 88v84l88 88l88 -88v-84zM1191 219l-228 -224l-160 159v51l-421 -210l-78 159l-74 219v219l74 221l76 78l147 74h4l221 73l78 -75l137 -70h107l-94 -94v-561l61 -62h59l66 68zM803 242v553l-137 67
l-67 70h-60l-135 -135l-70 -209v-209l70 -137l133 -133z"/>
            <glyph glyph-name="aring" unicode="&#xe5;"
                   d="M873 1382l-192 -188l-273 180l193 189zM1191 219l-228 -224l-160 159v51l-421 -210l-78 159l-74 219v219l74 221l76 78l147 74h4l221 73l78 -75l137 -70h107l-94 -94v-561l61 -62h59l66 68zM820 1378l-215 144l-144 -144l216 -143zM803 242v553l-137 67l-67 70h-60
l-135 -135l-70 -209v-209l70 -137l133 -133z"/>
            <glyph glyph-name="ae" unicode="&#xe6;" horiz-adv-x="1425"
                   d="M1344 729l-436 -291v-59l70 -137l133 -133l131 65l16 -29l-299 -148l-153 153l-23 45l-401 -200l-80 159l-72 290v148l74 221l76 78l147 74h4l221 73l78 -75l103 -54l178 133zM1170 651l-143 209h-54l-65 -131v-252zM797 797l-131 65l-67 70h-60l-135 -135l-70 -209v-139
l70 -209l133 -131l232 116l-37 74v367z"/>
            <glyph glyph-name="ccedilla" unicode="&#xe7;" horiz-adv-x="923"
                   d="M849 872l-177 -88l-141 144l-74 -49l19 -11l-70 -139v-350l70 -137l133 -133l131 65l16 -29l-219 -110l-55 -216h129l82 -82v-84l-154 -154h-227l-104 105h116l72 -72h131l61 61v132l-61 61h-86l4 18v206l-141 140l-74 149v367l76 149l219 148l156 77z"/>
            <glyph glyph-name="egrave" unicode="&#xe8;" horiz-adv-x="923"
                   d="M795 1219h-123l-479 319h203zM842 729l-436 -291v-59l70 -137l133 -133l131 65l16 -29l-299 -148l-153 153l-74 149v367l76 149l303 227zM668 651l-143 209h-53l-66 -131v-252z"/>
            <glyph glyph-name="eacute" unicode="&#xe9;" horiz-adv-x="923"
                   d="M873 1538l-479 -319h-123l399 319h203zM842 729l-436 -291v-59l70 -137l133 -133l131 65l16 -29l-299 -148l-153 153l-74 149v367l76 149l303 227zM668 651l-143 209h-53l-66 -131v-252z"/>
            <glyph glyph-name="ecircumflex" unicode="&#xea;" horiz-adv-x="923"
                   d="M853 1219h-111l-209 208l-209 -208h-110l239 319h160zM842 729l-436 -291v-59l70 -137l133 -133l131 65l16 -29l-299 -148l-153 153l-74 149v367l76 149l303 227zM668 651l-143 209h-53l-66 -131v-252z"/>
            <glyph glyph-name="edieresis" unicode="&#xeb;" horiz-adv-x="923"
                   d="M836 1372l-88 -88l-88 88v84l88 88l88 -88v-84zM406 1372l-88 -88l-88 88v84l88 88l88 -88v-84zM842 729l-436 -291v-59l70 -137l133 -133l131 65l16 -29l-299 -148l-153 153l-74 149v367l76 149l303 227zM668 651l-143 209h-53l-66 -131v-252z"/>
            <glyph glyph-name="igrave" unicode="&#xec;" horiz-adv-x="708"
                   d="M724 1219h-123l-480 319h203zM760 219l-227 -224l-160 159v645l-61 61h-59l-66 -67l-25 24l228 225l82 -79l161 -82l-83 -82v-561l61 -62h59l66 68z"/>
            <glyph glyph-name="iacute" unicode="&#xed;" horiz-adv-x="708"
                   d="M801 1538l-479 -319h-123l400 319h202zM760 219l-227 -224l-160 159v645l-61 61h-59l-66 -67l-25 24l228 225l82 -79l161 -82l-83 -82v-561l61 -62h59l66 68z"/>
            <glyph glyph-name="icircumflex" unicode="&#xee;" horiz-adv-x="708"
                   d="M781 1219h-111l-209 208l-208 -208h-111l240 319h159zM760 219l-227 -224l-160 159v645l-61 61h-59l-66 -67l-25 24l228 225l82 -79l161 -82l-83 -82v-561l61 -62h59l66 68z"/>
            <glyph glyph-name="idieresis" unicode="&#xef;" horiz-adv-x="708"
                   d="M765 1372l-88 -88l-89 88v84l89 88l88 -88v-84zM334 1372l-88 -88l-88 88v84l88 88l88 -88v-84zM760 219l-227 -224l-160 159v645l-61 61h-59l-66 -67l-25 24l228 225l82 -79l161 -82l-83 -82v-561l61 -62h59l66 68z"/>
            <glyph glyph-name="ntilde" unicode="&#xf1;" horiz-adv-x="1281"
                   d="M1166 1606l-117 -238l-151 -149h-82l-287 143h-133l-209 -211l117 238l151 149h82l287 -143h133zM1262 219l-227 -224l-160 159v641l-137 67l-64 66l-196 -131v-559l78 -78l-166 -165l-166 165l78 78v561l-62 61h-59l-66 -67l-24 24l227 225l160 -159v-47l190 127l156 77
l78 -77l137 -70h106l-94 -94v-561l62 -62h59l66 68z"/>
            <glyph glyph-name="ograve" unicode="&#xf2;"
                   d="M867 1219h-123l-479 319h203zM1051 444l-73 -221l-76 -78l-148 -71l-225 -75l-78 75l-137 69h-106l94 95v577l368 150l230 75l78 -157l73 -219v-220zM947 449v139l-70 209l-141 139l22 22l-75 -24l-148 -60l10 -10l-67 -65v-557l137 -68l74 -74l-23 -22l74 24l137 138z
"/>
            <glyph glyph-name="oacute" unicode="&#xf3;"
                   d="M945 1538l-479 -319h-123l399 319h203zM1051 444l-73 -221l-76 -78l-148 -71l-225 -75l-78 75l-137 69h-106l94 95v577l368 150l230 75l78 -157l73 -219v-220zM947 449v139l-70 209l-141 139l22 22l-75 -24l-148 -60l10 -10l-67 -65v-557l137 -68l74 -74l-23 -22l74 24
l137 138z"/>
            <glyph glyph-name="ocircumflex" unicode="&#xf4;"
                   d="M924 1219h-110l-209 208l-209 -208h-111l240 319h160zM1051 444l-73 -221l-76 -78l-148 -71l-225 -75l-78 75l-137 69h-106l94 95v577l368 150l230 75l78 -157l73 -219v-220zM947 449v139l-70 209l-141 139l22 22l-75 -24l-148 -60l10 -10l-67 -65v-557l137 -68l74 -74
l-23 -22l74 24l137 138z"/>
            <glyph glyph-name="otilde" unicode="&#xf5;"
                   d="M980 1446l-86 -156h-150l-215 144h-133l-62 -62v-65h-32v75l78 156h157l215 -143h133l62 61v66h33v-76zM1051 444l-73 -221l-76 -78l-148 -71l-225 -75l-78 75l-137 69h-106l94 95v577l368 150l230 75l78 -157l73 -219v-220zM947 449v139l-70 209l-141 139l22 22l-75 -24
l-148 -60l10 -10l-67 -65v-557l137 -68l74 -74l-23 -22l74 24l137 138z"/>
            <glyph glyph-name="odieresis" unicode="&#xf6;"
                   d="M908 1372l-88 -88l-88 88v84l88 88l88 -88v-84zM478 1372l-88 -88l-88 88v84l88 88l88 -88v-84zM1051 444l-73 -221l-76 -78l-148 -71l-225 -75l-78 75l-137 69h-106l94 95v577l368 150l230 75l78 -157l73 -219v-220zM947 449v139l-70 209l-141 139l22 22l-75 -24
l-148 -60l10 -10l-67 -65v-557l137 -68l74 -74l-23 -22l74 24l137 138z"/>
            <glyph glyph-name="divide" unicode="&#xf7;" horiz-adv-x="1425"
                   d="M836 942l-88 -88l-88 88v84l88 88l88 -88v-84zM1266 502h-1036v104h1036v-104zM836 82l-88 -87l-88 87v84l88 88l88 -88v-84z"/>
            <glyph glyph-name="ugrave" unicode="&#xf9;" horiz-adv-x="1281"
                   d="M939 1219h-123l-479 319h202zM1262 219l-227 -224l-160 159v47l-190 -127l-156 -77l-78 77l-137 69h-106l94 95v561l-62 61h-59l-66 -67l-24 24l227 225l160 -159v-641l137 -68l64 -65l196 131v559l-78 78l166 165l166 -165l-78 -78v-561l62 -62h59l66 68z"/>
            <glyph glyph-name="uacute" unicode="&#xfa;" horiz-adv-x="1281"
                   d="M1016 1538l-479 -319h-123l400 319h202zM1262 219l-227 -224l-160 159v47l-190 -127l-156 -77l-78 77l-137 69h-106l94 95v561l-62 61h-59l-66 -67l-24 24l227 225l160 -159v-641l137 -68l64 -65l196 131v559l-78 78l166 165l166 -165l-78 -78v-561l62 -62h59l66 68z"/>
            <glyph glyph-name="ucircumflex" unicode="&#xfb;" horiz-adv-x="1281"
                   d="M996 1219h-111l-208 208l-209 -208h-111l240 319h159zM1262 219l-227 -224l-160 159v47l-190 -127l-156 -77l-78 77l-137 69h-106l94 95v561l-62 61h-59l-66 -67l-24 24l227 225l160 -159v-641l137 -68l64 -65l196 131v559l-78 78l166 165l166 -165l-78 -78v-561l62 -62
h59l66 68z"/>
            <glyph glyph-name="udieresis" unicode="&#xfc;" horiz-adv-x="1281"
                   d="M980 1372l-88 -88l-89 88v84l89 88l88 -88v-84zM478 1372l-88 -88l-88 88v84l88 88l88 -88v-84zM1262 219l-227 -224l-160 159v47l-190 -127l-156 -77l-78 77l-137 69h-106l94 95v561l-62 61h-59l-66 -67l-24 24l227 225l160 -159v-641l137 -68l64 -65l196 131v559
l-78 78l166 165l166 -165l-78 -78v-561l62 -62h59l66 68z"/>
            <glyph glyph-name="ydieresis" unicode="&#xff;"
                   d="M908 1372l-88 -88l-88 88v84l88 88l88 -88v-84zM478 1372l-88 -88l-88 88v84l88 88l88 -88v-84zM1051 301l-73 -219l-72 -147l-148 -145l-217 -145l-16 28l211 142l141 208l70 282v211l-70 209l-135 203l-272 -137l-17 28l447 223l80 -159l71 -291v-291zM689 219
l-228 -224l-81 79l-162 82l84 82v421l-72 215v152l147 150l25 -25l-68 -66v-61l144 -358v-428l61 -62h60l65 68zM902 4l-49 -73l24 25z"/>
            <glyph glyph-name="ohm" unicode="&#x2126;" horiz-adv-x="1711"
                   d="M1553 0h-381l-82 82v84l4 4l142 213l69 209v354l-69 283l-140 209l-137 67h-135l-137 -67l-140 -209l-69 -283v-354l69 -209l146 -217v-84l-82 -82h-381v446l33 3l47 -283l35 -51l61 -41l193 -39l61 59v60l-213 211l-72 147l-73 219v148l71 290l74 148l150 147l221 74
h147l221 -74l150 -147l74 -148l71 -290v-148l-73 -219l-72 -147l-213 -211v-60l61 -59l197 39l59 37l31 45l49 293l33 -3v-446z"/>
            <glyph glyph-name="hyphen" unicode="-" horiz-adv-x="1783"
                   d="M1553 645h-1251v105h1251v-105z"/>
            <glyph glyph-name="infinity" unicode="&#x221e;" horiz-adv-x="1496"
                   d="M1410 729l-76 -154l-225 -73h-228l-4 6l-100 102l-17 -32l-151 -76h-223l-150 73l-78 80v154l76 154l238 73h211l114 -112l21 37l135 71l4 4h225l150 -73l78 -80v-154zM1234 737v135l-66 132h-199l-63 -66l-70 -137v-135l66 -131h198l64 65zM732 737v135l-66 132h-186
l-78 -66l-68 -137v-135l66 -131h199l63 65z"/>
            <glyph glyph-name="uniE001" unicode="&#xe001;" horiz-adv-x="0"
            />
            <glyph glyph-name="Cacute" unicode="&#x106;" horiz-adv-x="923"
                   d="M1199 1993l-156 -158l80 -90l-25 -21l-165 189l90 80l69 137l-4 133l-53 55l-49 -49l51 -57l25 22l20 -24l-49 -47l-92 106l94 94l82 -84l82 -129v-157zM1549 291l-145 -146l-148 -71l-219 -74h-219l-219 74l-148 73l-147 222l-74 290v291l74 291l147 221l150 76h153
l140 -139l215 143l80 -78l137 -69h133l65 67l25 -24l-74 -74l-149 -74h-154l-153 154l-117 -78l-66 -66v-61l68 -137l215 -144l76 -149v-152l-76 -151l-152 -76h-80l-151 76l-74 147l29 17l69 -140l136 -67h63l131 65v129l-67 138l-215 143l-76 149v80l71 146l66 65
l-127 127h-131l-64 -65l-69 -140l-72 -282v-283l72 -282l69 -140l138 -139l209 -70h211l208 70l215 143zM1408 199l-74 -49l49 24z"/>
            <glyph glyph-name="cacute" unicode="&#x107;" horiz-adv-x="923"
                   d="M660 1460l-156 -157l80 -91l-24 -20l-166 188l90 80l70 137v129l-58 60l-49 -49l51 -58l25 23l20 -25l-49 -47l-92 107l94 94l82 -84l6 -10h2v-2l74 -117v-158zM849 872l-177 -88l-141 144l-39 -27l-86 -172v-350l70 -137l133 -133l131 65l16 -29l-299 -148l-153 153
l-74 149v367l76 149l219 148l156 77z"/>
            <glyph glyph-name="Aogonek" unicode="&#x104;" horiz-adv-x="1711"
                   d="M1625 1362h-127l88 88l-55 55h-132l-63 -63l-70 -209v-924l127 -127l131 133l25 -24l-133 -131l-10 -13l-66 -63l72 -290l-219 -145l-66 -197l115 -57l59 117l-63 63l24 25l80 -80l-84 -170l-172 86l78 231l139 139l-67 202l-146 146v188l-487 -345l-387 384l237 80
l137 137l70 209v496l-70 137l-63 65h-133l-135 -67l-64 -127l51 -54l50 50l-62 59l25 25l82 -84l-95 -95l-92 91l80 159l152 76h151l150 -74l76 -78l73 -221v-291l-73 -221l-148 -149l-147 -72l-29 -10l293 -295l358 256v856l74 150l76 75l149 74h154l82 -82v-94z"/>
            <glyph glyph-name="glyph174" horiz-adv-x="1496"
            />
            <glyph glyph-name="aogonek" unicode="&#x105;"
                   d="M1191 219l-211 -209v-144l-220 -146l-63 -129l55 -55l111 55l-55 56l24 24l88 -88l-176 -88l-88 88l78 156l139 209l-67 204l-3 2v51l-421 -210l-78 159l-74 219v219l74 221l76 78l147 74h4l221 73l78 -75l137 -70h107l-94 -94v-561l61 -62h59l66 68zM803 242v553
l-137 67l-67 70h-60l-135 -135l-70 -209v-209l70 -137l133 -133z"/>
            <glyph glyph-name="Eogonek" unicode="&#x118;" horiz-adv-x="1711"
                   d="M1647 1108l-176 -176h-156l-88 86l-100 -74l68 -135v-152l-72 -143v-6l-156 -78h-80l-151 76l-74 147l29 17l69 -140l136 -67h63l131 65v129l-67 138l-215 143l-76 149v80l74 150l63 61l-127 127h-129l-137 -205l-70 -282v-283l72 -282l69 -140l140 -139l137 -70h281
l208 70l215 143l21 -26l-145 -146l-148 -71l-141 -47l114 -305l-253 -147l-64 -127l80 -78l88 72l-90 59l16 29l127 -84l-141 -121l-121 115l78 155l139 179l-84 226h-186l-219 74l-148 73l-147 222l-74 290v291l74 291l147 221l144 72l2 4h157l140 -139l215 143l80 -78
l137 -69h133l65 67l25 -24l-78 -76h-2l-143 -72h-154l-153 154l-117 -78l-64 -66l15 -61l53 -137l201 -133l288 217l76 -78h176z"/>
            <glyph glyph-name="glyph177" horiz-adv-x="1496"
            />
            <glyph glyph-name="Omega" unicode="&#x3a9;" horiz-adv-x="1711"
                   d="M1553 0h-381l-82 82v84l4 4l142 213l69 209v354l-69 283l-140 209l-137 67h-135l-137 -67l-140 -209l-69 -283v-354l69 -209l146 -217v-84l-82 -82h-381v446l33 3l47 -283l35 -51l61 -41l193 -39l61 59v60l-213 211l-72 147l-73 219v148l71 290l74 148l150 147l221 74
h147l221 -74l150 -147l74 -148l71 -290v-148l-73 -219l-72 -147l-213 -211v-60l61 -59l197 39l59 37l31 45l49 293l33 -3v-446z"/>
            <glyph glyph-name="Lslash" unicode="&#x141;" horiz-adv-x="1640"
                   d="M1488 877l-89 -89h-155l-82 82v158l119 96l24 113v135l-63 64l-209 69h-354l-209 -69l-64 -64v-133l203 -352l2 6l217 -74l217 -145l139 -139h131l56 55l-62 59l25 25l82 -84l-88 -88h-154l-145 71l-336 68v-55l-74 -150l-119 -117h109l430 -215h276l64 66l72 141l28 -16
l-71 -145l-78 -76l-221 -74h-150l-502 215h-63l-139 -70l-17 29l213 141l68 70l69 137v64l-286 501v152l71 145l80 80l221 74h363l221 -74l78 -75l74 -150v-154l-144 -143v-59l62 -62h59l55 56l-61 59l25 25z"/>
            <glyph glyph-name="odblacute" unicode="&#x151;"
                   d="M984 1538l-92 -371l-93 371h185zM697 1538l-92 -371l-92 371h184zM1051 444l-73 -221l-76 -78l-148 -71l-225 -75l-78 75l-137 69h-106l94 95v577l368 150l230 75l78 -157l73 -219v-220zM947 449v139l-70 209l-141 139l22 22l-75 -24l-148 -60l10 -10l-67 -65v-557
l137 -68l74 -74l-23 -22l74 24l137 138z"/>
            <glyph glyph-name="Sacute" unicode="&#x15a;" horiz-adv-x="1926"
                   d="M1127 1993l-156 -158l80 -90l-24 -21l-166 189l90 80l70 137l-5 133l-53 55l-49 -49l51 -57l25 22l20 -24l-49 -47l-92 106l94 94l82 -84l82 -129v-157zM1766 512l-72 -217l-147 -150l-148 -71l-219 -74h-291l-219 74l-147 71l-148 148l-71 145l-74 221v291l74 224
l71 143l150 147l221 74h291l221 -74l285 -213h131l61 62v131l-55 55l-49 -49l61 -59l-24 -25l-82 84l94 94l88 -88v-153l-78 -156h-157l-289 145l-211 70h-283l-280 -70l-138 -137l-69 -209v-282l69 -209l140 -138l139 -71l211 -70h354l283 72l139 69l68 68l69 137v205
l-133 133h-133l-137 -67l-143 -215l-150 -76h-152l-151 76l-76 151v152l76 151l147 74l17 -29l-140 -69l-67 -136v-135l65 -131h129l138 68l143 215l150 76h223l151 -76l76 -150z"/>
            <glyph glyph-name="Nacute" unicode="&#x143;" horiz-adv-x="1998"
                   d="M1301 1993l-156 -158l80 -90l-24 -21l-166 189l90 80l70 137l-4 133l-54 55l-49 -49l51 -57l25 22l20 -24l-49 -47l-92 106l94 94l82 -84l82 -129v-157zM1836 219l-230 -228l-155 234l-74 291v219l74 221l147 150l84 41h-80l-80 80l-71 215l-64 63h-133l-137 -69l-94 -93
l26 -28l74 -221v-435l-74 -219l-71 -147l-148 -146l-227 -150l-76 75h-133l-232 -114l293 290h154l133 -68l135 201l70 283v497l-70 209l-135 135h-203l-133 -133v-133l141 -211l74 -147v-230l-153 -78h-156l-82 82v78h33v-65l61 -62h131l62 62v133l-142 211l-73 147v152
l75 151l152 76h223l150 -74l98 -98l96 98l150 74h151l150 -74l76 -75l71 -144l62 -61l80 39l-62 -60l17 -16h-33l-135 -137l-70 -138v-280l70 -281l129 -129l59 62z"/>
            <glyph glyph-name="sacute" unicode="&#x15b;" horiz-adv-x="780"
                   d="M588 1946l-137 -140l62 -80l-25 -20l-154 174l80 82l70 137v96l-55 68l-49 -59l49 -45l24 20l21 -25l-45 -40l-95 86l95 112l84 -100l75 -113v-153zM951 1606l-117 -238l-80 -78h-153l-144 72h-61l-62 -62v-133l144 -358v-291l-72 -861h-33l-71 861v270h-166l96 99
l70 137v358l78 156h157l144 -72h133z"/>
            <glyph glyph-name="Odblacute" unicode="&#x150;" horiz-adv-x="1998"
                   d="M1342 2040l-92 -371l-92 371h184zM1055 2040l-92 -371l-92 371h184zM1768 588l-74 -219l-71 -148l-76 -76l-74 -71l-221 -74h-219l-219 74l-428 213h-62l-61 -62v-131l55 -55l49 49l-61 59l24 25l82 -84l-94 -93l-88 87v154l78 155h156l219 -74l286 -143l211 -70h209
l137 70l68 68l72 139l69 211v209l-69 137l-140 139l-139 72l-432 143l-80 80v123l-117 -59l-137 -136v-133l144 -286v-152l-72 -145l-82 -82h-156l-82 82v78h33v-66l62 -61h131l61 61v133l-143 287v151l73 150l148 147l137 68v29l96 -97l430 -143l220 -147l73 -148l74 -219
v-219z"/>
            <glyph glyph-name="nacute" unicode="&#x144;" horiz-adv-x="1281"
                   d="M836 1444l-137 -139l61 -80l-24 -21l-154 174l80 82l70 137v97l-55 67l-50 -59l50 -45l24 20l21 -24l-45 -41l-95 86l95 112l83 -100l76 -113v-153zM1262 219l-227 -224l-160 159v641l-137 67l-64 66l-196 -131v-559l78 -78l-166 -165l-166 165l78 78v561l-62 61h-59
l-66 -67l-24 24l227 225l160 -159v-47l190 127l156 77l78 -77l137 -70h106l-94 -94v-561l62 -62h59l66 68z"/>
            <glyph glyph-name="lslash" unicode="&#x142;" horiz-adv-x="708"
                   d="M836 801l-78 -156h-280v-407l61 -62h60l65 68l25 -25l-228 -224l-81 79l-162 82l84 82v407h-51l-136 -67l-65 -132l67 -135l-28 -16l-76 151l2 5v143l76 154l211 69v342l-70 137l-70 70l25 25l74 -74l57 -117l57 117l150 147l217 74l14 -31l-141 -71l-68 -66l-69 -209
v-344l289 -82l36 74v133l-55 55l-49 -49l61 -59l-24 -25l-82 84l94 94l88 -88v-153z"/>
            <glyph glyph-name="eogonek" unicode="&#x119;" horiz-adv-x="923"
                   d="M842 729l-436 -291v-59l70 -137l133 -133l131 65l16 -29l-274 -137l39 -91l-275 -170l-51 -154l84 -57l86 92l-90 58l16 28l123 -78l-131 -141l-129 86l64 187l4 2l149 180l-67 204l-74 145v367l76 149l303 227zM662 647l-137 213h-53l-66 -131v-252z"/>
            <glyph glyph-name="hyphenminus" unicode="&#x2010;" horiz-adv-x="1783"
                   d="M1553 645h-1251v105h1251v-105z"/>
            <glyph glyph-name="onequarter" unicode="&#xbc;" horiz-adv-x="2070"
                   d="M1911 -22l-94 94h-192v-45l131 -65h137l-203 -102l-82 -80l-82 80l-137 69h-137l197 98v45h-430v237l518 518l164 -161l-76 -152v-410h192l94 95v-221zM818 893l-203 -102l-82 -80l-82 80l-137 69h-137l196 98v486l-153 151l248 166l82 -164v-639l131 -65h137zM1637 1825
l-1237 -2111h-111l1237 2111h111zM1449 104v590l-254 -254v-336h254z"/>
            <glyph glyph-name="onehalf" unicode="&#xbd;" horiz-adv-x="2141"
                   d="M1997 -48l-170 -170l-151 76h-281l-305 -76v238l74 150l78 76l221 73h272v332l-123 62l-65 -66l-150 -74h-151l-209 105h209l137 70l78 77l295 -147h155v-391h-444l-209 -70l-65 -67l-70 -138v-179l190 127l222 73h219zM818 893l-203 -102l-82 -80l-82 80l-137 69h-137
l196 98v486l-153 151l248 166l82 -164v-639l131 -65h137zM1637 1825l-1237 -2111h-111l1237 2111h111z"/>
            <glyph glyph-name="Yacute" unicode="&#xdd;" horiz-adv-x="1855"
                   d="M1447 1825l-480 -320h-123l400 320h203zM1625 373l-72 -291l-74 -147l-149 -147l-221 -74h-291l-221 74l-150 147l-78 157l92 90l95 -94l-82 -84l-25 25l62 59l-50 49l-51 -53l66 -128l137 -139l209 -70h283l208 70l66 65l70 208v1333l-398 -198v-351l-73 -219l-70 -141
v-61l133 -134h59l66 68l25 -25l-228 -225l-235 234l75 153l72 283v426l-69 209l-64 63h-203l-133 -133v-133l141 -211l74 -147v-230l-153 -78h-156l-82 82v78h33v-65l61 -62h131l62 62v133l-142 211l-73 147v152l75 151l152 76h223l150 -74l76 -75l65 -132l582 291v-1175z
"/>
            <glyph glyph-name="yacute" unicode="&#xfd;"
                   d="M1016 1538l-479 -319h-123l400 319h202zM1051 301l-73 -219l-72 -147l-148 -145l-217 -145l-16 28l211 142l141 208l70 282v211l-70 209l-135 203l-272 -137l-17 28l447 223l80 -159l71 -291v-291zM689 219l-228 -224l-81 79l-162 82l84 82v421l-72 215v152l147 150
l25 -25l-68 -66v-61l144 -358v-428l61 -62h60l65 68zM902 4l-49 -73l24 25z"/>
            <glyph glyph-name="Udblacute" unicode="&#x170;" horiz-adv-x="1568"
                   d="M1055 2040l-92 -371l-92 371h184zM769 2040l-92 -371l-93 371h185zM1477 219l-227 -224l-160 159v188l-217 -166l-43 -29l-227 -150l-152 148l-137 70h-137l196 98v987l-61 62h-59l-66 -68l-25 25l228 225l160 -160v-1075l133 -133h131l276 207v917l-61 62h-60l-65 -68
l-25 25l226 223l243 -162l-82 -80v-1062l62 -62h59l66 68z"/>
            <glyph glyph-name="udblacute" unicode="&#x171;" horiz-adv-x="1281"
                   d="M912 1538l-92 -371l-92 371h184zM625 1538l-92 -371l-92 371h184zM1262 219l-227 -224l-160 159v47l-190 -127l-156 -77l-78 77l-137 69h-106l94 95v561l-62 61h-59l-66 -67l-24 24l227 225l160 -159v-641l137 -68l64 -65l196 131v559l-78 78l166 165l166 -165l-78 -78
v-561l62 -62h59l66 68z"/>
            <glyph glyph-name="Zacute" unicode="&#x179;" horiz-adv-x="1711"
                   d="M1019 1993l-156 -158l80 -90l-25 -21l-166 189l90 80l70 137l-4 133l-53 55l-49 -49l51 -57l24 22l21 -24l-49 -47l-93 106l95 94l82 -84l82 -129v-157zM1481 84l-73 -149l-150 -147l-221 -74h-293l-149 76l-218 288l-65 65h-59l-62 -61v-130l62 -62h65v-32h-78l-82 82
v154l82 82h228l77 -78l144 -214l69 -67l138 -70h135l137 70l68 67l69 136v422l-67 138l-207 137h-207l-137 -70l-68 -67l-72 -142l-28 17l71 145l76 76l117 57l-119 60l-74 147l29 16l70 -139l135 -67h205l63 65l70 137v351l-70 137l-63 65h-205l-135 -67l-70 -140l-29 17
l74 147l152 76h223l150 -74l75 -75l74 -150v-223l-74 -150l-75 -75l-111 -56l180 -59l150 -148l73 -149v-295z"/>
            <glyph glyph-name="zacute" unicode="&#x17a;" horiz-adv-x="995"
                   d="M693 1444l-137 -139l61 -80l-24 -21l-154 174l80 82l69 137v97l-55 67l-49 -59l49 -45l25 20l20 -24l-45 -41l-94 86l94 112l84 -100l76 -113v-153zM898 358l-135 -45l73 -149v-294l-76 -152l-149 -75h-154l-151 75l-76 152v150l76 152l149 74l113 39l-139 92l166 84
l67 67l70 138v63l-68 135l-139 70l14 29l-284 -172l-17 28l367 219l155 -77l76 -152v-152l-76 -151l-127 -64l56 -55l45 -47l151 51zM732 -122v206l-68 137l-61 41l-135 -45l-138 -70l-67 -135v-134l67 -135l136 -68h133l63 66z"/>
            <glyph glyph-name="Zdot" unicode="&#x17b;" horiz-adv-x="1711"
                   d="M1064 1804l-172 -86l-172 86l172 170zM1481 84l-73 -149l-150 -147l-221 -74h-293l-149 76l-218 288l-65 65h-59l-62 -61v-130l62 -62h65v-32h-78l-82 82v154l82 82h228l77 -78l144 -214l69 -67l138 -70h135l137 70l68 67l69 136v422l-67 138l-207 137h-207l-137 -70
l-68 -67l-72 -142l-28 17l71 145l76 76l117 57l-119 60l-74 147l29 16l70 -139l135 -67h205l63 65l70 137v351l-70 137l-63 65h-205l-135 -67l-70 -140l-29 17l74 147l152 76h223l150 -74l75 -75l74 -150v-223l-74 -150l-75 -75l-111 -56l180 -59l150 -148l73 -149v-295z
"/>
            <glyph glyph-name="zdot" unicode="&#x17c;" horiz-adv-x="995"
                   d="M705 1343l-172 -86l-172 86l172 170zM898 358l-135 -45l73 -149v-294l-76 -152l-149 -75h-154l-151 75l-76 152v150l76 152l149 74l113 39l-139 92l166 84l67 67l70 138v63l-68 135l-139 70l14 29l-284 -172l-17 28l367 219l155 -77l76 -152v-152l-76 -151l-127 -64
l56 -55l45 -47l151 51zM732 -122v206l-68 137l-61 41l-135 -45l-138 -70l-67 -135v-134l67 -135l136 -68h133l63 66z"/>
            <glyph glyph-name="Acyril" unicode="&#x410;" horiz-adv-x="1926"
                   d="M1862 143h-176l-67 -69l-150 -74h-151l-150 74l-147 147l-74 150v59h-260l-140 -280l-157 -155l-228 224l25 25l66 -68h59l65 66l572 1073l29 -17l43 91l75 75l150 74h223l152 -76l75 -151v-152l-73 -147l-142 -211v-133l62 -62h131l61 62v65h33v-78l-82 -82h-155l-5 2
l-149 76v230l145 293l70 67v131l-133 133h-203l-63 -63l-70 -209v-856l70 -209l135 -135h133l131 65v127l-94 94h176l94 95v-176zM1621 1391l-25 47l-47 24zM947 463v487l-244 -487h244z"/>
            <glyph glyph-name="Be" unicode="&#x411;" horiz-adv-x="1855"
                   d="M1481 1229l-82 -82h-153l-2 2l-215 72l-144 71l-211 70h-280l-137 -70l-66 -63v-133l70 -138l67 -67l138 -70h139v-33h-148l-149 74l-76 76l-74 149v152l74 150l76 75l149 74h222l221 -74l217 -215l137 -69h133l62 61v131l-62 62h-137v32h149l82 -82v-155zM1696 444
l-73 -221l-76 -78l-74 -71l-221 -74h-219l-219 74l-428 213h-62l-61 -62v-131l55 -55l49 49l-61 59l24 25l82 -84l-94 -93l-88 87v154l78 155h156l219 -74l43 -20l77 154v636l-114 232l217 -219l74 -221v-220l-74 -221l-154 -153l217 -111l211 -70h209l137 70l68 66l70 209
v65l-70 137l-139 140l-137 69h-134l-61 -61v-60l61 -61h60l65 67l25 -24l-78 -76h-84l-82 82v84l82 82h2l144 72h153l152 -150l73 -149v-222z"/>
            <glyph glyph-name="Ve" unicode="&#x412;" horiz-adv-x="1855"
                   d="M1719 1147h-35l-215 -109l154 -153l73 -221v-220l-73 -221l-150 -149l-221 -74h-219l-219 74l-428 213h-62l-61 -62v-131l55 -55l49 49l-61 59l24 25l82 -84l-94 -93l-88 87v156l2 4l76 149h156l219 -74l43 -20l77 154v782l-69 209l-64 63h-202l-134 -133v-133l142 -211
l74 -147v-230l-154 -78h-156l-82 82v78h33v-65l62 -62h131l61 62v133l-141 211l-74 147v152l76 151l151 76h224l149 -74l76 -75l74 -150v-408l630 316h-79l-80 80l-72 215l-64 63h-133l-135 -67l-69 -140l-29 17l74 147l151 76h152l149 -74l76 -75l72 -144zM1664 449v137
l-70 137l-137 139l-205 68l-272 -135v-136l-74 -221l-154 -153l217 -111l211 -70h209l137 70l68 66z"/>
            <glyph glyph-name="Ge" unicode="&#x413;" horiz-adv-x="1783"
                   d="M1625 1229l-82 -82h-152l-219 74l-143 71l-211 70h-281l-137 -70l-66 -63v-133l70 -138l68 -67l137 -70h139v-33h-147l-150 74l-76 76l-73 149v154l2 4l71 144l78 75l221 74h148l221 -74l217 -215l137 -69h134l61 61v131l-61 62h-138v32h150l82 -82v-155zM1481 84
l-73 -149l-76 -75l-150 -74h-223l-149 74l-74 75l-146 217l-71 141l-64 65h-131l-61 -61v-131l55 -55l49 49l-61 59l24 25l82 -84l-94 -94l-88 88v155l82 82h154l149 -74l145 -147l144 -214l137 -137h133l135 67l68 134v136l-70 139l-143 215l-74 147v154l154 154h155
l82 -82v-78h-32v65l-62 62h-131l-61 -62v-61l69 -139l144 -215l73 -148v-223z"/>
            <glyph glyph-name="De" unicode="&#x414;" horiz-adv-x="1855"
                   d="M1696 444l-73 -221l-150 -149l-221 -74h-219l-219 74l-428 213h-62l-61 -62v-131l55 -55l49 49l-61 59l24 25l82 -84l-94 -93l-88 87v156l2 4l76 149h115l-50 49v78h33v-65l62 -62h131l61 62v133l-143 286v152l71 145l193 193h-174l-209 -70l-135 -135v-65h-33v75l74 150
l149 147l221 74h291l219 -74l148 -71l145 -148l146 -219l73 -291v-291zM1664 449v210l-70 209l-141 213l-70 70l-213 141l-209 70h-135l-205 -205v-133l144 -287v-151l-74 -150l-80 -78h-49l121 -41l286 -143l211 -70h209l137 70l68 66z"/>
            <glyph glyph-name="Ie" unicode="&#x415;" horiz-adv-x="1711"
                   d="M1647 1108l-176 -176h-156l-88 86l-100 -74l68 -135v-152l-72 -143v-6l-156 -78h-80l-151 76l-74 147l29 17l69 -140l136 -67h63l131 65v129l-67 138l-215 143l-76 149v80l74 150l63 61l-127 127h-129l-137 -205l-70 -282v-283l72 -282l69 -140l140 -139l137 -70h281
l208 70l215 143l21 -26l-145 -146l-148 -71l-219 -74h-219l-219 74l-148 73l-147 222l-74 290v291l74 291l147 221l144 72l2 4h157l140 -139l215 143l80 -78l137 -69h133l65 67l25 -24l-78 -76h-2l-143 -72h-154l-153 154l-117 -78l-64 -66l15 -61l53 -137l201 -133l288 217
l76 -78h176zM1408 199l-74 -49l49 24z"/>
            <glyph glyph-name="Zhe" unicode="&#x416;" horiz-adv-x="1711"
                   d="M1692 -42l-227 112l-147 -73l-226 226l-112 393v-378l65 -64l170 -86l-176 -88h-154l-82 82v534l-112 -393l-225 -226l-148 73l-227 -112l295 294l151 -76h62l63 64l135 477h-258l-209 -211l193 387h274l-135 405l-63 64h-62l-151 -76l-295 295l227 -113l148 74l225 -227
l112 -338v323l-65 64l-170 86l176 88h154l82 -82v-479l112 338l226 227l147 -74l227 113l-295 -295l-151 76h-62l-63 -64l-135 -405h258l209 211l-193 -387h-274l135 -477l63 -64h62l151 76z"/>
            <glyph glyph-name="Ze" unicode="&#x417;" horiz-adv-x="1711"
                   d="M1481 84l-73 -149l-150 -147l-221 -74h-293l-149 76l-218 288l-65 65h-59l-62 -61v-130l62 -62h65v-32h-78l-82 82v154l82 82h228l77 -78l144 -214l69 -67l138 -70h135l137 70l68 67l69 136v422l-67 138l-207 137h-207l-137 -70l-68 -67l-72 -142l-28 17l71 145l76 76
l117 57l-119 60l-74 147l29 16l70 -139l135 -67h205l63 65l70 137v351l-70 137l-63 65h-205l-135 -67l-70 -140l-29 17l74 147l152 76h223l150 -74l75 -75l74 -150v-223l-74 -150l-75 -75l-111 -56l180 -59l150 -148l73 -149v-295z"/>
            <glyph glyph-name="Ii" unicode="&#x418;" horiz-adv-x="1783"
                   d="M1764 1581l-293 -291h-153l-134 68l-135 -201l-69 -283v-497l69 -209l135 -135h60l61 61v49h-166l111 111l88 -88v-84l-82 -82h-82l-149 74l-99 98l-96 -98l-149 -74h-154l-4 2l-143 72l-76 76l-72 143l-63 65h-48l44 29l139 141l69 138v280l-69 281l-129 129l-60 -62
l-24 25l229 229l156 -235l74 -291v-219l-74 -221l-76 -76l-172 -115h96l80 -80l72 -215l63 -63h133l138 69l94 95l-27 26l-74 221v435l74 219l72 147l147 146l228 151l75 -76h134z"/>
            <glyph glyph-name="Iibreve" unicode="&#x419;" horiz-adv-x="1855"
                   d="M1191 1724l-295 -294l-152 75h-106l178 181l147 -74zM1836 1581l-293 -291h-154l-133 68l-135 -201l-70 -283v-497l70 -209l135 -135h59l62 61v49h-166l111 111l88 -88v-84l-82 -82h-82l-150 74l-98 98l-96 -98l-150 -74h-153l-148 74l-76 76l-71 143l-64 65h-47l43 29
l139 141l70 138v280l-70 281l-129 129l-59 -62l-25 25l230 229l155 -235l74 -291v-219l-74 -221l-75 -76l-172 -115h96l80 -80l71 -215l64 -63h133l137 69l95 95l-27 26l-74 221v435l74 219l72 147l147 146l227 151l76 -76h133z"/>
            <glyph glyph-name="Ka" unicode="&#x41a;" horiz-adv-x="1926"
                   d="M1791 1147h-189l-80 80l-71 215l-64 63h-133l-135 -67l-70 -140l-28 17l73 147l152 76h151l150 -74l76 -75l71 -144zM1836 219l-228 -224l-157 157l-287 716l-113 113v-610l-73 -150l-148 -147l-147 -74h-154l-149 74l-68 69h-176l94 95v176l94 -95h176l-94 -94v-127
l131 -65h133l136 135l69 209v856l-69 209l-64 63h-203l-133 -133v-133l141 -211l74 -147v-230l-153 -78h-156l-82 82v78h33v-65l61 -62h131l62 62v133l-142 211l-73 147v152l75 151l152 76l229 -2l144 -72l76 -75l73 -150v-203h205l80 -80l287 -716l63 -64h60l65 68z
M449 1462l-47 -24l-25 -47z"/>
            <glyph glyph-name="El" unicode="&#x41b;" horiz-adv-x="1855"
                   d="M1764 219l-229 -228l-156 234l-74 291v219l74 221l76 76l172 115h-96l-80 80l-72 215l-64 63h-133l-137 -69l-94 -93l27 -28l73 -221v-435l-73 -219l-72 -147l-148 -148l-143 -71l-82 -79l-78 77h-133l-231 -114l293 290h153l133 -68l136 201l69 283v497l-69 209
l-136 135h-59l-61 -61v-49h165l-110 -111l-88 88v84l82 82h84l4 -2l143 -72l98 -98l97 98l149 74h152l149 -74l76 -75l72 -144l63 -65h47l-43 -29l-139 -141l-70 -138v-280l70 -281l129 -129l59 62z"/>
            <glyph glyph-name="Em" unicode="&#x41c;" horiz-adv-x="2357"
                   d="M2266 219l-230 -228l-155 234l-74 291v219l74 221l76 76l172 115h-97l-80 80l-71 215l-64 63h-133l-137 -69l-59 -58l63 -63l74 -221v-437l-146 -362l-301 -300l-78 77h-59l-65 -68l-25 25l221 219h84l62 -60l59 121l72 283v569l-70 209l-135 135h-133l-138 -69l-59 -58
l64 -63l73 -221v-435l-73 -219l-72 -147l-148 -148l-143 -71l-82 -79l-78 77h-133l-231 -114l293 290h153l133 -68l136 201l69 283v497l-69 209l-136 135h-59l-61 -61v-49h165l-110 -111l-88 88v84l82 82h84l4 -2l143 -72l62 -63l61 63l149 74h154l148 -74l61 -63l61 63
l150 74h151l150 -74l76 -75l71 -144l64 -65h47l-43 -29l-139 -141l-70 -138v-280l70 -281l129 -129l59 62z"/>
            <glyph glyph-name="En" unicode="&#x41d;" horiz-adv-x="2428"
                   d="M2290 1618l-243 -328h-156l-135 68l-62 -62l-69 -139l-72 -283v-282l70 -281l129 -129l59 62l25 -25l-230 -228l-155 234l-74 291v363l74 219l71 147l148 146l227 151l76 -76h131zM1375 788h-252v-57l-72 -291l-73 -147l-148 -146l-227 -150l-76 75h-133l-232 -114
l293 290h154l133 -68l135 201l70 283v497l-70 209l-135 135h-203l-133 -133v-133l141 -211l74 -147v-230l-153 -78h-156l-82 82v78h33v-65l61 -62h131l62 62v133l-142 211l-73 147v152l75 151l152 76h223l150 -74l147 -149l74 -221v-273h252v-33zM449 1462l-47 -24l-25 -47z
M588 672v200l-69 140l-146 219v149l-39 -77v-136l70 -139l146 -219v-154l-5 -6z"/>
            <glyph glyph-name="Ocyril" unicode="&#x41e;" horiz-adv-x="1998"
                   d="M1768 588l-74 -219l-71 -148l-76 -76l-74 -71l-221 -74h-219l-219 74l-428 213h-62l-61 -62v-131l55 -55l49 49l-61 59l24 25l82 -84l-94 -93l-88 87v154l78 155h156l219 -74l286 -143l211 -70h209l137 70l68 68l72 139l69 211v209l-69 137l-140 139l-139 72l-432 143
l-80 80v123l-117 -59l-137 -136v-133l144 -286v-152l-72 -145l-82 -82h-156l-82 82v78h33v-66l62 -61h131l61 61v133l-143 287v151l73 150l148 147l137 68v29l96 -97l430 -143l220 -147l73 -148l74 -219v-219z"/>
            <glyph glyph-name="Pecyril" unicode="&#x41f;" horiz-adv-x="1998"
                   d="M1836 219l-230 -228l-155 234l-74 291v219l74 221l147 150l84 41h-80l-80 80l-71 215l-64 63h-133l-137 -69l-70 -70l-24 25l73 73l150 74h151l150 -74l76 -75l71 -144l62 -61l80 39l-62 -60l17 -16h-33l-135 -137l-70 -138v-280l70 -281l129 -129l59 62zM1123 659
l-74 -219l-71 -147l-148 -146l-227 -150l-76 75h-133l-232 -114l293 290h154l133 -68l135 201l70 283v497l-70 209l-135 135h-203l-133 -133v-133l141 -211l74 -147v-230l-153 -78h-156l-82 82v78h33v-65l61 -62h131l62 62v133l-142 211l-73 147v152l75 151l152 76h223
l150 -74l147 -149l74 -221v-435zM449 1462l-47 -24l-25 -47z"/>
            <glyph glyph-name="Er" unicode="&#x420;" horiz-adv-x="1926"
                   d="M1696 659l-73 -221l-146 -217l-71 -74l-158 -156l-154 230l-43 43v-322l-75 -152l-152 -76h-225l-82 82v156l88 87l94 -93l-82 -84l-24 24l61 60l-49 49l-55 -55v-132l61 -61h131l64 66l69 137v337h-123l-231 -115l217 217l137 68v776l-69 209l-64 63h-203l-133 -133
v-133l141 -211l74 -147v-230l-153 -78h-156l-82 82v78h33v-65l61 -62h131l62 62v133l-142 211l-73 147v152l75 151l152 76h223l150 -74l76 -75l63 -129l356 286l154 -231l74 -146l71 -290v-220zM1592 592v211l-70 209l-141 213l-147 147l-183 -145v-770l138 -70l159 -248
l103 103l71 139z"/>
            <glyph glyph-name="Es" unicode="&#x421;" horiz-adv-x="1711"
                   d="M1549 291l-145 -146l-148 -71l-219 -74h-219l-219 74l-148 73l-147 222l-74 290v291l74 291l147 221l150 76h153l140 -139l215 143l80 -78l137 -69h133l65 67l25 -24l-74 -74l-149 -74h-154l-153 154l-117 -78l-66 -66v-61l68 -137l215 -144l76 -149v-152l-76 -151
l-152 -76h-80l-151 76l-74 147l29 17l69 -140l136 -67h63l131 65v129l-67 138l-215 143l-76 149v80l71 146l66 65l-127 127h-131l-64 -65l-69 -140l-72 -282v-283l72 -282l69 -140l138 -139l209 -70h211l208 70l215 143z"/>
            <glyph glyph-name="Te" unicode="&#x422;" horiz-adv-x="1783"
                   d="M1625 1300l-2 -4l-76 -149h-158l-278 139l-203 -201v-133l143 -286v-152l-71 -145l-82 -82h-152l223 -113l211 -70h209l211 142l21 -27l-148 -145l-221 -74h-219l-219 74l-146 71l-282 142h-62l-61 -62v-131l55 -55l49 49l-61 59l24 25l82 -84l-94 -93l-88 87v154l78 155
h156l219 -74l53 -26l-76 78v149h33v-137l61 -62h131l62 62v133l-144 287v151l74 150l199 198l-187 62h-423l-136 -68l-65 -131l65 -131l140 -69l-17 -29l-147 74l-76 151v152l76 153l225 74h363l221 -74l284 -213h132l61 62v131l-55 55l-49 -49l61 -59l-25 -25l-82 84l95 94
l88 -88v-156z"/>
            <glyph glyph-name="Ucyril" unicode="&#x423;" horiz-adv-x="1855"
                   d="M1625 373l-72 -291l-74 -147l-149 -147l-221 -74h-291l-221 74l-150 147l-78 157l92 90l95 -94l-82 -84l-25 25l62 59l-50 49l-51 -53l66 -128l137 -139l209 -70h283l208 70l66 65l70 208v1333l-398 -198v-351l-73 -219l-70 -141v-61l133 -134h59l66 68l25 -25l-228 -225
l-235 234l75 153l72 283v426l-69 209l-64 63h-203l-133 -133v-133l141 -211l74 -147v-230l-153 -78h-156l-82 82v78h33v-65l61 -62h131l62 62v133l-142 211l-73 147v152l75 151l152 76h223l150 -74l76 -75l65 -132l582 291v-1175zM449 1462l-47 -24l-25 -47z"/>
            <glyph glyph-name="Ef" unicode="&#x424;" horiz-adv-x="2213"
                   d="M2077 1147h-319l-62 -62v-59l66 -65l217 -146l76 -149v-367l-74 -149l-76 -76l-149 -74h-318l-104 -210l-152 -76h-225l-88 88l94 95l94 -95l-55 -55h172l133 68l70 203v103l-45 -47l-150 -74h-295l-149 74l-143 143l-129 66l-60 -58v-131l62 -61h49v55h33v-88h-95
l-82 82v156l84 86l9 -5h217l219 -217l137 -69h135l137 69l66 64v276l-143 285l-72 291v293l74 147l14 -8l-6 16h6l-76 39h-207l-118 -59l57 -57l74 -150v-293l-74 -221l-146 -217l-143 -146l-27 21l144 213l69 283v354l-69 209l-64 63h-202l-134 -133v-133l142 -211l74 -147
v-230l-156 -78h-154l-82 82v78h33v-65l62 -62h131l61 62v131l-141 192l-74 168v152l76 151l149 76l232 -2l133 -68l139 70h223l113 -55l168 55h221l150 -76l145 -217zM2022 307v207l-68 137l-215 144l-75 149v154l82 82h110l-47 47l-72 215l-63 63h-207l-131 -43l8 -4
l-78 -155v-207l70 -140l143 -215l74 -221v-147l-35 -142h15l20 -61l131 -66h135l135 68z"/>
            <glyph glyph-name="Kha" unicode="&#x425;" horiz-adv-x="1711"
                   d="M1621 1581l-295 -295l-152 76h-61l-64 -64l-69 -208v-197h264l209 211l-193 -387h-280v-197l69 -209l68 -65l137 -70h139v-12l135 82l17 -29l-367 -218l-153 75l-148 149l-57 172l-57 -172l-226 -226l-147 73l-228 -112l295 294l152 -76h61l64 64l69 209v268h-264
l-209 -211l193 387h280v125l-69 209l-68 65l-137 70h-139v12l-135 -82l-17 29l367 219l153 -76l148 -149l57 -172l58 172l225 227l147 -74z"/>
            <glyph glyph-name="Tse" unicode="&#x426;" horiz-adv-x="1926"
                   d="M1836 1581l-293 -291h-154l-133 68l-135 -201l-70 -283v-497l70 -209l135 -135h59l238 237v-330l-76 -78l-6 -4l-145 -148l-148 74l-227 -113l295 295l151 -76h62l61 62v241l-192 -193h-82l-150 74l-98 98l-96 -98l-150 -74h-153l-148 74l-76 76l-71 143l-64 65h-47
l43 29l139 141l70 138v280l-70 281l-129 129l-59 -62l-25 25l230 229l155 -235l74 -291v-219l-74 -221l-75 -76l-172 -115h96l80 -80l71 -215l64 -63h133l137 69l95 95l-27 26l-74 221v435l74 219l72 147l147 146l227 151l76 -76h133z"/>
            <glyph glyph-name="Che" unicode="&#x427;" horiz-adv-x="1568"
                   d="M1410 82l-82 -82h-226l-151 76l-76 151v324l-43 -43l-153 -232l-230 232l-145 217l-74 223l74 221l71 146l156 233l168 -170l-154 -153l-141 -213l-67 -138l67 -206l72 -140l100 -102l86 174l76 76l137 67v496l74 150l76 75l237 117l-141 -139l-70 -209v-490l138 -67
l73 -74l144 -143l-232 114h-123v-337l70 -138l63 -65h131l62 61v131l-55 56l-50 -50l62 -59l-25 -25l-82 84l95 95l88 -88v-156z"/>
            <glyph glyph-name="Sha" unicode="&#x428;" horiz-adv-x="2357"
                   d="M2337 1581l-292 -291h-154l-133 68l-135 -201l-70 -283v-497l70 -209l135 -135h59l62 61v49h-166l110 111l88 -88v-84l-81 -82h-82l-150 74l-61 63l-62 -63l-149 -74h-152l-149 74l-62 63l-61 -63l-150 -74h-153l-148 74l-76 76l-71 143l-64 65h-47l43 29l139 141l70 138
v280l-70 281l-129 129l-59 -62l-25 25l230 229l155 -235l74 -291v-219l-74 -240l-75 -57l-172 -115h96l80 -80l71 -215l64 -63h133l137 69l60 58l-64 63l-74 221v435l74 219l72 147l143 144l10 18l5 -6l143 143l78 -78h59l66 68l24 -25l-221 -219h-84l-61 60l-60 -121
l-71 -283v-569l69 -209l135 -135h134l137 69l59 58l-63 63l-74 221v435l74 219l71 147l148 146l227 151l76 -76h133z"/>
            <glyph glyph-name="Shcha" unicode="&#x429;" horiz-adv-x="2428"
                   d="M2337 1581l-292 -291h-154l-133 68l-135 -201l-70 -283v-497l70 -209l135 -135h59l238 237v-330l-228 -230l-147 74l-227 -113l295 295l151 -76h62l61 62v241l-192 -193h-82l-150 74l-61 63l-62 -63l-149 -74h-152l-149 74l-62 63l-61 -63l-150 -74h-153l-148 74l-76 76
l-71 143l-64 65h-47l43 29l139 141l70 138v280l-70 281l-129 129l-59 -62l-25 25l230 229l155 -235l74 -291v-219l-74 -240l-75 -57l-172 -115h96l80 -80l71 -215l64 -63h133l137 69l60 58l-64 63l-74 221v435l74 219l72 147l301 299l78 -78h59l66 68l24 -25l-221 -219h-84
l-61 60l-60 -121l-71 -283v-569l69 -209l135 -135h134l137 69l59 58l-63 63l-74 221v435l74 219l71 147l148 146l227 151l76 -76h133z"/>
            <glyph glyph-name="Hard" unicode="&#x42a;" horiz-adv-x="1998"
                   d="M1840 299l-74 -149l-78 -76l-221 -74h-362l-222 74l-77 76l-74 149v152l74 147l143 215l70 139v66l-70 211l-72 139l-67 68l-138 69h-204l-134 -133v-133l142 -211l74 -147v-230l-156 -78h-154l-82 82v78h33v-65l62 -62h131l61 62v133l-141 211l-74 147v152l76 151
l149 76h226l149 -74l76 -75l72 -148l145 -289v-151l-287 -502v-133l64 -64l209 -69h354l209 69l63 64v133l-69 139l-144 215l-73 148v153l82 82h227l78 -75l-25 -25l-65 68h-132l-61 -62v-61l70 -138l143 -143l74 -149v-152z"/>
            <glyph glyph-name="Yeri" unicode="&#x42b;" horiz-adv-x="1855"
                   d="M1791 1290h-177l-63 -65l-66 -129l138 -140l73 -221v-219l-73 -221l-148 -150l-237 -116l213 211l69 209v280l-69 137l-158 158l160 80l67 135v133l-94 94h176l94 95v-177zM1266 371l-147 -295l-152 -76h-151l-293 145l-148 148l-71 147l-74 219v291l74 291l147 223
l223 74h218v-33h-213l-154 -51l22 -12l-69 -142l-72 -282v-354l72 -283l69 -139l140 -140l137 -69h135l135 67l68 136v135l-68 137l-215 143l-76 150v80l105 209v-138l68 -137l215 -143l75 -150v-151z"/>
            <glyph glyph-name="Soft" unicode="&#x42c;" horiz-adv-x="1496"
                   d="M1338 299l-72 -145l-80 -80l-221 -74h-362l-221 74l-78 76l-74 149v152l74 147l143 215l70 139v64l-70 137l-135 137h-176l94 94v177l94 -95h176l-94 -94v-131l70 -67l71 -72l74 -150v-151l-74 -148l-143 -215l-70 -139v-133l64 -64l209 -69h354l209 69l64 64v133
l-70 139l-143 215l-74 148v153l82 82h227l78 -75l-25 -25l-65 68h-131l-62 -62v-61l70 -138l143 -143l74 -149v-152z"/>
            <glyph glyph-name="Ecyrilrev" unicode="&#x42d;" horiz-adv-x="1855"
                   d="M1696 588l-73 -219l-72 -148l-76 -76l-74 -71l-221 -74h-219l-219 74l-428 213h-61l-62 -62v-131l55 -55l50 49l-62 59l25 25l82 -84l-95 -93l-88 87v154l78 155h156l219 -74l287 -143l211 -70h209l137 70l67 68l72 139l70 211v31l-121 -121h-156l-287 286h-59l-65 -67
l-25 24l149 148h156l287 -287h59l62 62v133l-70 137l-139 139l-140 72l-432 143l-80 80v123l-116 -59l-137 -136v-133l143 -286v-152l-72 -145l-82 -82h-155l-82 82v78h32v-66l62 -61h131l61 61v133l-143 287v151l74 150l147 147l137 68v29l97 -97l430 -143l219 -147
l74 -148l73 -219v-219z"/>
            <glyph glyph-name="Iu" unicode="&#x42e;" horiz-adv-x="1926"
                   d="M1791 1147h-320l-61 -62v-59l65 -65l217 -146l76 -149v-295l-74 -150l-75 -76l-72 -71l-150 -74h-292l-220 74l-145 71l-283 142h-61l-62 -62v-131l56 -55l49 49l-62 59l25 25l82 -84l-94 -93l-88 87v154l78 155h155l219 -74l43 -20l78 154v409h-254v-209l-155 -78h-154
l-82 82v78h33v-65l61 -62h131l62 62v133l-142 211l-73 147v152l75 151l240 119l-211 -209v-133l141 -211l68 -135h260v346l74 150l78 75l221 74h149l150 -76l145 -217zM1735 379v135l-67 137l-215 144l-76 149v154l82 82h110l-47 47l-71 215l-64 63h-133l-133 -67l-70 -205
v-574l-73 -221l-154 -153l217 -111l211 -70h209l137 70l68 68zM449 1462l-47 -24l-25 -47z"/>
            <glyph glyph-name="Ia" unicode="&#x42f;" horiz-adv-x="1926"
                   d="M1862 143h-176l-67 -69l-150 -74h-151l-150 74l-147 147l-74 150v424l-119 59l-281 -702l-157 -157l-228 224l25 25l66 -68h59l63 64l281 700l-414 207h-34l96 98l71 144l76 75l148 74h153l152 -76l78 -155l39 82l75 75l150 74h223l152 -76l75 -151v-152l-73 -147
l-142 -211v-133l62 -62h131l61 62v65h33v-78l-82 -82h-155l-5 2l-149 76v230l74 147l141 211v133l-133 133h-203l-63 -63l-70 -209v-856l70 -209l135 -135h133l131 65v127l-94 94h176l94 95v-176zM963 1272l-84 166l-135 67h-133l-64 -63l-71 -215l-80 -80h-80l631 -316v408
z"/>
            <glyph glyph-name="acyril" unicode="&#x430;"
                   d="M1191 219l-228 -224l-160 159v51l-421 -210l-78 159l-74 219v219l74 221l76 78l147 74h4l221 73l78 -75l137 -70h107l-94 -94v-561l61 -62h59l66 68zM803 242v553l-137 67l-67 70h-60l-135 -135l-70 -209v-209l70 -137l133 -133z"/>
            <glyph glyph-name="be" unicode="&#x431;"
                   d="M1051 444l-73 -223l-222 -147l-227 -75l-78 75l-137 69h-106l94 95v577l303 152l-225 110l-78 80v139l71 78v4h4l144 154l24 -21l-139 -149v-49l66 -66l358 -215l148 -147l73 -221v-220zM947 449v208l-68 138l-211 139l-26 14l-164 -82v-624l137 -68l74 -74l-23 -22
l74 24l137 138z"/>
            <glyph glyph-name="ve" unicode="&#x432;"
                   d="M1051 444l-73 -221l-76 -78l-148 -71l-225 -75l-78 75l-137 69h-106l94 95v921l-70 137l-70 70l25 25l74 -74l57 -117l59 117l304 227l233 -313l-436 -291v-109l422 211l78 -159l73 -219v-220zM736 1151l-139 211h-52l-67 -201v-182zM947 449v139l-70 209l-133 131
l-266 -133v-553l137 -68l74 -74l-23 -22l74 24l137 138z"/>
            <glyph glyph-name="ge" unicode="&#x433;" horiz-adv-x="1066"
                   d="M1047 -138l-227 -246l-82 102l-162 80l84 82v550h-166l96 98l70 138v133l-61 61h-62l-143 -72h-154l-80 78l-116 238l137 -139h133l143 71h158l78 -155v-72l143 -287v-642l62 -61h59l66 65v2l24 -22v-2z"/>
            <glyph glyph-name="de" unicode="&#x434;"
                   d="M1074 893l-94 -94v-857l-74 -150l-76 -76l-149 -73h-224l-149 73l-78 80v94h104v-88h-32v56h-39v-50l65 -63l138 -70h206l136 68l67 135v136l-65 195l-428 -214l-78 159l-74 219v219l74 221l76 78l147 72l225 75l78 -75l137 -70h107zM803 242v553l-137 67l-73 74l22 22
l-74 -24l-137 -137l-70 -209v-139l70 -209l133 -131z"/>
            <glyph glyph-name="ie" unicode="&#x435;" horiz-adv-x="923"
                   d="M842 729l-436 -291v-59l70 -137l133 -133l131 65l16 -29l-299 -148l-153 153l-74 149v367l76 149l303 227zM668 653l-143 207h-53l-66 -131v-252z"/>
            <glyph glyph-name="zhe" unicode="&#x436;" horiz-adv-x="1711"
                   d="M1637 872l-176 -88l-141 144l-74 -49l18 -11l-69 -139v-350l69 -137l133 -133l131 65l17 -29l-299 -148l-154 153l-73 149v203h-111v-264l78 -78l-94 -94l-95 94l78 78v264h-110v-203l-74 -149l-154 -153l-299 148l17 29l131 -65l133 133l69 137v350l-69 139l18 11
l-73 49l-142 -144l-176 88l168 168l156 -77l219 -148l76 -149v-131h110v264l-78 78l95 94l94 -94l-78 -78v-264h111v131l75 149l219 148l156 77z"/>
            <glyph glyph-name="ze" unicode="&#x437;" horiz-adv-x="995"
                   d="M898 358l-135 -45l73 -149v-294l-76 -152l-151 -75h-152l-151 75l-76 152v150l76 152l149 74l113 39l-139 92l166 84l67 67l70 138v63l-68 135l-168 84l-26 -14l-215 -143l-17 28l215 144l152 75l155 -77l76 -152v-152l-76 -151l-127 -64l101 -102l151 51zM732 -122v206
l-68 137l-61 41l-135 -45l-138 -70l-67 -135v-134l67 -135l136 -68h133l63 66z"/>
            <glyph glyph-name="ii" unicode="&#x438;" horiz-adv-x="1281"
                   d="M1262 219l-227 -224l-160 159v47l-190 -127l-156 -77l-78 77l-137 69h-106l94 95v561l-62 61h-59l-66 -67l-24 24l227 225l160 -159v-641l137 -68l64 -65l196 131v559l-78 78l166 165l166 -165l-78 -78v-561l62 -62h59l66 68z"/>
            <glyph glyph-name="iibreve" unicode="&#x439;" horiz-adv-x="1281"
                   d="M842 1020l-165 -166l-166 166l166 166zM1262 219l-227 -224l-160 159v47l-190 -127l-156 -77l-78 77l-137 69h-106l94 95v561l-62 61h-59l-66 -67l-24 24l227 225l160 -159v-641l137 -68l64 -65l196 131v559l-78 78l166 165l166 -165l-78 -78v-561l62 -62h59l66 68z"/>
            <glyph glyph-name="ka" unicode="&#x43a;" horiz-adv-x="1066"
                   d="M996 0h-113l-405 541v-525h-176v557h-166l96 99l70 137v135l-70 137l-70 70l25 25l74 -74l57 -117l57 117l148 147l237 117l-213 -211l-69 -209v-39l188 125l82 82l88 -88v-156l-151 -151l-197 -66zM732 881v61l-58 57l-196 -131v-184l186 64z"/>
            <glyph glyph-name="el" unicode="&#x43b;" horiz-adv-x="1281"
                   d="M1262 219l-227 -224l-160 159v485l-112 -561l-162 -81l-78 77l-133 67l-133 -67l-142 -141l119 239l152 76h151l150 -74l51 -53l135 678l-76 78l166 165l166 -165l-78 -78v-561l62 -62h59l66 68z"/>
            <glyph glyph-name="em" unicode="&#x43c;" horiz-adv-x="1783"
                   d="M1764 219l-227 -224l-160 159v182l-342 -341l-160 159v485l-117 -584l-14 13l-143 -71l-78 77l-133 67l-133 -67l-142 -141l119 239l152 76h151l150 -74l51 -53l135 678l-76 78l166 165l166 -165l-78 -78v-561l62 -62h59l205 205v418l-78 78l166 165l166 -165l-78 -78
v-561l61 -62h60l65 68z"/>
            <glyph glyph-name="en" unicode="&#x43d;"
                   d="M1191 219l-228 -224l-160 159v348h-397v-264l78 -78l-166 -165l-166 165l78 78v561l-78 78l166 165l166 -165l-78 -78v-264h397v264l-77 78l166 165l165 -165l-77 -78v-561l61 -62h59l66 68z"/>
            <glyph glyph-name="ocyril" unicode="&#x43e;"
                   d="M1051 444l-73 -221l-76 -78l-148 -71l-225 -75l-78 75l-137 69h-106l94 95v577l368 150l230 75l78 -157l73 -219v-220zM947 449v139l-70 209l-141 139l22 22l-75 -24l-148 -60l10 -10l-67 -65v-557l137 -68l74 -74l-23 -22l74 24l137 138z"/>
            <glyph glyph-name="pecyril" unicode="&#x43f;" horiz-adv-x="1281"
                   d="M1262 219l-227 -224l-160 159v641l-137 67l-64 66l-196 -131v-559l78 -78l-166 -165l-166 165l78 78v561l-62 61h-59l-66 -67l-24 24l227 225l160 -159v-47l190 127l156 77l78 -77l137 -70h106l-94 -94v-561l62 -62h59l66 68z"/>
            <glyph glyph-name="er" unicode="&#x440;"
                   d="M1051 444l-73 -221l-76 -78l-144 -71l-10 -8l-4 2l-143 -71l-127 128l-84 -583l-84 593l-215 -106l211 209v493l-72 215v152l147 149l25 -24l-68 -66v-61l70 -142l49 -145l447 233l78 -159l73 -219v-220zM947 449v139l-70 209l-133 131l-280 -150l14 -43v-487h59l150 -74
l61 -63l129 129z"/>
            <glyph glyph-name="es" unicode="&#x441;" horiz-adv-x="923"
                   d="M849 872l-177 -88l-137 138l-129 -193v-350l70 -137l133 -133l131 65l16 -29l-299 -148l-153 153l-74 149v367l76 149l215 146l10 14l6 -6l144 71z"/>
            <glyph glyph-name="te" unicode="&#x442;" horiz-adv-x="1855"
                   d="M1836 219l-228 -224l-159 159v641l-138 67l-63 66l-197 -131v-559l78 -78l-166 -165l-166 165l78 78v491l-67 135l-129 66l-201 -133v-559l78 -78l-166 -165l-166 165l78 78v561l-62 61h-59l-66 -67l-24 24l227 225l160 -159v-47l190 127l152 75l156 -77l65 -132l201 134
l155 77l78 -77l137 -70h107l-94 -94v-561l61 -62h60l65 68z"/>
            <glyph glyph-name="ucyril" unicode="&#x443;"
                   d="M1051 301l-73 -219l-72 -147l-146 -145l-219 -145l-16 28l211 142l141 208l70 282v211l-70 209l-153 229l176 88l80 -159l71 -291v-291zM760 291l-299 -296l-81 79l-162 82l84 82v421l-72 215v152l147 150l25 -25l-68 -66v-61l70 -141l74 -219v-426l61 -62h60l137 139z
"/>
            <glyph glyph-name="ef" unicode="&#x444;" horiz-adv-x="1711"
                   d="M1553 373l-74 -219l-78 -159l-423 212l-86 -679l-86 679l-424 -212l-152 376v221l74 221l76 78l143 72l6 6l6 -2l217 71l78 -75l137 -70h66l221 74l6 -4l144 -72l75 -78l74 -221v-219zM1449 449v139l-70 209l-133 133l-203 -68l-63 -63v-557l266 -133l133 131zM803 242
v553l-266 133l-133 -131l-70 -209v-139l70 -209l133 -131z"/>
            <glyph glyph-name="kha" unicode="&#x445;" horiz-adv-x="1066"
                   d="M986 868l-174 -86l-72 144l-119 -60v-624l137 -68l66 -65l131 65l16 -29l-299 -148l-77 77l-138 69h-133l-133 -133v-132l68 -135l135 -68h209l200 68v43h-38v-55h-33v88h104v-101l-229 -75h-221l-152 75l-76 152v150l76 152l152 76h59v551l-61 61h-60l-65 -67l-25 24
l227 225l148 -145l291 145z"/>
            <glyph glyph-name="tse" unicode="&#x446;" horiz-adv-x="1353"
                   d="M1344 -126l-166 -166l-166 166l152 151l49 145l-178 -175l-160 159v47l-190 -127l-156 -77l-78 77l-137 69h-106l94 95v561l-62 61h-59l-66 -67l-24 24l227 225l160 -159v-641l137 -68l64 -65l196 131v559l-78 78l166 165l166 -165l-78 -78v-561l62 -62h59l115 117
l-90 -273z"/>
            <glyph glyph-name="che" unicode="&#x447;" horiz-adv-x="923"
                   d="M930 430h-165v-270l-72 -790h-33l-72 790v270h-192l-6 -6l-10 8l-144 72l-78 80v153l72 144v61l-94 94h115l155 -78v-157l-72 -144v-133l56 -55l61 63l144 72l67 68l103 202v-208l69 -138z"/>
            <glyph glyph-name="sha" unicode="&#x448;" horiz-adv-x="1711"
                   d="M1692 219l-227 -224l-147 144l-287 -142l-78 77l-137 69h-62l-67 -69l-158 -77l-78 77l-137 69h-106l94 95v561l-62 61h-59l-66 -67l-24 24l227 225l160 -159v-641l137 -68l62 -63l32 32l27 29l67 66v561l-61 61h-104l182 182l160 -159v-641l137 -68l65 -65l123 61v629
l-78 78l166 165l166 -165l-78 -78v-561l62 -62h59l66 68z"/>
            <glyph glyph-name="shcha" unicode="&#x449;" horiz-adv-x="1783"
                   d="M1774 -126l-166 -166l-166 166l152 151l49 145l-178 -175l-147 144l-287 -142l-78 77l-137 69h-62l-67 -69l-158 -77l-78 77l-137 69h-106l94 95v561l-62 61h-59l-66 -67l-24 24l227 225l160 -159v-641l137 -68l62 -63l32 32l27 29l67 66v561l-61 61h-104l182 182
l160 -159v-641l137 -68l65 -65l123 61v629l-78 78l166 165l166 -165l-78 -78v-561l62 -62h59l66 68l12 -13l16 -6l-69 -205z"/>
            <glyph glyph-name="hard" unicode="&#x44a;" horiz-adv-x="1425"
                   d="M1266 444l-73 -221l-76 -78l-148 -71l-225 -75l-78 75l-137 69h-106l94 95v421l-72 215v119l-123 -61h-153l-105 104h107l137 70l78 78l164 -82v-78l69 -141l27 -76l469 235l78 -159l73 -219v-220zM1162 449v139l-70 209l-133 131l-303 -152l37 -112v-422l137 -68l74 -74
l-23 -22l74 24l137 138z"/>
            <glyph glyph-name="yeri" unicode="&#x44b;" horiz-adv-x="1496"
                   d="M1416 160l-166 -165l-166 165l78 78v421l-72 215v152l148 150l24 -25l-67 -66v-61l69 -141l74 -219v-426zM1051 444l-73 -221l-76 -78l-148 -71l-225 -75l-78 75l-137 69h-106l94 95v421l-72 215v152l147 150l25 -25l-68 -66v-61l70 -141l27 -76l469 235l78 -159l73 -219
v-220zM947 449v139l-70 209l-133 131l-303 -152l37 -112v-422l137 -68l74 -74l-23 -22l74 24l137 138z"/>
            <glyph glyph-name="soft" unicode="&#x44c;"
                   d="M1051 444l-73 -221l-76 -78l-148 -71l-225 -75l-78 75l-137 69h-106l94 95v421l-72 215v152l147 150l25 -25l-68 -66v-61l70 -141l27 -76l469 235l78 -159l73 -219v-220zM947 449v139l-70 209l-133 131l-303 -152l37 -112v-422l137 -68l74 -74l-23 -22l74 24l137 138z
"/>
            <glyph glyph-name="ecyrilrev" unicode="&#x44d;" horiz-adv-x="923"
                   d="M765 299l-74 -149l-154 -153l-299 148l17 29l131 -65l133 133l69 137v100l-122 -125l-177 88l168 168l131 -65v184l-69 139l18 11l-73 49l-142 -144l-176 88l168 168l156 -77l219 -148l76 -149v-367z"/>
            <glyph glyph-name="iu" unicode="&#x44e;" horiz-adv-x="1711"
                   d="M1553 516l-74 -293l-75 -78l-148 -71l-225 -75l-78 75l-137 69h-107l94 95v471l-325 -129v-342l78 -78l-166 -165l-166 165l78 78v421l-72 215v152l147 150l25 -25l-68 -66v-61l70 -141l74 -219v-50l319 127l-61 123l-168 84l180 90l156 -77l67 -134l430 215l78 -159
l74 -219v-148zM1449 449v139l-70 209l-133 131l-266 -133v-553l137 -68l74 -74l-23 -22l74 24l137 138z"/>
            <glyph glyph-name="ia" unicode="&#x44f;"
                   d="M1191 219l-230 -228l-149 224h-131l-136 -68l-67 -135v-134l67 -135l136 -68h208l201 68v43h-39v-55h-32v88h104v-101l-229 -75h-222l-151 75l-76 152v294l76 151l151 76h131v103l-493 -211l-80 159v222l74 221l76 78l147 71l225 76l78 -76l137 -69h107l-94 -95v-632
l61 -62h59l66 68zM803 528v271l-210 209l22 22l-74 -24l-137 -138l-70 -209v-135l138 -137z"/>
            <glyph glyph-name="pesetas" unicode="&#x20a7;" horiz-adv-x="1926"
                   d="M1981 223l-74 -147l-151 -76h-82l-148 74l-75 78l-74 221v631h-127v32h127v348l176 177v-525h270v-32h-270v-699l70 -209l63 -63h62l135 67l69 140zM1195 1016l-74 -150l-78 -75l-221 -74h-272v-553l43 -88l88 -43h67v-33h-573v33h67l88 43l43 88v1210l-43 88l-88 43h-67
v33h647l221 -74l78 -75l74 -150v-223zM1019 952v351l-68 135l-135 67h-266v-755h266l135 67z"/>
            <glyph glyph-name="emptyset" unicode="&#x2205;" horiz-adv-x="1425"
                   d="M1338 659l-74 -221l-149 -149l-293 -74h-148l-147 37l-127 -252h-109l138 276l-47 13l-150 149l-74 221v148l74 221l150 150l280 73h160l84 -20l119 235h108l-131 -260l113 -28l149 -150l74 -221v-148zM1162 664v139l-70 209l-125 123l-411 -824l125 -63h135l137 69
l139 138zM883 1184l-67 35h-148l-125 -68l-139 -139l-70 -209v-139l70 -209l76 -76z"/>
            <glyph glyph-name="house" unicode="&#x2302;" horiz-adv-x="1425"
                   d="M1195 0h-893v596l446 446l447 -446v-596zM1090 104v480l-342 342l-342 -342v-480h684z"/>
            <glyph glyph-name="uni20AC" horiz-adv-x="1455"
                   d="M799 -88q-274 0 -468 190t-202 462h-155l52 106h103v112h-119l52 106h67q8 272 202 462q196 191 468 191h1q276 0 477 -201v-168h-178v178h120q-179 156 -415 158l-286 -142l-141 -141l-70 -140v-197h736l-53 -106h-683v-112h627l-51 -106h-576v-197l70 -139l141 -142
l285 -141q237 2 416 157h-120v179h178v-168q-203 -201 -478 -201z"/>
            <glyph glyph-name="uni20AC" unicode="&#x20ac;" horiz-adv-x="1455"
                   d="M799 -88q-274 0 -468 190t-202 462h-155l52 106h103v112h-119l52 106h67q8 272 202 462q196 191 468 191h1q276 0 477 -201v-168h-178v178h120q-179 156 -415 158l-286 -142l-141 -141l-70 -140v-197h736l-53 -106h-683v-112h627l-51 -106h-576v-197l70 -139l141 -142
l285 -141q237 2 416 157h-120v179h178v-168q-203 -201 -478 -201z"/>
        </font>
</defs>
</svg>
