<?xml version="1.0" standalone="no"?>
<!DOCTYPE svg PUBLIC "-//W3C//DTD SVG 1.1//EN" "http://www.w3.org/Graphics/SVG/1.1/DTD/svg11.dtd" >
<svg xmlns="http://www.w3.org/2000/svg" xmlns:xlink="http://www.w3.org/1999/xlink" version="1.1">
    <metadata>
        Created by FontForge 20230101 at Mon Mar 20 11:40:55 2023
        By Гришунин

    </metadata>
    <defs>
        <font id="LesterDeco_M" horiz-adv-x="534">
            <font-face
                    font-family="Lester Deco Mein"
                    font-weight="400"
                    font-stretch="normal"
                    units-per-em="1000"
                    panose-1="2 0 5 6 8 0 0 2 0 3"
                    ascent="800"
                    descent="-200"
                    x-height="665"
                    cap-height="665"
                    bbox="-7 -136 999 832"
                    underline-thickness="20"
                    underline-position="-133"
                    unicode-range="U+0020-2122"
            />
            <missing-glyph horiz-adv-x="194"
            />
            <glyph glyph-name=".notdef" horiz-adv-x="194"
            />
            <glyph glyph-name="exclam" unicode="!" horiz-adv-x="276"
                   d="M247 63q0 -23 -14 -36.5t-32.5 -21t-37 -10t-26.5 -2.5q-11 0 -29.5 3t-36 11t-30 21.5t-12.5 34.5q0 19 13 33t30.5 23t36 13t29.5 4t29.5 -3.5t36 -11.5t30.5 -22.5t13 -35.5zM200 177q-1 0 -23 0.5t-48 0.5h-46q-20 0 -19 -1q-8 121 -16 244t-13 245h188z"/>
            <glyph glyph-name="quotedbl" unicode="&#x22;" horiz-adv-x="332"
                   d="M277 437h-12h-26h-26q-11 0 -12 16.5t-3 44t-4.5 54t-4.5 54t-3 60.5h104zM135 437h-12h-26h-26q-11 0 -12 16.5t-3 44t-4.5 54t-4.5 54t-3 60.5h104z"/>
            <glyph glyph-name="numbersign" unicode="#" horiz-adv-x="425"
                   d="M267 177l-34 -177q-22 -1 -26 0t-6 0l34 177h-98l-34 -177q-22 -1 -26 0t-6 0l34 177h-73l14 65h72l40 205h-76l14 65h75l29 151h30l-29 -151h100l29 151h30l-29 -151h86l-14 -65h-84l-40 -205h88l-14 -65h-86zM248 242l40 205h-99l-40 -205h99z"/>
            <glyph glyph-name="dollar" unicode="$" horiz-adv-x="459"
                   d="M349 731l-16 -64h83q-4 -8 -8 -19t-7 -22q-4 -12 -8 -26l-76 1l-50 -201q28 -11 58.5 -23t55.5 -32.5t41 -53t16 -84.5q0 -42 -16 -79.5t-42 -66t-59 -45t-67 -16.5h-85l-20 -79h-38l20 80h-60l-27 66q20 -1 48 -0.5t55 0.5l50 201q-28 12 -57.5 25.5t-53.5 35.5t-39 56
t-15 86q0 39 16 74.5t41.5 62.5t57.5 43t64 16h84l16 64h38zM185 68h11q42 5 71 27t29 73q0 33 -18.5 52t-46.5 33zM279 601h-11q-18 0 -34 -5t-28.5 -16.5t-20 -30.5t-7.5 -47q0 -34 15.5 -53.5t39.5 -33.5z"/>
            <glyph glyph-name="percent" unicode="%" horiz-adv-x="843"
                   d="M280 458q0 15 -3 35t-9 41.5t-15.5 42t-22.5 35.5q-6 7 -11.5 13.5t-9.5 6.5q-7 0 -17.5 -7.5t-20.5 -18.5t-17.5 -23t-8.5 -20t-3 -18.5t-2 -14.5q0 -12 5 -37.5t12 -52t13 -48.5t8 -27q7 -19 14.5 -41t16.5 -32q17 10 30.5 31.5t22.5 45.5t13.5 48t4.5 41zM365 354
q-27 -33 -46 -52t-38 -29t-40 -13t-51 -3h-12h-22t-27 0.5t-24 0.5q-9 19 -23 52t-26.5 69.5t-22 73.5t-9.5 65q0 34 12 62t32.5 47t48.5 29.5t61 10.5l133 -1q1 -1 3 -1t3 -0.5t2 -0.5q19 -19 38 -51.5t28 -60.5q6 -20 9 -48.5t1 -48.5q-2 -10 -4 -24t-6 -28t-9 -27.5
t-11 -21.5zM700 198q0 15 -3 35t-9 41.5t-15.5 42t-22.5 35.5q-6 7 -11.5 13.5t-9.5 6.5q-7 0 -17.5 -7.5t-20.5 -18.5t-17.5 -23t-8.5 -20t-3 -18.5t-2 -14.5q0 -12 5 -37.5t12 -52t13 -48.5t8 -27q7 -19 14.5 -39.5t16.5 -30.5q17 10 30.5 31t22.5 44.5t13.5 47t4.5 40.5z
M785 94q-27 -33 -46 -51.5t-38 -28t-40 -12t-51 -2.5h-12h-22t-27 0.5t-24 0.5q-9 19 -23 51.5t-26.5 68.5t-22 72.5t-9.5 64.5q0 34 12 62t32.5 47t48.5 29.5t61 10.5l122 1q3 -2 7 -3q6 -2 8 -2q19 -19 40 -51t30 -60q6 -20 9 -48.5t1 -48.5q-2 -10 -4 -24t-6 -28
t-9 -27.5t-11 -21.5zM283 4q-22 -1 -26 0t-6 0l289 660h30z"/>
            <glyph glyph-name="ampersand" unicode="&#x26;" horiz-adv-x="510"
                   d="M224 0q-37 0 -71 8t-59.5 27t-41 49.5t-15.5 74.5q0 46 22 80t84 54q2 1 10 1.5t16.5 2.5t16 5.5t9.5 10.5q-2 6 -7 11t-10 9q-33 23 -57.5 43.5t-40.5 41.5t-24 43.5t-8 51.5q0 28 10 55.5t28.5 49.5t45 35.5t60.5 13.5l190 -1q9 -14 15 -33.5t12 -33.5q-21 -2 -57 1
t-71 1t-61 -15.5t-28 -47.5q-1 -23 1.5 -45.5t12 -44.5t28 -44t49.5 -44q10 -3 18.5 -10t11 -15.5t-4 -17.5t-25.5 -18q-15 -7 -29 -17t-25.5 -26t-18.5 -38t-7 -53q0 -14 5.5 -32t18 -34.5t33.5 -27.5t52 -11q3 0 3.5 5t0 11t-1.5 11.5t1 6.5q-2 11 -0.5 25t-1 27
t-13.5 22.5t-38 10.5q1 4 5.5 12.5t9.5 17.5q5 11 12 22h185v-140v-91h-250z"/>
            <glyph glyph-name="quotesingle" unicode="'" horiz-adv-x="175"
                   d="M122 437h-12h-26h-26l-27 229h104z"/>
            <glyph glyph-name="parenleft" unicode="(" horiz-adv-x="221"
                   d="M102 291q0 -176 88 -357q-1 0 -7 -0.5t-12.5 -1t-12.5 -0.5q-5 0 -19.5 18.5t-37.5 62t-39 90.5t-24 95.5t-8 95.5q0 94 27 184t94 185l43 -1q-23 -30 -40 -78.5t-28.5 -102t-17.5 -104.5t-6 -86z"/>
            <glyph glyph-name="parenright" unicode=")" horiz-adv-x="216"
                   d="M113 304q0 88 -22 178t-65 179q1 0 6.5 1t12 1.5t11.5 0.5q6 0 6 -1q30 -37 52.5 -80.5t38.5 -90.5t24 -95.5t8 -95.5q0 -94 -27 -184t-93 -185l-44 1q23 30 40 78.5t28.5 102t17.5 104.5t6 86z"/>
            <glyph glyph-name="asterisk" unicode="*" horiz-adv-x="310"
                   d="M266 577q-20 -6 -44 -10.5t-46 -18.5q22 -14 44.5 -20t43.5 -11q-3 -12 -10 -26t-21 -27q-8 6 -16 15t-17 18t-18 16.5t-18 10.5q-2 -2 0 -14.5t5.5 -27.5t7.5 -29t5 -18q-13 -5 -30.5 -4.5t-32.5 4.5q3 10 6.5 21t6.5 20.5t4.5 16.5t1.5 9v23q-8 -2 -17.5 -9
t-18.5 -15.5t-17.5 -18t-14.5 -16.5q-14 6 -23 24t-12 31q18 3 35 7q14 4 28.5 8.5t24.5 10.5q-15 15 -40 21t-47 11q5 14 13 29t21 25q17 -19 34.5 -36.5t34.5 -25.5q3 6 1 18.5t-5.5 27t-7.5 27.5t-6 19q20 5 32 5t32 -6q-3 -6 -6 -16.5t-5.5 -21.5t-4.5 -19.5t-2 -9.5
l-3 -24q20 8 37.5 26.5t33.5 33.5q11 -8 20 -25.5t11 -28.5z"/>
            <glyph glyph-name="plus" unicode="+" horiz-adv-x="457"
                   d="M207 350h-168v50h168v157h53v-157h168v-50h-168v-157h-53v157z"/>
            <glyph glyph-name="comma" unicode="," horiz-adv-x="294"
                   d="M258 66q0 -19 -18.5 -45t-42.5 -50t-46.5 -41.5t-30.5 -19.5q1 1 -3 4.5t-8.5 7.5t-8.5 7.5t-2 5.5q18 10 34.5 20t17.5 28q0 9 -6 12.5t-14 5t-15.5 1t-9.5 0.5q-31 10 -48.5 27.5t-17.5 37.5q0 21 13 35t31 22t36 11t28 3t29 -3t37 -11t31.5 -22t13.5 -36z"/>
            <glyph glyph-name="period" unicode="." horiz-adv-x="295"
                   d="M257 64q0 -21 -13 -35.5t-31 -22.5t-36.5 -11.5t-28.5 -3.5q-12 0 -31 3.5t-37 11.5t-30.5 22t-12.5 35t13 35t31 22.5t36 11.5t29 3q10 0 28.5 -3.5t37 -12t32 -22t13.5 -33.5z"/>
            <glyph glyph-name="slash" unicode="/" horiz-adv-x="352"
                   d="M35 0q-22 -1 -26 0t-6 0l289 663h30z"/>
            <glyph glyph-name="zero" unicode="0" horiz-adv-x="677"
                   d="M479 303q0 33 -7 69t-19.5 72t-31.5 69t-43 59q-4 4 -10.5 11.5t-14 15t-14 13t-9.5 5.5q-29 0 -51 -17t-37 -43.5t-22 -57t-6 -57.5q1 -35 16.5 -87t35 -105.5t39 -102t29.5 -76.5q2 -5 7.5 -13.5t7.5 -13.5h13q33 22 55.5 56.5t36 71.5t19.5 72t6 59zM654 347
q0 -7 -3.5 -30.5t-7.5 -43.5q-6 -38 -30 -85.5t-59.5 -89t-78.5 -70t-88 -28.5h-194q-10 18 -26 49t-33.5 69t-36 80.5t-33 84t-23.5 79t-9 65.5q0 33 15.5 74t44.5 77.5t70 61.5t91 26q32 1 61.5 1h57.5h119q13 0 33 -19t39.5 -45t36 -52.5t22.5 -42.5q6 -15 11.5 -35
t10 -42t7.5 -44t3 -40z"/>
            <glyph glyph-name="one" unicode="1" horiz-adv-x="280"
                   d="M72 0l1 476q0 20 -3 31.5t-9.5 18.5t-16.5 11t-24 8q0 2 15.5 20.5t34.5 40.5l50 58h119v-664h-167z"/>
            <glyph glyph-name="two" unicode="2"
                   d="M12 0q57 49 110 96t93.5 94.5t65 96t24.5 100.5q0 41 -19 81t-52.5 76t-78.5 67t-96 54q1 -1 18.5 -1.5t42.5 -0.5t54 0.5t54.5 1t42.5 0.5h19q51 -6 88.5 -37.5t62 -73.5t36.5 -86t12 -75q0 -47 -16 -86.5t-46 -77t-74 -76.5t-100 -85h223l34 -68h-498z"/>
            <glyph glyph-name="three" unicode="3" horiz-adv-x="467"
                   d="M440 486q0 -23 -10 -50.5t-28 -52t-42.5 -42.5t-53.5 -23q-7 -2 -16.5 -5.5t-17.5 -5.5q15 -9 38 -14t41 -15q29 -17 41 -42t12 -49q0 -31 -18.5 -61.5t-44 -56.5t-52 -44.5t-42.5 -24.5h-205q21 16 51.5 39.5t59 50.5t49 55.5t20.5 52.5q0 25 -12 40.5t-30 24.5
t-39.5 12t-40.5 5l-4 3q33 29 62 52t50 44.5t33.5 44.5t12.5 53q0 22 -8 42t-21.5 36t-31.5 27t-39 15q-31 6 -69 3.5t-67 -3.5q2 12 10.5 33t13.5 35h278q14 -12 34.5 -25.5t39.5 -33.5t32.5 -49t13.5 -71z"/>
            <glyph glyph-name="four" unicode="4" horiz-adv-x="498"
                   d="M247 528l-155 -296q24 4 40.5 7t32.5 5t34.5 2.5t46.5 -0.5zM418 0h-172l1 110l-1 66l-245 1l250 487h166l1 -422q13 1 24 -4t24 -10l18 -50h-66v-178z"/>
            <glyph glyph-name="five" unicode="5" horiz-adv-x="471"
                   d="M457 192q0 -27 -21.5 -56t-52.5 -55.5t-65 -48t-59 -32.5h-225q3 1 20.5 8.5t41.5 20.5t51 30.5t50 38t38 43t15 44.5q0 19 -8.5 28.5t-21.5 14t-27.5 5t-26.5 0.5q-3 0 -16.5 -0.5t-29 -1.5t-29 -1.5t-16.5 -0.5q-11 0 -19 6.5t-13 15.5t-7.5 17.5t-2.5 13.5v385h377
l26 -68h-232v-296q2 -16 12.5 -20t15.5 -4q3 0 21 1.5t38 4t38 4t21 1.5q19 2 38.5 -4.5t34.5 -19.5t24.5 -32t9.5 -42z"/>
            <glyph glyph-name="six" unicode="6" horiz-adv-x="562"
                   d="M370 182q0 54 -39 100.5t-98 81.5q-11 -24 -15 -46t-2 -52q2 -29 7 -53.5t13 -49t18.5 -51t23.5 -59.5q0 -1 5 -3q2 -1 3 -1q14 8 27 20t22 25q2 3 7.5 14t11.5 24.5t11 27t5 22.5zM541 183q0 -18 -9 -41.5t-24.5 -47t-36.5 -45.5t-45 -37q-9 -6 -29.5 -8.5t-57 -3
t-90.5 -0.5h-128q-44 72 -69 146t-25 149q0 54 17.5 106.5t43.5 99.5q23 42 55 85.5t75 81.5q1 1 24 1q24 0 56.5 -0.5t68.5 -1t62 -0.5q-14 -8 -32.5 -25.5t-38 -39.5t-38.5 -47t-33.5 -48.5t-23.5 -43.5t-9 -32q0 -24 15.5 -37t35.5 -19.5t40.5 -7.5t30.5 -1
q24 0 49.5 -10.5t48 -29t39 -43t22.5 -51.5q2 -9 4 -25t2 -24z"/>
            <glyph glyph-name="seven" unicode="7" horiz-adv-x="530"
                   d="M263 0h-184l213 577q-2 6 -3.5 14.5t-16.5 8.5h-216l-36 67h494z"/>
            <glyph glyph-name="eight" unicode="8" horiz-adv-x="544"
                   d="M345 138q0 6 -2 14.5t-3 13.5q-3 14 -14 28.5t-25 27t-28 23t-23 15.5q-5 4 -15 9.5t-17 5.5q-10 0 -19 -15.5t-15.5 -35t-10 -36.5t-3.5 -20q0 -17 4.5 -36t13 -38t20 -35t26.5 -25q20 0 40 8.5t35.5 23t25.5 33.5t10 39zM360 513q0 6 -4.5 24t-13.5 38t-23.5 35.5
t-33.5 15.5t-32 -14t-21.5 -32.5t-12.5 -36t-4 -24.5q0 -14 7 -36t18.5 -42.5t26 -35.5t29.5 -15q19 0 31.5 16.5t19.5 37.5t10 41t3 28zM520 170q0 -7 -3 -12.5t-3 -10.5q-2 -40 -20.5 -67.5t-45.5 -46t-58 -26t-56 -7.5h-249q-32 39 -46 71.5t-14 70.5q0 26 5.5 49
t18.5 45t35 44t56 45q-57 45 -82.5 90.5t-25.5 93.5q0 18 10 44.5t27 51t40 42.5t49 20h25h49h67h78q26 0 48.5 -19t39.5 -44t26.5 -50.5t9.5 -38.5q0 -54 -28.5 -95t-97.5 -70v-3q28 -12 54 -30t46 -40.5t32.5 -49.5t12.5 -57z"/>
            <glyph glyph-name="nine" unicode="9" horiz-adv-x="575"
                   d="M204 486q0 -54 39 -100.5t98 -81.5q11 24 15 46t2 52q-2 29 -7 54t-13 49.5t-18.5 50.5t-23.5 59l-6 3q-2 1 -3 1q-14 -8 -27 -20t-21 -25q-2 -3 -8 -14t-12 -24.5t-10.5 -27t-4.5 -22.5zM32 485q0 18 9 41.5t24.5 47t36.5 45.5t45 37q9 6 30 8t57.5 3t89.5 1h128
q44 -72 69 -146t25 -149q0 -54 -17 -106.5t-43 -99.5q-24 -42 -55.5 -85t-74.5 -81q-1 -1 -212 -1q22 12 52 44t57.5 69t46.5 71.5t19 52.5q0 24 -15.5 37t-35.5 19.5t-40 7.5t-30 1q-24 0 -50 10.5t-48.5 29t-39 43t-21.5 51.5q-2 9 -4.5 25t-2.5 24z"/>
            <glyph glyph-name="colon" unicode=":" horiz-adv-x="301"
                   d="M261 488q0 -21 -13 -35.5t-31 -22.5t-36.5 -11.5t-28.5 -3.5q-12 0 -31 3.5t-37 11.5t-30.5 22t-12.5 35t13 35t31 22.5t36 11.5t29 3q10 0 28.5 -3.5t37 -12t32 -22t13.5 -33.5zM261 228q0 -21 -13 -35.5t-31 -22.5t-36.5 -11.5t-28.5 -3.5q-12 0 -31 3.5t-37 11.5
t-30.5 22t-12.5 35t13 35t31 22.5t36 11.5t29 3q10 0 28.5 -3.5t37 -12t32 -22t13.5 -33.5z"/>
            <glyph glyph-name="semicolon" unicode=";" horiz-adv-x="316"
                   d="M269 232q0 -19 -18.5 -45t-42.5 -50t-46.5 -41.5t-30.5 -19.5q1 1 -1 2.5t-4.5 3t-4.5 3t0 3.5q17 10 29 24.5t13 32.5q0 8 -6.5 12.5t-14.5 6.5t-16 2.5t-10 1.5q-31 10 -48.5 27.5t-17.5 37.5q0 21 13 35t31 22t36 11t28 3t29 -3t37 -11t31.5 -22t13.5 -36zM272 490
q0 -21 -13 -35.5t-31 -22.5t-36.5 -11.5t-28.5 -3.5q-12 0 -31 3.5t-37 11.5t-30.5 22t-12.5 35t13 35t31 22.5t36 11.5t29 3q10 0 28.5 -3.5t37 -12t32 -22t13.5 -33.5z"/>
            <glyph glyph-name="less" unicode="&#x3c;" horiz-adv-x="295"
                   d="M213 559l46 -46l-144 -143l144 -144l-46 -46l-188 188z"/>
            <glyph glyph-name="equal" unicode="=" horiz-adv-x="481"
                   d="M26 293v64h431v-64h-431zM26 423v64h431v-64h-431z"/>
            <glyph glyph-name="greater" unicode="&#x3e;" horiz-adv-x="287"
                   d="M75 183l-45 46l143 144l-143 143l45 46l189 -188z"/>
            <glyph glyph-name="question" unicode="?" horiz-adv-x="457"
                   d="M250 72q0 -21 -13 -34.5t-31 -21t-35.5 -10.5t-26.5 -3q-11 0 -29.5 3.5t-36 11.5t-30.5 21t-13 33q0 21 12 34.5t29 22t34.5 12t29.5 3.5q13 0 32 -3.5t36 -12t29.5 -22t12.5 -34.5zM435 480q0 -7 0.5 -12t0 -9.5t-2.5 -10.5t-7 -16q-13 -24 -33.5 -40t-44 -28
t-48.5 -21.5t-46 -20.5q-7 -4 -16.5 -17.5t-9.5 -20.5v-101h-173v73q0 24 18 42t43 32.5t49.5 25.5t37.5 22q6 6 11 8t12 7q14 12 22.5 32.5t8.5 34.5q0 21 -14.5 43.5t-37.5 44t-50.5 41t-53.5 35t-47 26t-30 13.5h242q2 -1 18 -11.5t35.5 -23.5t36 -25.5t20.5 -16.5
q3 -3 13 -11t15 -14q20 -23 25.5 -43t5.5 -38z"/>
            <glyph glyph-name="at" unicode="@" horiz-adv-x="762"
                   d="M438 469q-15 6 -36 6q-41 0 -70 -20t-48 -51t-27.5 -68.5t-8.5 -73.5q0 -35 12 -47.5t34 -12.5q13 0 29.5 7t32.5 21t29 35t19 50l34 154v0zM699 379q0 -57 -15.5 -103t-42 -78.5t-62 -50t-75.5 -17.5q-51 0 -73.5 22.5t-25.5 52.5q-23 -27 -57 -46t-72 -19
q-19 0 -37.5 7.5t-33 23t-23.5 39t-9 55.5q0 51 15 99t44 85t73 59.5t103 22.5q32 0 60 -7.5t56 -22.5q-17 -58 -29 -115.5t-25 -116.5q-6 -25 -6 -41t4.5 -25t14 -12.5t24.5 -3.5q23 0 44 14.5t37.5 40t26 61t9.5 76.5q0 50 -19.5 94.5t-54.5 77.5t-84 52t-108 19
q-63 0 -114.5 -25.5t-88.5 -68t-57 -97.5t-20 -113q0 -57 21 -104.5t57 -82t84 -53.5t102 -19q35 0 66 5t58 14l16 -58q-32 -11 -67.5 -15.5t-72.5 -4.5q-68 0 -129.5 21t-108 61.5t-74 99.5t-27.5 136q0 76 26.5 142t73.5 114.5t112 76.5t143 28q72 0 134.5 -21t108 -60
t72 -94.5t26.5 -124.5z"/>
            <glyph glyph-name="A" unicode="A" horiz-adv-x="583"
                   d="M204 435q-5 -7 -15 -37t-20 -65q-12 -40 -25 -90h122zM347 -1q-9 28 -21.5 65.5t-24.5 72.5q-14 40 -28 83q-7 -14 -20 -26t-42 -12q0 -1 -13 -1h-28q-18 0 -41 1q-13 -35 -24 -68q-10 -29 -20.5 -59.5t-18.5 -53.5q-15 -2 -36.5 -1.5t-33.5 0.5l66 184l-27 3
q11 10 20 21q8 9 15 19t10 19q7 23 15.5 52.5t17.5 60t17.5 60t15 52.5t11 38.5t4.5 17.5q3 14 -0.5 33.5t-9.5 39.5t-12.5 38t-9.5 29h180l214 -668h-176z"/>
            <glyph glyph-name="B" unicode="B" horiz-adv-x="553"
                   d="M304 221q0 25 -12.5 46t-31.5 38.5t-41 31t-41 23.5v-316q11 -1 32 10.5t42 34.5t36.5 56t15.5 76zM306 449q0 19 -10 45.5t-27.5 52t-41 45.5t-51.5 27v-175q3 -16 11 -27t18.5 -17.5t21 -9t18.5 -2.5q24 0 42.5 17.5t18.5 43.5zM480 185q0 -35 -16.5 -65t-44.5 -54
t-63.5 -40.5t-72.5 -23.5q-9 -2 -24.5 -2.5t-22.5 0.5h-229v666h236q43 0 81 -9.5t67.5 -30.5t47.5 -53.5t20 -78.5q2 -50 -17 -79.5t-44 -45t-47 -20.5t-26 -5q32 -6 60.5 -16.5t49.5 -28.5t33 -45.5t12 -68.5z"/>
            <glyph glyph-name="C" unicode="C" horiz-adv-x="596"
                   d="M214 -1l-27 14q-43 22 -78 56t-59.5 76t-38 89.5t-13.5 95.5q0 73 26.5 134.5t72.5 106.5t108.5 70.5t133.5 25.5h175l-25 -68q-15 0 -39.5 0.5t-50.5 0.5q-25 0 -45.5 -0.5t-27.5 -3.5q-41 -15 -67.5 -44t-43 -65t-23 -76t-6.5 -77q0 -119 39 -189t115 -78q0 -1 23 -1
h52q33 0 75 1l28 -68h-304z"/>
            <glyph glyph-name="D" unicode="D" horiz-adv-x="590"
                   d="M335 325q0 40 -10.5 85t-31 86.5t-51 74.5t-69.5 48v-579q39 20 69 51t50.5 68.5t31.5 80t11 85.5zM519 330q0 -71 -29.5 -131.5t-78 -104.5t-112 -69t-132.5 -25h-167v666l257 1q1 0 8.5 -3.5t16.5 -8t16.5 -8.5t9.5 -5q48 -24 86.5 -55t66.5 -69.5t43 -85t15 -102.5z
"/>
            <glyph glyph-name="E" unicode="E" horiz-adv-x="456"
                   d="M372 667q-5 -15 -11 -33.5t-11 -32.5h-149q-7 0 -21 -8.5t-12 -23.5v-336l175 -1q-3 -8 -7 -17.5t-8 -17.5q-4 -10 -9 -20q-31 1 -57 1h-42t-25 -1q-2 -1 -6 -2t-8.5 -4t-8 -8.5t-4.5 -14.5v-58q0 -6 9 -14t16 -9h165l20 -68h-378l1 668h371v0z"/>
            <glyph glyph-name="F" unicode="F" horiz-adv-x="442"
                   d="M372 667q-5 -15 -11 -33.5t-11 -32.5h-149q-7 0 -21 -8.5t-12 -23.5v-336l175 -1q-3 -8 -7 -17.5t-8 -17.5q-2 -5 -4.5 -10t-4.5 -10q-16 1 -30 1h-27h-42q-22 0 -25 -1q-1 -1 -5.5 -2t-9 -4t-8.5 -8.5t-4 -14.5q-1 -19 -0.5 -44t0.5 -48v-28t1 -28l-169 -1l1 668h371z
"/>
            <glyph glyph-name="G" unicode="G" horiz-adv-x="617"
                   d="M249 4q-25 0 -56 20t-60 45t-50.5 48.5t-27.5 31.5q-13 18 -23.5 41.5t-18.5 49.5t-12.5 51.5t-4.5 48.5q0 35 11.5 76t31.5 83q22 45 58 77t78 52.5t86.5 30.5t83.5 10h164l-30 -67h-134q-44 0 -75.5 -27.5t-51.5 -67.5t-30 -85t-11 -80q-2 -49 11 -100.5t37 -94
t57 -69.5t72 -27q0 7 0.5 19.5t0 25t-1 23t-1.5 13.5q-2 6 -2 15t-4.5 17t-17 12.5t-39.5 0.5q3 6 6 16.5l6 21t6.5 20t7.5 14.5h205v-245h-271z"/>
            <glyph glyph-name="H" unicode="H" horiz-adv-x="559"
                   d="M299 0v81v71q0 38 -1 65q-9 -5 -19.5 -19.5t-31.5 -18.5l-6.5 0.5t-13.5 0.5h-13q-5 0 -4 -1q-23 1 -29 -11t-6 -22l1 -146h-168l-2 665h173v-423h122v423h170v-665h-172z"/>
            <glyph glyph-name="I" unicode="I" horiz-adv-x="259"
                   d="M0 0l-1 667h169v-668z"/>
            <glyph glyph-name="J" unicode="J" horiz-adv-x="346"
                   d="M248 171q0 -15 -0.5 -39.5t-6.5 -50t-19.5 -48t-37.5 -34.5h-181q8 1 20.5 13t24 29t20 36t8.5 33q0 142 -0.5 278.5t-0.5 278.5h173v-496v0z"/>
            <glyph glyph-name="K" unicode="K" horiz-adv-x="574"
                   d="M323 -2l-153 250v-32v-37v-180h-170v669h169l1 -246q6 16 20.5 39t32.5 46t36.5 42.5t30.5 30.5q15 13 35 28t39 28t33.5 22t17.5 9t13 0.5t22 0.5h26t23 -1q-44 -33 -83 -64t-68.5 -63.5t-47 -67t-17.5 -75.5q0 -22 10.5 -50.5t27 -61t38 -66t44.5 -65.5
q53 -75 121 -156h-201z"/>
            <glyph glyph-name="L" unicode="L" horiz-adv-x="437"
                   d="M169 667q-1 -112 -1 -218v-359q0 -6 9 -14t16 -9h165l20 -66h-378l1 666h168v0z"/>
            <glyph glyph-name="M" unicode="M" horiz-adv-x="779"
                   d="M524 1l-63 367l-58 -367h-189l-70 375l-54 -376l-82 1q11 19 17.5 42t11 47t7.5 48t7 45q3 16 9 50t12.5 77t13.5 90t12 89t8 74t2 45q-2 17 -6.5 30.5t-9.5 29.5l182 -1l82 -509q5 2 6 -3t3 3q1 9 5 33t9.5 57.5t12 73t12.5 79.5q15 94 33 208q0 2 -3.5 19t-17.5 40h176
l106 -667h-174z"/>
            <glyph glyph-name="N" unicode="N" horiz-adv-x="526"
                   d="M448 668q-7 -22 -8 -35.5t-2 -20.5v-611h-187l-173 447h-5v-446q-40 -6 -75 0q3 11 6.5 26t3.5 21v559q0 3 -1.5 10.5t-4 16t-5 17.5t-3.5 16h176l200 -499q2 3 4 2.5t2 6.5v489q17 2 36 1.5t36 -0.5z"/>
            <glyph glyph-name="O" unicode="O" horiz-adv-x="717"
                   d="M468 391q-4 28 -17 65.5t-36 71.5t-56 57t-76 23q-23 0 -43.5 -25.5t-35.5 -63t-22.5 -79.5t-5.5 -74q3 -37 9 -66t18 -58t31 -61t47 -75q1 -3 9.5 -12t18.5 -19.5t19.5 -18.5t13.5 -8q9 0 23 11t27.5 25t23 25.5t10.5 13.5q17 33 28.5 61.5t17 59t4.5 65.5t-8 82z
M614 231q-33 -79 -68 -124.5t-69 -69t-64.5 -30t-53.5 -6.5q-3 0 -28.5 -0.5t-55.5 -0.5h-56t-29 1q-2 0 -9.5 7t-17.5 17t-20.5 22t-18.5 21q-18 22 -39 55t-39.5 72t-31 83t-12.5 89q0 59 17.5 112.5t51 94.5t81.5 66.5t109 28.5q45 2 85 2.5t79 0.5q14 -8 26 -15
q11 -6 20.5 -11t12.5 -7q37 -23 62.5 -50.5t42 -58t26 -62t14.5 -61.5q3 -20 4 -43.5t-1 -47.5t-6.5 -46t-11.5 -39z"/>
            <glyph glyph-name="P" unicode="P" horiz-adv-x="543"
                   d="M332 484q0 31 -11 56.5t-30 42.5t-43.5 26.5t-52.5 9.5h-17v-340q6 8 9 15t8.5 14t15.5 15.5t31 19.5q21 17 38 32t28.5 31t17.5 34.5t6 43.5zM480 506q0 -42 -18 -79.5t-48.5 -67.5t-72.5 -50.5t-90 -29.5q-13 -2 -26.5 -11t-24.5 -21.5t-18 -26.5t-7 -27l1 -193h-168
v668h177h162q33 0 58 -16t41.5 -40t25 -52.5t8.5 -53.5z"/>
            <glyph glyph-name="Q" unicode="Q" horiz-adv-x="731"
                   d="M468 391q-4 28 -17.5 67.5t-37 75.5t-57 61.5t-76.5 25.5q-23 0 -42.5 -22t-34 -56t-22.5 -73.5t-7 -74.5q1 -43 7.5 -77.5t19 -67t32.5 -67t48 -77.5q1 -3 9.5 -12t18.5 -19.5t19.5 -18.5t13.5 -8q9 0 23 11t27.5 25t23 25.5t10.5 13.5q17 33 28.5 61.5t17 59t4.5 65.5
t-8 82zM582 -41q-2 0 -19.5 -8.5t-38 -19t-38 -19t-19.5 -8.5q-7 0 -21.5 10t-30.5 24.5t-30 31.5t-21 31h-5q-3 0 -28.5 -0.5t-55.5 -0.5h-56t-29 1q-2 0 -9.5 7t-17.5 17t-20.5 22t-18.5 21q-18 22 -39 55t-39.5 72t-31 83t-12.5 89q0 59 17.5 112.5t51 94.5t81.5 66.5
t109 28.5q45 2 88 0.5t83 -1.5q12 -7 23 -13q9 -5 17.5 -9.5t11.5 -6.5q37 -23 64.5 -52t46.5 -61t30.5 -65t16.5 -63q3 -20 3.5 -45t-2 -50.5t-7.5 -49.5t-12 -41q-14 -33 -29.5 -57t-32 -42t-32.5 -31.5t-30 -26.5q7 -16 17 -33t21.5 -31t22.5 -23t21 -9z"/>
            <glyph glyph-name="R" unicode="R" horiz-adv-x="564"
                   d="M328 478q0 25 -9 51t-25 47t-38.5 34t-50.5 13h-34l-1 -364q3 4 5.5 11t7 15.5t11 16.5t17.5 15q31 19 53.5 36.5t36.5 35.5t20.5 39.5t6.5 49.5zM303 0q-32 40 -50.5 66.5t-31 47t-23.5 39.5t-29 44v-196h-169v666h280q45 0 81.5 -8.5t63 -27t41 -49t14.5 -74.5
q0 -40 -14.5 -66.5t-38 -45.5t-53.5 -33t-61 -29q-8 -4 -15 -12.5t-8 -25.5q-1 -9 6 -21.5t17 -25t19.5 -24t14.5 -18.5q16 -26 37 -55t43 -57.5t41.5 -53t33.5 -41.5h-199z"/>
            <glyph glyph-name="S" unicode="S" horiz-adv-x="555"
                   d="M455 667q-10 -18 -18 -41q-4 -12 -9 -26h-56q-23 0 -48.5 0.5t-42.5 0.5q-21 0 -40 -5t-33.5 -16.5t-23.5 -30.5t-9 -47q0 -38 22.5 -58.5t56.5 -34t74 -25t74 -32t56.5 -54t22.5 -91.5q0 -42 -18.5 -79.5t-49 -66t-69.5 -45t-79 -16.5l-216 1l-32 67h41h47h48h44
q24 3 45.5 9t37 18t25 29.5t9.5 43.5q0 34 -23 53.5t-57.5 33t-74.5 27t-74.5 35.5t-57.5 58t-23 96q0 39 18.5 74.5t48.5 62.5t67.5 43t75.5 16h241z"/>
            <glyph glyph-name="T" unicode="T" horiz-adv-x="561"
                   d="M453 601h-127l-2 -601h-170l1 601h-154l28 66h449z"/>
            <glyph glyph-name="U" unicode="U" horiz-adv-x="572"
                   d="M79 1q-19 7 -32.5 21.5t-21.5 31t-11.5 32t-3.5 26.5v555h171l1 -536q1 -23 9.5 -36t20 -19.5t23 -8.5t19.5 -2h58v601h167v-665h-400z"/>
            <glyph glyph-name="V" unicode="V" horiz-adv-x="551"
                   d="M364 174q-4 -22 -10.5 -43.5t-11 -43t-4 -43t11.5 -43.5q-22 -2 -52 -2.5t-59 0.5q-33 0 -68 2l-170 665h176l124 -479q11 46 23.5 97.5t24 102.5t21.5 98t16 84q10 58 -16 97q2 -2 19 -2t37 1l54 2q-29 -124 -54 -226q-11 -44 -21 -87t-18.5 -80t-14.5 -63.5t-8 -36.5z
"/>
            <glyph glyph-name="W" unicode="W" horiz-adv-x="873"
                   d="M685 203q-5 -26 -12 -51.5t-11.5 -50.5t-5 -50t8.5 -51h-179l-85 351q-10 -41 -19 -78q-8 -32 -16 -64.5t-13 -51.5q-4 -17 -8.5 -36.5t-6.5 -40t0 -40.5t11 -38h-180l-172 664l182 1l119 -455l69 273l-10 46l-10 46q-8 25 -13 46.5t-22 43.5h187l121 -462q17 68 34 132
q14 55 28.5 115t22.5 105q1 9 0.5 23t-2 30t-3.5 30.5t-4 25.5h105q-25 -89 -47 -173q-9 -36 -19 -75t-19 -77t-17 -73.5t-14 -64.5z"/>
            <glyph glyph-name="X" unicode="X" horiz-adv-x="578"
                   d="M320 1l-117 234l-99 -168q0 -3 -3.5 -10.5t-7 -16.5t-5.5 -19.5t2 -19.5h-94l184 306l-157 359h184l81 -184l34 56q13 21 23.5 39t10.5 20q8 17 9 35t3 34q8 -1 24 -1h34q19 0 40 1l-150 -253l183 -412h-179z"/>
            <glyph glyph-name="Y" unicode="Y" horiz-adv-x="572"
                   d="M516 666q-6 0 -6.5 -6t-4.5 -11q-12 -15 -29.5 -43t-36 -62t-36.5 -71.5t-32 -72.5t-23 -64.5t-9 -47.5v-287h-172v116v83q0 36 -1.5 66.5t-6.5 58t-15.5 58.5t-27.5 69.5t-43 89.5q-6 11 -15 26.5t-20 32.5t-21.5 33.5t-19.5 30.5h202q16 -23 31 -53t29 -63.5t27 -68
t26 -65.5l113 251h91v0z"/>
            <glyph glyph-name="Z" unicode="Z" horiz-adv-x="556"
                   d="M6 1l256 598h-214l-28 66h458l-253 -598h237l25 -67z"/>
            <glyph glyph-name="bracketleft" unicode="[" horiz-adv-x="224"
                   d="M155 690h-76v-753h75v-66l-154 -1l-1 887h156v-67z"/>
            <glyph glyph-name="backslash" unicode="\" horiz-adv-x="374"
                   d="M3 663h30l289 -663q-2 1 -6 0t-26 0z"/>
            <glyph glyph-name="bracketright" unicode="]" horiz-adv-x="224"
                   d="M-1 757h156v-887l-155 1v66h75v753h-76v67z"/>
            <glyph glyph-name="asciicircum" unicode="^" horiz-adv-x="555"
                   d="M381 704l-122 38l-119 -38l-8 15l125 85l131 -82z"/>
            <glyph glyph-name="underscore" unicode="_" horiz-adv-x="492"
                   d="M495 -84v-39h-502v39h502z"/>
            <glyph glyph-name="grave" unicode="`" horiz-adv-x="531"
                   d="M359 704l-13 -18q-45 24 -81 43l-30 16t-26.5 14t-18 10t-6.5 5t6 9t14 17q9 11 20 23z"/>
            <glyph glyph-name="braceleft" unicode="{" horiz-adv-x="316"
                   d="M87 210q0 38 -16.5 65.5t-49.5 27.5h-18v64h18q33 0 49.5 27.5t16.5 65.5v167q0 78 45.5 122.5t140.5 55.5v-104q-45 -4 -64 -22t-19 -52v-167q0 -71 -52 -125q52 -54 52 -125v-167q0 -34 19 -52t64 -22v-104q-95 11 -140.5 55.5t-45.5 122.5v167z"/>
            <glyph glyph-name="bar" unicode="|" horiz-adv-x="316"
                   d="M197 799v-935h-99v935h99z"/>
            <glyph glyph-name="braceright" unicode="}" horiz-adv-x="317"
                   d="M184 43q0 -78 -45.5 -122.5t-140.5 -55.5v104q45 4 64 22t19 52v167q0 71 52 125q-52 54 -52 125v167q0 34 -19 52t-64 22v104q95 -11 140.5 -55.5t45.5 -122.5v-167q0 -38 16.5 -65.5t49.5 -27.5h18v-64h-18q-33 0 -49.5 -27.5t-16.5 -65.5v-167z"/>
            <glyph glyph-name="asciitilde" unicode="~" horiz-adv-x="363"
                   d="M42 753q3 11 14.5 19.5t25.5 14.5t29 9t25 3q13 0 25 -4.5t24 -9.5t24 -9.5t25 -4.5t30.5 6.5t23.5 17.5l17 -22q-6 -10 -16.5 -19t-23 -15.5t-25.5 -10.5t-25 -4q-14 0 -28.5 4.5t-29 9.5t-29 9.5t-29.5 4.5q-14 0 -23.5 -4t-17.5 -17z"/>
            <glyph glyph-name="quotesinglbase" unicode="&#x201a;" horiz-adv-x="316"
                   d="M236 66q0 -19 -19.5 -45t-44.5 -50t-49 -41t-32 -19q1 1 -2 4t-6.5 6l-7 6t-1.5 5q9 5 18.5 9.5t17.5 10t14 12t6 15.5q0 8 -6.5 12.5t-14.5 6.5t-16 2.5t-10 1.5q-31 10 -48.5 27.5t-17.5 37.5q0 21 13 35t31 22t36 11t28 3t29 -3t37 -11t31.5 -22t13.5 -36z"/>
            <glyph glyph-name="quotedblbase" unicode="&#x201e;" horiz-adv-x="547"
                   d="M236 66q0 -19 -18.5 -45t-42.5 -50t-46.5 -41.5t-30.5 -19.5q1 1 -4 3.5t-11.5 5.5t-11.5 5.5t-3 4.5q9 5 19.5 10t20 11t16 13t6.5 16q0 8 -6.5 12.5t-14.5 6.5t-16 2.5t-10 1.5q-31 10 -48.5 27.5t-17.5 37.5q0 21 13 35t31 22t36 11t28 3t29 -3t37 -11t31.5 -22
t13.5 -36zM495 67q0 -19 -18.5 -45t-42.5 -50t-46.5 -41.5t-30.5 -19.5q1 1 -4.5 3t-12.5 4t-12 4t-3 4q9 5 19.5 10.5t20.5 12.5t17 14.5t7 16.5q0 8 -6.5 12.5t-14.5 6.5t-16 2.5t-10 1.5q-31 11 -48.5 28t-17.5 37q0 21 13 35t31 22t36 11t28 3t29 -3t37 -11t31.5 -22
t13.5 -36z"/>
            <glyph glyph-name="ellipsis" unicode="&#x2026;" horiz-adv-x="1051"
                   d="M339 64q0 -21 -13 -35.5t-31 -22.5t-36.5 -11.5t-28.5 -3.5q-12 0 -31 3.5t-37 11.5t-30.5 22t-12.5 35t13 35t31 22.5t36 11.5t29 3q10 0 28.5 -3.5t37 -12t32 -22t13.5 -33.5zM999 64q0 -21 -13 -35.5t-31 -22.5t-36.5 -11.5t-28.5 -3.5q-12 0 -31 3.5t-37 11.5
t-30.5 22t-12.5 35t13 35t31 22.5t36 11.5t29 3q10 0 28.5 -3.5t37 -12t32 -22t13.5 -33.5zM669 64q0 -21 -13 -35.5t-31 -22.5t-36.5 -11.5t-28.5 -3.5q-12 0 -31 3.5t-37 11.5t-30.5 22t-12.5 35t13 35t31 22.5t36 11.5t29 3q10 0 28.5 -3.5t37 -12t32 -22t13.5 -33.5z
"/>
            <glyph glyph-name="dagger" unicode="&#x2020;" horiz-adv-x="17"
            />
            <glyph glyph-name="daggerdbl" unicode="&#x2021;" horiz-adv-x="17"
            />
            <glyph glyph-name="guilsinglleft" unicode="&#x2039;" horiz-adv-x="201"
                   d="M145 433l-49 -134l49 -131l-19 -9l-111 138l107 144z"/>
            <glyph glyph-name="quoteleft" unicode="&#x2018;" horiz-adv-x="316"
                   d="M11 596q0 22 13.5 36t32 22t37 11t28.5 3t28.5 -3t36.5 -11t31 -22t13 -35q0 -20 -17.5 -37t-48.5 -28q-3 -1 -10.5 -1.5t-16 -2.5t-14.5 -6.5t-6 -12.5q0 -9 5.5 -15.5t13.5 -12t17.5 -10t18.5 -9.5q2 -2 -1 -5t-7 -6t-7.5 -6t-1.5 -4q-8 2 -32 19t-49 41t-44.5 50
t-19.5 45z"/>
            <glyph glyph-name="quoteright" unicode="&#x2019;" horiz-adv-x="316"
                   d="M236 596q0 -19 -19.5 -45t-44.5 -50t-49 -41t-32 -19q1 1 -2 4t-6.5 6l-7 6t-1.5 5q9 5 18.5 9.5t17.5 10t14 12t6 15.5q0 8 -6.5 12.5t-14.5 6.5t-16 2.5t-10 1.5q-31 10 -48.5 27.5t-17.5 37.5q0 21 13 35t31 22t36 11t28 3t29 -3t37 -11t31.5 -22t13.5 -36z"/>
            <glyph glyph-name="quotedblleft" unicode="&#x201c;" horiz-adv-x="547"
                   d="M16 597q0 22 13.5 36t32 22t37 11t28.5 3t28.5 -3t36.5 -11t31 -22t13 -35q0 -20 -17.5 -37t-48.5 -28q-3 -1 -10.5 -1.5t-16 -2.5t-14.5 -6.5t-6 -12.5q0 -9 7 -16.5t16.5 -14.5t20.5 -12.5t20 -10.5q1 -2 -4 -4t-12 -4t-12.5 -4t-3.5 -3q-8 2 -31 19.5t-47 41.5
t-42.5 50t-18.5 45zM275 596q0 22 13.5 36t32 22t37 11t28.5 3t28.5 -3t36.5 -11t31 -22t13 -35q0 -20 -17.5 -37t-48.5 -28q-3 -1 -10.5 -1.5t-16 -2.5t-14.5 -6.5t-6 -12.5q0 -9 6.5 -16t15.5 -13t19.5 -11t19.5 -10q2 -2 -3 -4.5l-11 -5.5t-11.5 -5.5t-3.5 -3.5
q-8 2 -31 19.5t-47 41.5t-42.5 50t-18.5 45z"/>
            <glyph glyph-name="quotedblright" unicode="&#x201d;" horiz-adv-x="547"
                   d="M236 596q0 -19 -18.5 -45t-42.5 -50t-46.5 -41.5t-30.5 -19.5q1 1 -4 3.5t-11.5 5.5t-11.5 5.5t-3 4.5q9 5 19.5 10t20 11t16 13t6.5 16q0 8 -6.5 12.5t-14.5 6.5t-16 2.5t-10 1.5q-31 10 -48.5 27.5t-17.5 37.5q0 21 13 35t31 22t36 11t28 3t29 -3t37 -11t31.5 -22
t13.5 -36zM495 597q0 -19 -18.5 -45t-42.5 -50t-46.5 -41.5t-30.5 -19.5q1 1 -4.5 3t-12.5 4t-12 4t-3 4q9 5 19.5 10.5t20.5 12.5t17 14.5t7 16.5q0 8 -6.5 12.5t-14.5 6.5t-16 2.5t-10 1.5q-31 11 -48.5 28t-17.5 37q0 21 13 35t31 22t36 11t28 3t29 -3t37 -11t31.5 -22
t13.5 -36z"/>
            <glyph glyph-name="bullet" unicode="&#x2022;" horiz-adv-x="337"
                   d="M28 333q0 24 9 45t25 37t36.5 25t44.5 9t45 -9t37 -25t25 -37t9 -45t-9 -44.5t-25 -36.5t-37 -25t-45 -9t-44.5 9t-36.5 25t-25 36.5t-9 44.5z"/>
            <glyph glyph-name="endash" unicode="&#x2013;" horiz-adv-x="423"
                   d="M-4 199v64h381v-64h-381z"/>
            <glyph glyph-name="emdash" unicode="&#x2014;" horiz-adv-x="792"
                   d="M-4 263h751v-64h-751v64z"/>
            <glyph glyph-name="trademark" unicode="&#x2122;" horiz-adv-x="620"
                   d="M135 421h-49v214h-74v37h199v-37h-76v-214zM478 419l-15 219l-45 -213l-52 -1l-62 214l-9 -219h-46l18 255h68l53 -191l44 191h69l17 -255h-40z"/>
            <glyph glyph-name="guilsinglright" unicode="&#x203a;" horiz-adv-x="201"
                   d="M15 167l49 134l-49 131l19 9l111 -138l-108 -144z"/>
            <glyph glyph-name="copyright" unicode="&#xa9;" horiz-adv-x="786"
                   d="M367 130q-48 0 -86 15.5t-64.5 42.5t-40 63.5t-13.5 78.5q0 48 17.5 86.5t47.5 65t68.5 41t80.5 14.5q38 0 70 -8t49 -19l-13 -49q-20 9 -47.5 16t-58.5 7q-70 0 -109.5 -39.5t-39.5 -110.5q0 -33 11 -60.5t30.5 -47.5t47 -31.5t60.5 -11.5q61 0 111 24l12 -45
q-31 -17 -66 -24.5t-67 -7.5zM353 634q-60 0 -111.5 -23.5t-89 -64.5t-58.5 -96t-21 -118t22.5 -118.5t61.5 -96t92 -64t113 -23.5t113 23.5t92 64.5t61.5 96t22.5 118t-24 118t-64.5 96t-94.5 64.5t-114 23.5h-1zM362 -11q-71 0 -132.5 27t-107.5 73.5t-72 109t-26 134.5
q0 71 25 133t69 108.5t104.5 73.5t131.5 27h1q70 0 132.5 -27t109 -73.5t73.5 -108.5t27 -133q0 -72 -26 -134.5t-71 -109t-106 -73.5t-132 -27z"/>
            <glyph glyph-name="guillemotleft" unicode="&#xab;" horiz-adv-x="328"
                   d="M145 433l-49 -134l49 -131l-19 -9l-111 138l107 144zM275 433l-49 -134l49 -131l-19 -9l-111 138l107 144z"/>
            <glyph glyph-name="registered" unicode="&#xae;" horiz-adv-x="556"
                   d="M247 650q-38 0 -70.5 -15t-57 -41t-38.5 -61t-14 -74q0 -40 14 -74.5t38.5 -60t57.5 -40.5t71 -15t71 14.5t58 40.5t39 60.5t14 74.5q0 39 -14 74t-39 61t-58 41t-71 15h-1zM248 244q-44 0 -83.5 17t-68.5 46t-46 68.5t-17 84.5q0 44 17 83t46 68.5t68.5 46.5t83.5 17h1
q44 0 83 -17t68 -46t45.5 -68t16.5 -84t-16.5 -84.5t-45.5 -69t-68 -46t-84 -16.5zM294 509q0 23 -9.5 32t-46.5 7q-10 -1 -18 1t-16 0v-78h30q12 0 22.5 1t19 5t13.5 11.5t5 20.5zM339 512q0 -20 -13 -35t-35 -20q11 -7 18 -13t11.5 -13.5t6.5 -17t4 -23.5q3 -23 1 -35.5
t0 -20.5h-44q-4 7 -1.5 22t-1.5 39q-6 45 -52 43l-29 -1v-103h-43v246q14 2 31.5 1.5t43.5 -0.5q16 0 27 0.5t20 -1t17 -5.5t19 -13q9 -8 14.5 -19.5t5.5 -30.5z"/>
            <glyph glyph-name="degree" unicode="&#xb0;" horiz-adv-x="333"
                   d="M134 627q-34 0 -57.5 -23.5t-23.5 -57.5t23.5 -58t57.5 -24t58 24t24 58t-24 57.5t-58 23.5zM134 677q27 0 51 -10.5t42 -28t28.5 -41.5t10.5 -51t-10.5 -51t-28.5 -42t-42 -28.5t-51 -10.5t-51 10.5t-41.5 28.5t-28 42t-10.5 51t10.5 51t28 41.5t41.5 28t51 10.5z"/>
            <glyph glyph-name="mu" unicode="&#xb5;" horiz-adv-x="481"
                   d="M54 279l1 388h168v-76q0 -35 -0.5 -81t-0.5 -97l126 101v-75l-126 -100v-249q0 -6 9 -14.5t16 -8.5h165l20 -66h-378v203l-55 -45v75z"/>
            <glyph glyph-name="periodcentered" unicode="&#xb7;" horiz-adv-x="186"
                   d="M16 312q0 26 17.5 43.5t43.5 17.5q25 0 42.5 -17.5t17.5 -43.5q0 -25 -17.5 -42.5t-42.5 -17.5q-26 0 -43.5 17.5t-17.5 42.5z"/>
            <glyph glyph-name="guillemotright" unicode="&#xbb;" horiz-adv-x="328"
                   d="M145 167l49 134l-49 131l19 9l111 -138l-108 -144zM15 167l49 134l-49 131l19 9l111 -138l-108 -144z"/>
            <glyph glyph-name="afii10017" unicode="&#x410;" horiz-adv-x="551"
                   d="M218 435q-5 -7 -15 -37t-20 -65q-6 -20 -12 -42.5t-13 -47.5h122zM361 0q-9 28 -21.5 65t-24.5 72q-7 20 -14 40.5t-14 42.5q-7 -14 -20 -26t-42 -12q0 -1 -13 -1h-28h-19.5t-21.5 1q-7 -17 -13 -34t-11 -34q-10 -29 -20.5 -59.5t-18.5 -53.5q-15 -2 -36.5 -1.5
t-33.5 0.5l66 184l-27 3q5 5 10 10.5t10 10.5q8 9 15 19t10 19q10 35 24 82t27 90.5t21.5 74.5t8.5 34q3 14 -0.5 33.5t-9.5 39.5t-12.5 38t-9.5 29h180l214 -667h-176z"/>
            <glyph glyph-name="afii10019" unicode="&#x412;" horiz-adv-x="536"
                   d="M328 221q0 25 -12.5 46t-31.5 38.5t-41 31t-41 23.5v-316q11 -1 32 10.5t42 34t36.5 56t15.5 76.5zM330 449q0 19 -10 45.5t-27.5 52t-41 45.5t-51.5 27v-175q3 -17 11 -27.5t18.5 -17t21 -9t18.5 -2.5q24 0 42.5 17.5t18.5 43.5zM504 185q0 -35 -16.5 -65t-44.5 -54
t-63.5 -40.5t-72.5 -23.5q-9 -2 -24.5 -2.5t-22.5 0.5h-229v666h236q43 0 81.5 -9.5t67.5 -30.5t47 -53.5t20 -78.5q1 -33 -7.5 -57t-22.5 -40.5t-31 -27t-32.5 -16t-26.5 -7.5t-14 -2q32 -6 60.5 -16.5t49.5 -28.5t33 -45.5t12 -68.5z"/>
            <glyph glyph-name="afii10020" unicode="&#x413;" horiz-adv-x="435"
                   d="M408 667l-22 -66l-182 -1l1 -600h-168v667h371z"/>
            <glyph glyph-name="afii10022" unicode="&#x415;" horiz-adv-x="433"
                   d="M407 667l-22 -66l-182 -1v-194l175 -1l-24 -55h-151v-283h190l20 -67h-378l1 667h371z"/>
            <glyph glyph-name="afii10024" unicode="&#x416;" horiz-adv-x="918"
                   d="M373 0v248l-153 -248h-201q68 79 121 154q23 32 44.5 65.5t38 66t27 61t10.5 50.5q0 41 -17.5 75.5t-47 67t-68.5 63.5t-83 64q10 1 23 1h26q12 0 22 -0.5t13 -0.5t17.5 -9t33.5 -22t39 -28t35 -28q12 -11 30.5 -30.5t37 -42.5t33 -46t20.5 -39v246h169l1 -246
q6 16 20.5 39t32.5 46t36.5 42.5t30.5 30.5q15 13 35 28t39 28t33.5 22t17.5 9t13 0.5t22 0.5h26t23 -1q-44 -33 -83 -64t-68.5 -63.5t-47 -67t-17.5 -75.5q0 -22 10.5 -50.5t27 -61t38 -66t44.5 -65.5q53 -75 121 -154h-201l-153 248v-248h-170h-1z"/>
            <glyph glyph-name="afii10028" unicode="&#x41a;" horiz-adv-x="571"
                   d="M356 0l-153 248v-248h-170v668h169l1 -246q6 16 20.5 39t32.5 46t36.5 42.5t30.5 30.5q15 13 35 28t39 28t33.5 22t17.5 9t13 0.5t22 0.5h26t23 -1q-44 -33 -83 -64t-68.5 -63.5t-47 -67t-17.5 -75.5q0 -22 10.5 -50.5t27 -61t38 -66t44.5 -65.5q53 -74 121 -154h-201z
"/>
            <glyph glyph-name="afii10030" unicode="&#x41c;" horiz-adv-x="711"
                   d="M524 0l-63 368l-58 -368h-189l-70 376l-54 -376h-82q11 20 17.5 43t11 47t7.5 48t7 45q3 16 9 50t12.5 77t13.5 90t12 89t8 74t2 45q-2 17 -6.5 30.5t-9.5 29.5l182 -1l82 -509q5 2 6 -3t3 3q1 9 5 33t9.5 57.5t12 73t12.5 79.5q15 94 33 208q0 2 -3.5 19t-17.5 40h176
l106 -668h-174z"/>
            <glyph glyph-name="afii10025" unicode="&#x417;" horiz-adv-x="460"
                   d="M238 500q-1 28 -10 47t-23.5 30.5t-33 16.5t-39.5 5h-11.5t-9 -0.5t-21 -0.5h-47.5q-6 17 -12 34.5t-15 32.5h183q38 0 75.5 -14.5t67 -40t48 -59.5t18.5 -73q-3 -32 -22 -51.5t-44.5 -30.5t-53 -16.5t-48.5 -9.5q-1 -2 13 -9t35.5 -18t47 -27t48.5 -37t39.5 -47
t20.5 -58q5 -42 -8 -70t-33.5 -47t-42.5 -32t-36 -25h-279q-5 14 -13.5 35t-10.5 33q29 -1 67.5 -3.5t69.5 3.5q42 8 71 41.5t29 78.5q0 30 -11.5 56t-32.5 50t-50 45.5t-64 42.5l4 3q19 2 43 7t44.5 17.5t34 34t12.5 56.5z"/>
            <glyph glyph-name="afii10029" unicode="&#x41b;" horiz-adv-x="541"
                   d="M208 435l-138 -434q-15 -2 -36.5 -1.5t-33.5 0.5q35 104 65.5 198t53 166t35.5 116t13 47q3 14 -1 33.5t-10 39.5t-13 38t-10 29h180l214 -667h-176z"/>
            <glyph glyph-name="afii10031" unicode="&#x41d;"
                   d="M330 0v383l-52 -38q-7 1 -11.5 1h-8.5h-13q-5 0 -4 -1q-23 1 -29 -11t-6 -22v-312h-170v665h174v-257h122v257h169v-665h-171z"/>
            <glyph glyph-name="afii10032" unicode="&#x41e;" horiz-adv-x="699"
                   d="M381 48q36 9 61.5 42t41.5 72.5t23.5 78t7.5 58.5q0 24 -3.5 56.5t-12 67t-22.5 67.5t-35.5 59.5t-51 42.5t-68.5 16q-20 0 -36.5 -15t-29 -39t-20.5 -54.5t-13 -61.5t-6 -60.5t2 -50.5q7 -55 23.5 -98.5t39 -78t48 -59.5t51.5 -43zM229 0q-9 0 -26.5 13t-38.5 37.5
t-42.5 58t-39.5 74t-29.5 87.5t-11.5 97q0 59 17.5 112.5t51 94.5t81.5 66.5t109 28.5h164q57 -20 97 -57.5t64.5 -82.5t35.5 -92t11 -87q0 -67 -25.5 -131.5t-65.5 -114t-88.5 -78.5t-94.5 -26h-169z"/>
            <glyph glyph-name="afii10033" unicode="&#x41f;" horiz-adv-x="536"
                   d="M329 0v603h-123v-603h-170v665h465v-665h-172z"/>
            <glyph glyph-name="afii10034" unicode="&#x420;" horiz-adv-x="540"
                   d="M364 484q0 31 -11 56.5t-30 42.5t-43.5 26.5t-52.5 9.5h-17v-348q18 35 44.5 55.5t51 40t42 45.5t16.5 72zM512 506q0 -60 -34.5 -108t-90.5 -80q-20 -11 -51 -23.5t-59.5 -30t-49 -41t-20.5 -56.5v-167h-167v668h339q33 0 58 -16t41.5 -40t25 -52.5t8.5 -53.5z"/>
            <glyph glyph-name="afii10035" unicode="&#x421;" horiz-adv-x="567"
                   d="M246 0l-27 14q-43 21 -78 55t-59.5 76t-38 89.5t-13.5 95.5q0 73 26.5 134.5t72.5 106.5t108.5 70.5t133.5 25.5h175l-25 -68q-15 0 -39.5 0.5t-50.5 0.5q-25 0 -45.5 -0.5t-27.5 -3.5q-41 -15 -67.5 -44t-43 -65t-23 -76t-6.5 -77q0 -119 39 -188.5t115 -77.5
q0 -1 23 -1h52q33 0 75 1l28 -68h-304z"/>
            <glyph glyph-name="afii10036" unicode="&#x422;" horiz-adv-x="526"
                   d="M477 601h-127v-601h-170l-1 601h-154l28 66h449z"/>
            <glyph glyph-name="afii10037" unicode="&#x423;" horiz-adv-x="488"
                   d="M164 0l52 132l-219 533h195l123 -284l114 285h70l-264 -666h-71z"/>
            <glyph glyph-name="afii10039" unicode="&#x425;" horiz-adv-x="506"
                   d="M316 0l-107 243l-105 -177q0 -3 -3.5 -10.5t-7 -16.5t-5.5 -19.5t2 -19.5h-94l184 307l-157 359h184l81 -184l34 56q13 21 23.5 39t10.5 20q8 17 9 35t3 34q8 -1 24 -1h34q19 0 40 1l-150 -253l183 -413h-183z"/>
            <glyph glyph-name="afii10026" unicode="&#x418;"
                   d="M330 665h171v-665h-171v434l-124 -353v-81h-170v67v598h171l-1 -434l124 348v86z"/>
            <glyph glyph-name="afii10027" unicode="&#x419;"
                   d="M330 665h171v-665h-171v434l-124 -353v-81h-170v665h171l-1 -434l124 348v86zM379 726l-221 -19l-1 54l221 71z"/>
            <glyph glyph-name="afii10021" unicode="&#x414;" horiz-adv-x="614"
                   d="M532 0h-450v-105l-73 -17v190h56q31 94 56.5 176.5t43.5 144.5t27.5 98.5t9.5 39.5q3 14 -1 33.5t-10 39.5t-13 38t-10 29h180l190 -599h67v-173l-73 -17v122zM243 435l-110 -367h228z"/>
            <glyph glyph-name="hyphen" unicode="-" horiz-adv-x="457"
                   d="M39 350v50h389v-50h-389z"/>
            <glyph glyph-name="afii10038" unicode="&#x424;" horiz-adv-x="809"
                   d="M325 110h-144q-14 9 -37.5 40.5t-46 75t-39 93.5t-16.5 97q0 33 11 65.5t32 58t52 41.5t71 16h117v70h168v-70h117q40 0 71 -16t52 -41.5t32 -58t11 -65.5q0 -47 -16.5 -97t-39 -93.5t-46 -75t-37.5 -40.5h-144v-110h-168v110zM493 548v-404q20 30 43.5 72t42.5 86.5
t29 88t3.5 78t-34.5 56.5t-84 23zM325 548q-57 -1 -84.5 -23t-34 -56.5t3.5 -78t29 -88t42.5 -86.5t43.5 -72v404z"/>
            <glyph glyph-name="afii10018" unicode="&#x411;" horiz-adv-x="540"
                   d="M364 184q1 46 -16 73t-41.5 46t-51 35.5t-45.5 42.5v-332h17q28 0 52.5 9.5t43.5 26.5t30 42t11 57zM207 601v-100q0 -40 22.5 -67t56.5 -48t73.5 -39.5t73.5 -43t56.5 -58t22.5 -83.5q0 -25 -8.5 -53.5t-25 -52.5t-41.5 -40t-58 -16h-339v668h417l-22 -67h-228z"/>
            <glyph glyph-name="afii10040" unicode="&#x426;" horiz-adv-x="597"
                   d="M36 0v667h170v-603h123v603h172v-599h67v-173l-73 -17v122h-459z"/>
            <glyph glyph-name="afii10041" unicode="&#x427;" horiz-adv-x="547"
                   d="M336 0v348h-232q-20 7 -33 19.5t-21 26.5t-11.5 28t-3.5 25v220h171l1 -201q1 -23 9.5 -36t20 -19.5t23 -8.5t19.5 -2h57l1 266h167v-666h-168z"/>
            <glyph glyph-name="afii10043" unicode="&#x429;" horiz-adv-x="896"
                   d="M42 0v667h170v-603h123v603h170v-603h123v603h172v-599h67v-173l-73 -17v122h-752z"/>
            <glyph glyph-name="afii10042" unicode="&#x428;" horiz-adv-x="839"
                   d="M799 0h-757v667h170v-603h123v603h170v-603h123v603h172z"/>
            <glyph glyph-name="afii10046" unicode="&#x42c;" horiz-adv-x="540"
                   d="M364 184q1 46 -16 73t-41.5 46t-51 35.5t-45.5 42.5v-332h17q28 0 52.5 9.5t43.5 26.5t30 42t11 57zM207 667v-166q0 -40 22.5 -67t56.5 -48t73.5 -39.5t73.5 -43t56.5 -58t22.5 -83.5q0 -25 -8.5 -53.5t-25 -52.5t-41.5 -40t-58 -16h-339v668z"/>
            <glyph glyph-name="afii10045" unicode="&#x42b;" horiz-adv-x="772"
                   d="M364 184q1 46 -16 73t-41.5 46t-51 35.5t-45.5 42.5v-332h17q28 0 52.5 9.5t43.5 26.5t30 42t11 57zM207 667v-166q0 -40 22.5 -67t56.5 -48t73.5 -39.5t73.5 -43t56.5 -58t22.5 -83.5q0 -25 -8.5 -53.5t-25 -52.5t-41.5 -40t-58 -16h-339v668zM561 0v668h168v-668h-168z
"/>
            <glyph glyph-name="afii10044" unicode="&#x42a;" horiz-adv-x="680"
                   d="M504 184q1 46 -16 73t-41.5 46t-51 35.5t-45.5 42.5v-332h17q28 0 52.5 9.5t43.5 26.5t30 42t11 57zM347 667v-166q0 -40 22.5 -67t56.5 -48t73.5 -39.5t73.5 -43t56.5 -58t22.5 -83.5q0 -25 -8.5 -53.5t-25 -52.5t-41.5 -40t-58 -16h-339v603l-152 -1l28 66z"/>
            <glyph glyph-name="afii10047" unicode="&#x42d;" horiz-adv-x="567"
                   d="M30 67h155q23 0 23 1q76 8 115 77.5t39 188.5v16h-209l-22 55l225 1l-1 5q-6 40 -22.5 76t-43 65t-67.5 44q-7 3 -27.5 3.5t-45.5 0.5q-26 0 -50.5 -0.5t-39.5 -0.5l-25 68h175q71 0 133.5 -25.5t108.5 -70.5t72.5 -106.5t26.5 -134.5q0 -48 -13.5 -95.5t-38 -89.5
t-59.5 -76t-78 -55l-27 -14h-276z"/>
            <glyph glyph-name="afii10048" unicode="&#x42e;" horiz-adv-x="922"
                   d="M448 0q-13 0 -42.5 27t-60.5 74t-56 110t-29 135h-2h-13q-5 0 -4 -1q-23 1 -29 -11t-6 -22v-312h-170v665h174v-257h52q6 52 25.5 98t52.5 81.5t78 57t101 24.5h164q57 -20 97 -57.5t64.5 -82.5t35.5 -92t11 -87q0 -67 -25.5 -131.5t-65.5 -114t-88.5 -78.5t-94.5 -26
h-169zM600 48q36 9 61.5 42t41.5 72.5t23.5 78t7.5 58.5q0 24 -3.5 56.5t-12 67t-22.5 67.5t-35.5 59.5t-51 42.5t-68.5 16q-20 0 -36.5 -15t-29 -39t-20.5 -54.5t-13 -61.5t-6 -60.5t2 -50.5q7 -55 23.5 -98.5t39 -78t48 -59.5t51.5 -43z"/>
            <glyph glyph-name="afii10049" unicode="&#x42f;" horiz-adv-x="575"
                   d="M197 478q0 -28 6.5 -49.5t20.5 -39.5t36.5 -35.5t53.5 -36.5q11 -7 17.5 -15t11 -16.5t7 -15.5t5.5 -11v364h-34q-28 0 -51 -13t-39 -34t-25 -47t-9 -51zM23 0q14 17 33.5 41.5t41.5 53t43 57.5t37 55q5 7 14.5 18.5t19.5 24t17 25t6 21.5q-1 17 -8 25.5t-15 12.5
q-31 15 -61 29t-53.5 33t-38 45.5t-14.5 66.5q0 44 14.5 74.5t41 49t63 27t81.5 8.5h280v-666h-169v196q-18 -25 -29 -44t-23.5 -39.5t-31 -47t-50.5 -66.5h-199z"/>
            <glyph glyph-name="a" unicode="a" horiz-adv-x="583"
                   d="M204 435q-5 -7 -15 -37t-20 -65q-12 -40 -25 -90h122zM347 -1q-9 28 -21.5 65.5t-24.5 72.5q-14 40 -28 83q-7 -14 -20 -26t-42 -12q0 -1 -13 -1h-28q-18 0 -41 1q-13 -35 -24 -68q-10 -29 -20.5 -59.5t-18.5 -53.5q-15 -2 -36.5 -1.5t-33.5 0.5l66 184l-27 3
q11 10 20 21q8 9 15 19t10 19q7 23 15.5 52.5t17.5 60t17.5 60t15 52.5t11 38.5t4.5 17.5q3 14 -0.5 33.5t-9.5 39.5t-12.5 38t-9.5 29h180l214 -668h-176z"/>
            <glyph glyph-name="b" unicode="b" horiz-adv-x="553"
                   d="M304 221q0 25 -12.5 46t-31.5 38.5t-41 31t-41 23.5v-316q11 -1 32 10.5t42 34.5t36.5 56t15.5 76zM306 449q0 19 -10 45.5t-27.5 52t-41 45.5t-51.5 27v-175q3 -16 11 -27t18.5 -17.5t21 -9t18.5 -2.5q24 0 42.5 17.5t18.5 43.5zM480 185q0 -35 -16.5 -65t-44.5 -54
t-63.5 -40.5t-72.5 -23.5q-9 -2 -24.5 -2.5t-22.5 0.5h-229v666h236q43 0 81 -9.5t67.5 -30.5t47.5 -53.5t20 -78.5q2 -50 -17 -79.5t-44 -45t-47 -20.5t-26 -5q32 -6 60.5 -16.5t49.5 -28.5t33 -45.5t12 -68.5z"/>
            <glyph glyph-name="c" unicode="c" horiz-adv-x="596"
                   d="M214 -1l-27 14q-43 22 -78 56t-59.5 76t-38 89.5t-13.5 95.5q0 73 26.5 134.5t72.5 106.5t108.5 70.5t133.5 25.5h175l-25 -68q-15 0 -39.5 0.5t-50.5 0.5q-25 0 -45.5 -0.5t-27.5 -3.5q-41 -15 -67.5 -44t-43 -65t-23 -76t-6.5 -77q0 -119 39 -189t115 -78q0 -1 23 -1
h52q33 0 75 1l28 -68h-304z"/>
            <glyph glyph-name="d" unicode="d" horiz-adv-x="590"
                   d="M335 325q0 40 -10.5 85t-31 86.5t-51 74.5t-69.5 48v-579q39 20 69 51t50.5 68.5t31.5 80t11 85.5zM519 330q0 -71 -29.5 -131.5t-78 -104.5t-112 -69t-132.5 -25h-167v666l257 1q1 0 8.5 -3.5t16.5 -8t16.5 -8.5t9.5 -5q48 -24 86.5 -55t66.5 -69.5t43 -85t15 -102.5z
"/>
            <glyph glyph-name="e" unicode="e" horiz-adv-x="456"
                   d="M372 667q-5 -15 -11 -33.5t-11 -32.5h-149q-7 0 -21 -8.5t-12 -23.5v-336l175 -1q-3 -8 -7 -17.5t-8 -17.5q-4 -10 -9 -20q-31 1 -57 1h-42t-25 -1q-2 -1 -6 -2t-8.5 -4t-8 -8.5t-4.5 -14.5v-58q0 -6 9 -14t16 -9h165l20 -68h-378l1 668h371z"/>
            <glyph glyph-name="f" unicode="f" horiz-adv-x="442"
                   d="M372 667q-5 -15 -11 -33.5t-11 -32.5h-149q-7 0 -21 -8.5t-12 -23.5v-336l175 -1q-3 -8 -7 -17.5t-8 -17.5q-2 -5 -4.5 -10t-4.5 -10q-16 1 -30 1h-27h-42q-22 0 -25 -1q-1 -1 -5.5 -2t-9 -4t-8.5 -8.5t-4 -14.5q-1 -19 -0.5 -44t0.5 -48v-28t1 -28l-169 -1l1 668h371z
"/>
            <glyph glyph-name="g" unicode="g" horiz-adv-x="617"
                   d="M249 4q-25 0 -56 20t-60 45t-50.5 48.5t-27.5 31.5q-13 18 -23.5 41.5t-18.5 49.5t-12.5 51.5t-4.5 48.5q0 35 11.5 76t31.5 83q22 45 58 77t78 52.5t86.5 30.5t83.5 10h164l-30 -67h-134q-44 0 -75.5 -27.5t-51.5 -67.5t-30 -85t-11 -80q-2 -49 11 -100.5t37 -94
t57 -69.5t72 -27q0 7 0.5 19.5t0 25t-1 23t-1.5 13.5q-2 6 -2 15t-4.5 17t-17 12.5t-39.5 0.5q3 6 6 16.5l6 21t6.5 20t7.5 14.5h205v-245h-271z"/>
            <glyph glyph-name="h" unicode="h" horiz-adv-x="559"
                   d="M299 0v81v71q0 38 -1 65q-9 -5 -19.5 -19.5t-31.5 -18.5q-13 1 -20 1h-13q-5 0 -4 -1q-23 1 -29 -11t-6 -22l1 -146h-168l-2 665h173v-423h122v423h170v-665h-172z"/>
            <glyph glyph-name="i" unicode="i" horiz-adv-x="259"
                   d="M0 0l-1 667h169v-668z"/>
            <glyph glyph-name="j" unicode="j" horiz-adv-x="346"
                   d="M248 171q0 -15 -0.5 -39.5t-6.5 -50t-19.5 -48t-37.5 -34.5h-181q8 1 20.5 13t24 29t20 36t8.5 33q0 142 -0.5 278.5t-0.5 278.5h173v-496z"/>
            <glyph glyph-name="k" unicode="k" horiz-adv-x="574"
                   d="M323 -2l-153 250v-32v-37v-180h-170v669h169l1 -246q6 16 20.5 39t32.5 46t36.5 42.5t30.5 30.5q15 13 35 28t39 28t33.5 22t17.5 9t13 0.5t22 0.5h26t23 -1q-44 -33 -83 -64t-68.5 -63.5t-47 -67t-17.5 -75.5q0 -22 10.5 -50.5t27 -61t38 -66t44.5 -65.5
q53 -75 121 -156h-201z"/>
            <glyph glyph-name="l" unicode="l" horiz-adv-x="437"
                   d="M169 667q-1 -112 -1 -218v-359q0 -6 9 -14t16 -9h165l20 -66h-378l1 666h168z"/>
            <glyph glyph-name="m" unicode="m" horiz-adv-x="779"
                   d="M524 1l-63 367l-58 -367h-189l-70 375l-54 -376l-82 1q11 19 17.5 42t11 47t7.5 48t7 45q3 16 9 50t12.5 77t13.5 90t12 89t8 74t2 45q-2 17 -6.5 30.5t-9.5 29.5l182 -1l82 -509q5 2 6 -3t3 3q1 9 5 33t9.5 57.5t12 73t12.5 79.5q15 94 33 208q0 2 -3.5 19t-17.5 40h176
l106 -667h-174z"/>
            <glyph glyph-name="n" unicode="n" horiz-adv-x="526"
                   d="M448 668q-7 -22 -8 -35.5t-2 -20.5v-611h-187l-173 447h-5v-446q-40 -6 -75 0q3 11 6.5 26t3.5 21v559q0 3 -1.5 10.5t-4 16t-5 17.5t-3.5 16h176l200 -499q2 3 4 2.5t2 6.5v489q17 2 36 1.5t36 -0.5z"/>
            <glyph glyph-name="o" unicode="o" horiz-adv-x="717"
                   d="M468 391q-4 28 -17 65.5t-36 71.5t-56 57t-76 23q-23 0 -43.5 -25.5t-35.5 -63t-22.5 -79.5t-5.5 -74q3 -37 9 -66t18 -58t31 -61t47 -75q1 -3 9.5 -12t18.5 -19.5t19.5 -18.5t13.5 -8q9 0 23 11t27.5 25t23 25.5t10.5 13.5q17 33 28.5 61.5t17 59t4.5 65.5t-8 82z
M614 231q-33 -79 -68 -124.5t-69 -69t-64.5 -30t-53.5 -6.5q-3 0 -28.5 -0.5t-55.5 -0.5h-56t-29 1q-2 0 -9.5 7t-17.5 17t-20.5 22t-18.5 21q-18 22 -39 55t-39.5 72t-31 83t-12.5 89q0 59 17.5 112.5t51 94.5t81.5 66.5t109 28.5q45 2 85 2.5t79 0.5q14 -8 26 -15
q11 -6 20.5 -11t12.5 -7q37 -23 62.5 -50.5t42 -58t26 -62t14.5 -61.5q3 -20 4 -43.5t-1 -47.5t-6.5 -46t-11.5 -39z"/>
            <glyph glyph-name="p" unicode="p" horiz-adv-x="543"
                   d="M332 484q0 31 -11 56.5t-30 42.5t-43.5 26.5t-52.5 9.5h-17v-340q6 8 9 15t8.5 14t15.5 15.5t31 19.5q21 17 38 32t28.5 31t17.5 34.5t6 43.5zM480 506q0 -42 -18 -79.5t-48.5 -67.5t-72.5 -50.5t-90 -29.5q-13 -2 -26.5 -11t-24.5 -21.5t-18 -26.5t-7 -27l1 -193h-168
v668h177h162q33 0 58 -16t41.5 -40t25 -52.5t8.5 -53.5z"/>
            <glyph glyph-name="q" unicode="q" horiz-adv-x="731"
                   d="M468 391q-4 28 -17.5 67.5t-37 75.5t-57 61.5t-76.5 25.5q-23 0 -42.5 -22t-34 -56t-22.5 -73.5t-7 -74.5q1 -43 7.5 -77.5t19 -67t32.5 -67t48 -77.5q1 -3 9.5 -12t18.5 -19.5t19.5 -18.5t13.5 -8q9 0 23 11t27.5 25t23 25.5t10.5 13.5q17 33 28.5 61.5t17 59t4.5 65.5
t-8 82zM582 -41q-2 0 -19.5 -8.5t-38 -19t-38 -19t-19.5 -8.5q-7 0 -21.5 10t-30.5 24.5t-30 31.5t-21 31h-5q-3 0 -28.5 -0.5t-55.5 -0.5h-56t-29 1q-2 0 -9.5 7t-17.5 17t-20.5 22t-18.5 21q-18 22 -39 55t-39.5 72t-31 83t-12.5 89q0 59 17.5 112.5t51 94.5t81.5 66.5
t109 28.5q45 2 88 0.5t83 -1.5q12 -7 23 -13q9 -5 17.5 -9.5t11.5 -6.5q37 -23 64.5 -52t46.5 -61t30.5 -65t16.5 -63q3 -20 3.5 -45t-2 -50.5t-7.5 -49.5t-12 -41q-14 -33 -29.5 -57t-32 -42t-32.5 -31.5t-30 -26.5q7 -16 17 -33t21.5 -31t22.5 -23t21 -9z"/>
            <glyph glyph-name="r" unicode="r" horiz-adv-x="564"
                   d="M328 478q0 25 -9 51t-25 47t-38.5 34t-50.5 13h-34l-1 -364q3 4 5.5 11t7 15.5t11 16.5t17.5 15q31 19 53.5 36.5t36.5 35.5t20.5 39.5t6.5 49.5zM303 0q-32 40 -50.5 66.5t-31 47t-23.5 39.5t-29 44v-196h-169v666h280q45 0 81.5 -8.5t63 -27t41 -49t14.5 -74.5
q0 -40 -14.5 -66.5t-38 -45.5t-53.5 -33t-61 -29q-8 -4 -15 -12.5t-8 -25.5q-1 -9 6 -21.5t17 -25t19.5 -24t14.5 -18.5q16 -26 37 -55t43 -57.5t41.5 -53t33.5 -41.5h-199z"/>
            <glyph glyph-name="s" unicode="s" horiz-adv-x="555"
                   d="M455 667q-10 -18 -18 -41q-4 -12 -9 -26h-56q-23 0 -48.5 0.5t-42.5 0.5q-21 0 -40 -5t-33.5 -16.5t-23.5 -30.5t-9 -47q0 -38 22.5 -58.5t56.5 -34t74 -25t74 -32t56.5 -54t22.5 -91.5q0 -42 -18.5 -79.5t-49 -66t-69.5 -45t-79 -16.5l-216 1l-32 67h41h47h48h44
q24 3 45.5 9t37 18t25 29.5t9.5 43.5q0 34 -23 53.5t-57.5 33t-74.5 27t-74.5 35.5t-57.5 58t-23 96q0 39 18.5 74.5t48.5 62.5t67.5 43t75.5 16h241z"/>
            <glyph glyph-name="t" unicode="t" horiz-adv-x="561"
                   d="M453 601h-127l-2 -601h-170l1 601h-154l28 66h449z"/>
            <glyph glyph-name="u" unicode="u" horiz-adv-x="572"
                   d="M79 1q-19 7 -32.5 21.5t-21.5 31t-11.5 32t-3.5 26.5v555h171l1 -536q1 -23 9.5 -36t20 -19.5t23 -8.5t19.5 -2h58v601h167v-665h-400z"/>
            <glyph glyph-name="v" unicode="v" horiz-adv-x="551"
                   d="M364 174q-4 -22 -10.5 -43.5t-11 -43t-4 -43t11.5 -43.5q-22 -2 -52 -2.5t-59 0.5q-33 0 -68 2l-170 665h176l124 -479q11 46 23.5 97.5t24 102.5t21.5 98t16 84q10 58 -16 97q2 -2 19 -2t37 1l54 2q-29 -124 -54 -226q-11 -44 -21 -87t-18.5 -80t-14.5 -63.5t-8 -36.5z
"/>
            <glyph glyph-name="w" unicode="w" horiz-adv-x="873"
                   d="M685 203q-5 -26 -12 -51.5t-11.5 -50.5t-5 -50t8.5 -51h-179l-85 351q-10 -41 -19 -78q-8 -32 -16 -64.5t-13 -51.5q-4 -17 -8.5 -36.5t-6.5 -40t0 -40.5t11 -38h-180l-172 664l182 1l119 -455l69 273l-10 46l-10 46q-8 25 -13 46.5t-22 43.5h187l121 -462q17 68 34 132
q14 55 28.5 115t22.5 105q1 9 0.5 23t-2 30t-3.5 30.5t-4 25.5h105q-25 -89 -47 -173q-9 -36 -19 -75t-19 -77t-17 -73.5t-14 -64.5z"/>
            <glyph glyph-name="x" unicode="x" horiz-adv-x="578"
                   d="M320 1l-117 234l-99 -168q0 -3 -3.5 -10.5t-7 -16.5t-5.5 -19.5t2 -19.5h-94l184 306l-157 359h184l81 -184l34 56q13 21 23.5 39t10.5 20q8 17 9 35t3 34q8 -1 24 -1h34q19 0 40 1l-150 -253l183 -412h-179z"/>
            <glyph glyph-name="y" unicode="y" horiz-adv-x="572"
                   d="M516 666q-6 0 -6.5 -6t-4.5 -11q-12 -15 -29.5 -43t-36 -62t-36.5 -71.5t-32 -72.5t-23 -64.5t-9 -47.5v-287h-172v116v83q0 36 -1.5 66.5t-6.5 58t-15.5 58.5t-27.5 69.5t-43 89.5q-6 11 -15 26.5t-20 32.5t-21.5 33.5t-19.5 30.5h202q16 -23 31 -53t29 -63.5t27 -68
t26 -65.5l113 251h91z"/>
            <glyph glyph-name="z" unicode="z" horiz-adv-x="556"
                   d="M6 1l256 598h-214l-28 66h458l-253 -598h237l25 -67z"/>
            <glyph glyph-name="afii10065" unicode="&#x430;" horiz-adv-x="551"
                   d="M218 435q-5 -7 -15 -37t-20 -65q-6 -20 -12 -42.5t-13 -47.5h122zM361 0q-9 28 -21.5 65t-24.5 72q-7 20 -14 40.5t-14 42.5q-7 -14 -20 -26t-42 -12q0 -1 -13 -1h-28h-19.5t-21.5 1q-7 -17 -13 -34t-11 -34q-10 -29 -20.5 -59.5t-18.5 -53.5q-15 -2 -36.5 -1.5
t-33.5 0.5l66 184l-27 3q5 5 10 10.5t10 10.5q8 9 15 19t10 19q10 35 24 82t27 90.5t21.5 74.5t8.5 34q3 14 -0.5 33.5t-9.5 39.5t-12.5 38t-9.5 29h180l214 -667h-176z"/>
            <glyph glyph-name="afii10066" unicode="&#x431;" horiz-adv-x="540"
                   d="M364 184q1 46 -16 73t-41.5 46t-51 35.5t-45.5 42.5v-332h17q28 0 52.5 9.5t43.5 26.5t30 42t11 57zM207 601v-100q0 -40 22.5 -67t56.5 -48t73.5 -39.5t73.5 -43t56.5 -58t22.5 -83.5q0 -25 -8.5 -53.5t-25 -52.5t-41.5 -40t-58 -16h-339v668h417l-22 -67h-228z"/>
            <glyph glyph-name="afii10067" unicode="&#x432;" horiz-adv-x="536"
                   d="M328 221q0 25 -12.5 46t-31.5 38.5t-41 31t-41 23.5v-316q11 -1 32 10.5t42 34t36.5 56t15.5 76.5zM330 449q0 19 -10 45.5t-27.5 52t-41 45.5t-51.5 27v-175q3 -17 11 -27.5t18.5 -17t21 -9t18.5 -2.5q24 0 42.5 17.5t18.5 43.5zM504 185q0 -35 -16.5 -65t-44.5 -54
t-63.5 -40.5t-72.5 -23.5q-9 -2 -24.5 -2.5t-22.5 0.5h-229v666h236q43 0 81.5 -9.5t67.5 -30.5t47 -53.5t20 -78.5q1 -33 -7.5 -57t-22.5 -40.5t-31 -27t-32.5 -16t-26.5 -7.5t-14 -2q32 -6 60.5 -16.5t49.5 -28.5t33 -45.5t12 -68.5z"/>
            <glyph glyph-name="afii10068" unicode="&#x433;" horiz-adv-x="423"
                   d="M396 667l-22 -66l-182 -1l1 -600h-168v667h371z"/>
            <glyph glyph-name="afii10069" unicode="&#x434;" horiz-adv-x="614"
                   d="M532 0h-450v-105l-73 -17v190h56q31 94 56.5 176.5t43.5 144.5t27.5 98.5t9.5 39.5q3 14 -1 33.5t-10 39.5t-13 38t-10 29h180l190 -599h67v-173l-73 -17v122zM243 435l-110 -367h228z"/>
            <glyph glyph-name="afii10070" unicode="&#x435;" horiz-adv-x="433"
                   d="M407 667l-22 -66l-182 -1v-194l175 -1l-24 -55h-151v-283h190l20 -67h-378l1 667h371z"/>
            <glyph glyph-name="afii10072" unicode="&#x436;" horiz-adv-x="918"
                   d="M373 0v248l-153 -248h-201q68 79 121 154q23 32 44.5 65.5t38 66t27 61t10.5 50.5q0 41 -17.5 75.5t-47 67t-68.5 63.5t-83 64q10 1 23 1h26q12 0 22 -0.5t13 -0.5t17.5 -9t33.5 -22t39 -28t35 -28q12 -11 30.5 -30.5t37 -42.5t33 -46t20.5 -39v246h169l1 -246
q6 16 20.5 39t32.5 46t36.5 42.5t30.5 30.5q15 13 35 28t39 28t33.5 22t17.5 9t13 0.5t22 0.5h26t23 -1q-44 -33 -83 -64t-68.5 -63.5t-47 -67t-17.5 -75.5q0 -22 10.5 -50.5t27 -61t38 -66t44.5 -65.5q53 -75 121 -154h-201l-153 248v-248h-170h-1z"/>
            <glyph glyph-name="afii10073" unicode="&#x437;" horiz-adv-x="460"
                   d="M238 500q-1 28 -10 47t-23.5 30.5t-33 16.5t-39.5 5h-11.5t-9 -0.5t-21 -0.5h-47.5q-6 17 -12 34.5t-15 32.5h183q38 0 75.5 -14.5t67 -40t48 -59.5t18.5 -73q-3 -32 -22 -51.5t-44.5 -30.5t-53 -16.5t-48.5 -9.5q-1 -2 13 -9t35.5 -18t47 -27t48.5 -37t39.5 -47
t20.5 -58q5 -42 -8 -70t-33.5 -47t-42.5 -32t-36 -25h-279q-5 14 -13.5 35t-10.5 33q29 -1 67.5 -3.5t69.5 3.5q42 8 71 41.5t29 78.5q0 30 -11.5 56t-32.5 50t-50 45.5t-64 42.5l4 3q19 2 43 7t44.5 17.5t34 34t12.5 56.5z"/>
            <glyph glyph-name="afii10074" unicode="&#x438;"
                   d="M330 665h171v-665h-171v434l-124 -353v-81h-170v67v598h171l-1 -434l124 348v86z"/>
            <glyph glyph-name="afii10076" unicode="&#x43a;" horiz-adv-x="571"
                   d="M356 0l-153 248v-248h-170v668h169l1 -246q6 16 20.5 39t32.5 46t36.5 42.5t30.5 30.5q15 13 35 28t39 28t33.5 22t17.5 9t13 0.5t22 0.5h26t23 -1q-44 -33 -83 -64t-68.5 -63.5t-47 -67t-17.5 -75.5q0 -22 10.5 -50.5t27 -61t38 -66t44.5 -65.5q53 -74 121 -154h-201z
"/>
            <glyph glyph-name="afii10077" unicode="&#x43b;" horiz-adv-x="541"
                   d="M208 435l-138 -434q-15 -2 -36.5 -1.5t-33.5 0.5q35 104 65.5 198t53 166t35.5 116t13 47q3 14 -1 33.5t-10 39.5t-13 38t-10 29h180l214 -667h-176z"/>
            <glyph glyph-name="afii10078" unicode="&#x43c;" horiz-adv-x="711"
                   d="M524 0l-63 368l-58 -368h-189l-70 376l-54 -376h-82q11 20 17.5 43t11 47t7.5 48t7 45q3 16 9 50t12.5 77t13.5 90t12 89t8 74t2 45q-2 17 -6.5 30.5t-9.5 29.5l182 -1l82 -509q5 2 6 -3t3 3q1 9 5 33t9.5 57.5t12 73t12.5 79.5q15 94 33 208q0 2 -3.5 19t-17.5 40h176
l106 -668h-174z"/>
            <glyph glyph-name="afii10079" unicode="&#x43d;"
                   d="M330 0v383l-52 -38q-7 1 -11.5 1h-8.5h-13q-5 0 -4 -1q-23 1 -29 -11t-6 -22v-312h-170v665h174v-257h122v257h169v-665h-171z"/>
            <glyph glyph-name="afii10080" unicode="&#x43e;" horiz-adv-x="699"
                   d="M381 48q36 9 61.5 42t41.5 72.5t23.5 78t7.5 58.5q0 24 -3.5 56.5t-12 67t-22.5 67.5t-35.5 59.5t-51 42.5t-68.5 16q-20 0 -36.5 -15t-29 -39t-20.5 -54.5t-13 -61.5t-6 -60.5t2 -50.5q7 -55 23.5 -98.5t39 -78t48 -59.5t51.5 -43zM229 0q-9 0 -26.5 13t-38.5 37.5
t-42.5 58t-39.5 74t-29.5 87.5t-11.5 97q0 59 17.5 112.5t51 94.5t81.5 66.5t109 28.5h164q57 -20 97 -57.5t64.5 -82.5t35.5 -92t11 -87q0 -67 -25.5 -131.5t-65.5 -114t-88.5 -78.5t-94.5 -26h-169z"/>
            <glyph glyph-name="afii10081" unicode="&#x43f;" horiz-adv-x="536"
                   d="M329 0v603h-123v-603h-170v665h465v-665h-172z"/>
            <glyph glyph-name="afii10082" unicode="&#x440;" horiz-adv-x="540"
                   d="M364 484q0 31 -11 56.5t-30 42.5t-43.5 26.5t-52.5 9.5h-17v-348q18 35 44.5 55.5t51 40t42 45.5t16.5 72zM512 506q0 -60 -34.5 -108t-90.5 -80q-20 -11 -51 -23.5t-59.5 -30t-49 -41t-20.5 -56.5v-167h-167v668h339q33 0 58 -16t41.5 -40t25 -52.5t8.5 -53.5z"/>
            <glyph glyph-name="afii10083" unicode="&#x441;" horiz-adv-x="567"
                   d="M246 0l-27 14q-43 21 -78 55t-59.5 76t-38 89.5t-13.5 95.5q0 73 26.5 134.5t72.5 106.5t108.5 70.5t133.5 25.5h175l-25 -68q-15 0 -39.5 0.5t-50.5 0.5q-25 0 -45.5 -0.5t-27.5 -3.5q-41 -15 -67.5 -44t-43 -65t-23 -76t-6.5 -77q0 -119 39 -188.5t115 -77.5
q0 -1 23 -1h52q33 0 75 1l28 -68h-304z"/>
            <glyph glyph-name="afii10084" unicode="&#x442;" horiz-adv-x="526"
                   d="M477 601h-127v-601h-170l-1 601h-154l28 66h449z"/>
            <glyph glyph-name="afii10085" unicode="&#x443;" horiz-adv-x="488"
                   d="M164 0l52 132l-219 533h195l123 -284l114 285h70l-264 -666h-71z"/>
            <glyph glyph-name="afii10086" unicode="&#x444;" horiz-adv-x="809"
                   d="M325 110h-144q-14 9 -37.5 40.5t-46 75t-39 93.5t-16.5 97q0 33 11 65.5t32 58t52 41.5t71 16h117v70h168v-70h117q40 0 71 -16t52 -41.5t32 -58t11 -65.5q0 -47 -16.5 -97t-39 -93.5t-46 -75t-37.5 -40.5h-144v-110h-168v110zM493 548v-404q20 30 43.5 72t42.5 86.5
t29 88t3.5 78t-34.5 56.5t-84 23zM325 548q-57 -1 -84.5 -23t-34 -56.5t3.5 -78t29 -88t42.5 -86.5t43.5 -72v404z"/>
            <glyph glyph-name="afii10087" unicode="&#x445;" horiz-adv-x="506"
                   d="M316 0l-107 243l-105 -177q0 -3 -3.5 -10.5t-7 -16.5t-5.5 -19.5t2 -19.5h-94l184 307l-157 359h184l81 -184l34 56q13 21 23.5 39t10.5 20q8 17 9 35t3 34q8 -1 24 -1h34q19 0 40 1l-150 -253l183 -413h-183z"/>
            <glyph glyph-name="afii10088" unicode="&#x446;" horiz-adv-x="597"
                   d="M36 0v667h170v-603h123v603h172v-599h67v-173l-73 -17v122h-459z"/>
            <glyph glyph-name="afii10089" unicode="&#x447;" horiz-adv-x="547"
                   d="M336 0v348h-232q-20 7 -33 19.5t-21 26.5t-11.5 28t-3.5 25v220h171l1 -201q1 -23 9.5 -36t20 -19.5t23 -8.5t19.5 -2h57l1 266h167v-666h-168z"/>
            <glyph glyph-name="afii10090" unicode="&#x448;" horiz-adv-x="839"
                   d="M799 0h-757v667h170v-603h123v603h170v-603h123v603h172z"/>
            <glyph glyph-name="afii10091" unicode="&#x449;" horiz-adv-x="896"
                   d="M42 0v667h170v-603h123v603h170v-603h123v603h172v-599h67v-173l-73 -17v122h-752z"/>
            <glyph glyph-name="afii10092" unicode="&#x44a;" horiz-adv-x="680"
                   d="M504 184q1 46 -16 73t-41.5 46t-51 35.5t-45.5 42.5v-332h17q28 0 52.5 9.5t43.5 26.5t30 42t11 57zM347 667v-166q0 -40 22.5 -67t56.5 -48t73.5 -39.5t73.5 -43t56.5 -58t22.5 -83.5q0 -25 -8.5 -53.5t-25 -52.5t-41.5 -40t-58 -16h-339v603l-152 -1l28 66z"/>
            <glyph glyph-name="afii10093" unicode="&#x44b;" horiz-adv-x="772"
                   d="M364 184q1 46 -16 73t-41.5 46t-51 35.5t-45.5 42.5v-332h17q28 0 52.5 9.5t43.5 26.5t30 42t11 57zM207 667v-166q0 -40 22.5 -67t56.5 -48t73.5 -39.5t73.5 -43t56.5 -58t22.5 -83.5q0 -25 -8.5 -53.5t-25 -52.5t-41.5 -40t-58 -16h-339v668zM561 0v668h168v-668h-168z
"/>
            <glyph glyph-name="afii10094" unicode="&#x44c;" horiz-adv-x="540"
                   d="M364 184q1 46 -16 73t-41.5 46t-51 35.5t-45.5 42.5v-332h17q28 0 52.5 9.5t43.5 26.5t30 42t11 57zM207 667v-166q0 -40 22.5 -67t56.5 -48t73.5 -39.5t73.5 -43t56.5 -58t22.5 -83.5q0 -25 -8.5 -53.5t-25 -52.5t-41.5 -40t-58 -16h-339v668z"/>
            <glyph glyph-name="afii10095" unicode="&#x44d;" horiz-adv-x="567"
                   d="M30 67h155q23 0 23 1q76 8 115 77.5t39 188.5v16h-209l-22 55l225 1l-1 5q-6 40 -22.5 76t-43 65t-67.5 44q-7 3 -27.5 3.5t-45.5 0.5q-26 0 -50.5 -0.5t-39.5 -0.5l-25 68h175q71 0 133.5 -25.5t108.5 -70.5t72.5 -106.5t26.5 -134.5q0 -48 -13.5 -95.5t-38 -89.5
t-59.5 -76t-78 -55l-27 -14h-276z"/>
            <glyph glyph-name="afii10096" unicode="&#x44e;" horiz-adv-x="922"
                   d="M448 0q-13 0 -42.5 27t-60.5 74t-56 110t-29 135h-2h-13q-5 0 -4 -1q-23 1 -29 -11t-6 -22v-312h-170v665h174v-257h52q6 52 25.5 98t52.5 81.5t78 57t101 24.5h164q57 -20 97 -57.5t64.5 -82.5t35.5 -92t11 -87q0 -67 -25.5 -131.5t-65.5 -114t-88.5 -78.5t-94.5 -26
h-169zM600 48q36 9 61.5 42t41.5 72.5t23.5 78t7.5 58.5q0 24 -3.5 56.5t-12 67t-22.5 67.5t-35.5 59.5t-51 42.5t-68.5 16q-20 0 -36.5 -15t-29 -39t-20.5 -54.5t-13 -61.5t-6 -60.5t2 -50.5q7 -55 23.5 -98.5t39 -78t48 -59.5t51.5 -43z"/>
            <glyph glyph-name="afii10097" unicode="&#x44f;" horiz-adv-x="575"
                   d="M197 478q0 -28 6.5 -49.5t20.5 -39.5t36.5 -35.5t53.5 -36.5q11 -7 17.5 -15t11 -16.5t7 -15.5t5.5 -11v364h-34q-28 0 -51 -13t-39 -34t-25 -47t-9 -51zM23 0q14 17 33.5 41.5t41.5 53t43 57.5t37 55q5 7 14.5 18.5t19.5 24t17 25t6 21.5q-1 17 -8 25.5t-15 12.5
q-31 15 -61 29t-53.5 33t-38 45.5t-14.5 66.5q0 44 14.5 74.5t41 49t63 27t81.5 8.5h280v-666h-169v196q-18 -25 -29 -44t-23.5 -39.5t-31 -47t-50.5 -66.5h-199z"/>
            <glyph glyph-name="afii10056" unicode="&#x407;" horiz-adv-x="256"
                   d="M11 763q0 18 13 30.5t31 12.5t30.5 -12.5t12.5 -30.5t-12.5 -30.5t-30.5 -12.5t-31 12.5t-13 30.5zM155 763q0 18 13 30.5t31 12.5t30.5 -12.5t12.5 -30.5t-12.5 -30.5t-30.5 -12.5t-31 12.5t-13 30.5zM45 0v667h168v-667h-168z"/>
            <glyph glyph-name="afii10104" unicode="&#x457;" horiz-adv-x="256"
                   d="M11 763q0 18 13 30.5t31 12.5t30.5 -12.5t12.5 -30.5t-12.5 -30.5t-30.5 -12.5t-31 12.5t-13 30.5zM155 763q0 18 13 30.5t31 12.5t30.5 -12.5t12.5 -30.5t-12.5 -30.5t-30.5 -12.5t-31 12.5t-13 30.5zM45 0v667h168v-667h-168z"/>
            <glyph glyph-name="uni0406" unicode="&#x406;" horiz-adv-x="256"
                   d="M45 0v667h168v-667h-168z"/>
            <glyph glyph-name="afii10062" unicode="&#x40e;" horiz-adv-x="488"
                   d="M235 0l264 666h-70l-114 -285l-123 284h-195l219 -533l-52 -132h71zM365 726l-221 -19l-1 54l221 71z"/>
            <glyph glyph-name="afii10075" unicode="&#x439;"
                   d="M330 665h171v-665h-171v434l-124 -353v-81h-170v665h171l-1 -434l124 348v86zM379 726l-221 -19l-1 54l221 71z"/>
            <glyph glyph-name="afii10110" unicode="&#x45e;" horiz-adv-x="488"
                   d="M235 0l264 666h-70l-114 -285l-123 284h-195l219 -533l-52 -132h71zM365 726l-221 -19l-1 54l221 71z"/>
            <glyph glyph-name="afii10023" unicode="&#x401;" horiz-adv-x="443"
                   d="M101 753q0 18 13 30.5t31 12.5t30.5 -12.5t12.5 -30.5t-12.5 -30.5t-30.5 -12.5t-31 12.5t-13 30.5zM245 753q0 18 13 30.5t31 12.5t30.5 -12.5t12.5 -30.5t-12.5 -30.5t-30.5 -12.5t-31 12.5t-13 30.5zM411 667l-22 -66l-182 -1v-194l175 -1l-24 -55h-151v-283h190
l20 -67h-378l1 667h371z"/>
            <glyph glyph-name="afii10053" unicode="&#x404;" horiz-adv-x="567"
                   d="M522 0h-276l-27 14q-43 21 -78 55t-59.5 76t-38 89.5t-13.5 95.5q0 73 26.5 134.5t72.5 106.5t108.5 70.5t133.5 25.5h175l-25 -68q-15 0 -39.5 0.5t-50.5 0.5q-25 0 -45.5 -0.5t-27.5 -3.5q-41 -15 -67.5 -44t-43 -65t-22.5 -76l-1 -5l225 -1l-22 -55h-209v-16
q0 -119 39 -188.5t115 -77.5q0 -1 23 -1h155z"/>
            <glyph glyph-name="afii10071" unicode="&#x451;" horiz-adv-x="443"
                   d="M101 753q0 18 13 30.5t31 12.5t30.5 -12.5t12.5 -30.5t-12.5 -30.5t-30.5 -12.5t-31 12.5t-13 30.5zM245 753q0 18 13 30.5t31 12.5t30.5 -12.5t12.5 -30.5t-12.5 -30.5t-30.5 -12.5t-31 12.5t-13 30.5zM411 667l-22 -66l-182 -1v-194l175 -1l-24 -55h-151v-283h190
l20 -67h-378l1 667h371z"/>
            <glyph glyph-name="afii61352" unicode="&#x2116;" horiz-adv-x="939"
                   d="M493 668q-7 -22 -8 -35.5t-2 -20.5v-612h-187l-173 448h-5v-448h-75q3 11 6.5 26t3.5 21v561q0 3 -1.5 10.5t-4 16t-5 17.5t-3.5 16h176l200 -499q2 3 4 2.5t2 6.5v489q17 2 36 1.5t36 -0.5zM791 453q0 15 -3 35t-9 41.5t-15.5 42t-22.5 35.5q-6 7 -11.5 13.5t-9.5 6.5
q-7 0 -17.5 -7.5t-20.5 -18.5t-17.5 -23t-8.5 -20t-3 -18.5t-2 -14.5q0 -12 5 -37.5t12 -52t13 -48.5t8 -27q7 -19 14.5 -39.5t16.5 -30.5q17 10 30.5 31t22.5 44.5t13.5 47t4.5 40.5zM876 349q-27 -33 -46 -51.5t-38 -28t-40 -12t-51 -2.5h-12h-22t-27 0.5t-24 0.5
q-9 19 -23 51.5t-26.5 68.5t-22 72.5t-9.5 64.5q0 34 12 62t32.5 47t48.5 29.5t61 10.5l122 1q3 -2 7 -3q6 -2 8 -2q19 -19 40 -51t30 -60q6 -20 9 -48.5t1 -48.5q-2 -10 -4 -24t-6 -28t-9 -27.5t-11 -21.5zM629 167v50h210v-50h-210z"/>
            <glyph glyph-name="afii10103" unicode="&#x456;" horiz-adv-x="256"
                   d="M45 0v667h168v-667h-168z"/>
            <glyph glyph-name="afii10050" unicode="&#x490;" horiz-adv-x="412"
                   d="M311 791l73 -17v-173l-182 -1l1 -600h-168v667l276 1v123z"/>
            <glyph glyph-name="afii10098" unicode="&#x491;" horiz-adv-x="412"
                   d="M311 791l73 -17v-173l-182 -1l1 -600h-168v667l276 1v123z"/>
            <glyph glyph-name="afii10101" unicode="&#x454;" horiz-adv-x="567"
                   d="M522 0h-276l-27 14q-43 21 -78 55t-59.5 76t-38 89.5t-13.5 95.5q0 73 26.5 134.5t72.5 106.5t108.5 70.5t133.5 25.5h175l-25 -68q-15 0 -39.5 0.5t-50.5 0.5q-25 0 -45.5 -0.5t-27.5 -3.5q-41 -15 -67.5 -44t-43 -65t-22.5 -76l-1 -5l225 -1l-22 -55h-209v-16
q0 -119 39 -188.5t115 -77.5q0 -1 23 -1h155z"/>
            <glyph glyph-name="afii10146" unicode="&#x462;" horiz-adv-x="636"
                   d="M303 667v-93h189l-25 -66h-164v-7q0 -40 22.5 -67t56.5 -48t73.5 -39.5t73.5 -43t56.5 -58t22.5 -83.5q0 -25 -8.5 -53.5t-25 -52.5t-41.5 -40t-58 -16h-339v508h-121l28 66h93v94zM460 184q1 46 -16 73t-41.5 46t-51 35.5t-45.5 42.5v-332h17q28 0 52.5 9.5t43.5 26.5
t30 42t11 57z"/>
            <glyph glyph-name="afii10194" unicode="&#x463;" horiz-adv-x="636"
                   d="M303 667v-93h189l-25 -66h-164v-7q0 -40 22.5 -67t56.5 -48t73.5 -39.5t73.5 -43t56.5 -58t22.5 -83.5q0 -25 -8.5 -53.5t-25 -52.5t-41.5 -40t-58 -16h-339v508h-121l28 66h93v94zM460 184q1 46 -16 73t-41.5 46t-51 35.5t-45.5 42.5v-332h17q28 0 52.5 9.5t43.5 26.5
t30 42t11 57z"/>
            <glyph glyph-name="afii10147" unicode="&#x472;" horiz-adv-x="699"
                   d="M229 0q-9 0 -26.5 13t-38.5 37.5t-42.5 58t-39.5 74t-29.5 87.5t-11.5 97q0 59 17.5 112.5t51 94.5t81.5 66.5t109 28.5h164q57 -20 97 -57.5t64.5 -82.5t35.5 -92t11 -87q0 -67 -25.5 -131.5t-65.5 -114t-88.5 -78.5t-94.5 -26h-169zM381 48q36 9 61.5 42t41.5 72.5
t23.5 78t7.5 58.5q0 22 -3 51h-295q0 -6 0.5 -12t1.5 -11q7 -55 23.5 -98.5t39 -78t48 -59.5t51.5 -43zM322 608q-24 0 -42 -19.5t-30.5 -50t-20.5 -67.5t-11 -71h286q-7 37 -20.5 74t-35.5 67t-53 48.5t-73 18.5z"/>
            <glyph glyph-name="afii10195" unicode="&#x473;" horiz-adv-x="699"
                   d="M229 0q-9 0 -26.5 13t-38.5 37.5t-42.5 58t-39.5 74t-29.5 87.5t-11.5 97q0 59 17.5 112.5t51 94.5t81.5 66.5t109 28.5h164q57 -20 97 -57.5t64.5 -82.5t35.5 -92t11 -87q0 -67 -25.5 -131.5t-65.5 -114t-88.5 -78.5t-94.5 -26h-169zM381 48q36 9 61.5 42t41.5 72.5
t23.5 78t7.5 58.5q0 22 -3 51h-295q0 -6 0.5 -12t1.5 -11q7 -55 23.5 -98.5t39 -78t48 -59.5t51.5 -43zM322 608q-24 0 -42 -19.5t-30.5 -50t-20.5 -67.5t-11 -71h286q-7 37 -20.5 74t-35.5 67t-53 48.5t-73 18.5z"/>
            <glyph glyph-name="space" unicode=" " horiz-adv-x="252"
            />
            <glyph glyph-name="Adieresis" unicode="&#xc4;" horiz-adv-x="583"
                   d="M101 753q0 18 13 30.5t31 12.5t30.5 -12.5t12.5 -30.5t-12.5 -30.5t-30.5 -12.5t-31 12.5t-13 30.5zM245 753q0 18 13 30.5t31 12.5t30.5 -12.5t12.5 -30.5t-12.5 -30.5t-30.5 -12.5t-31 12.5t-13 30.5zM204 435q-5 -7 -15 -37t-20 -65q-12 -40 -25 -90h122zM347 -1
q-9 28 -21.5 65.5t-24.5 72.5q-14 40 -28 83q-7 -14 -20 -26t-42 -12q0 -1 -13 -1h-28q-18 0 -41 1q-13 -35 -24 -68q-10 -29 -20.5 -59.5t-18.5 -53.5q-15 -2 -36.5 -1.5t-33.5 0.5l66 184l-27 3q11 10 20 21q8 9 15 19t10 19q7 23 15.5 52.5t17.5 60t17.5 60t15 52.5
t11 38.5t4.5 17.5q3 14 -0.5 33.5t-9.5 39.5t-12.5 38t-9.5 29h180l214 -668h-176z"/>
            <glyph glyph-name="adieresis" unicode="&#xe4;" horiz-adv-x="583"
                   d="M101 753q0 18 13 30.5t31 12.5t30.5 -12.5t12.5 -30.5t-12.5 -30.5t-30.5 -12.5t-31 12.5t-13 30.5zM245 753q0 18 13 30.5t31 12.5t30.5 -12.5t12.5 -30.5t-12.5 -30.5t-30.5 -12.5t-31 12.5t-13 30.5zM204 435q-5 -7 -15 -37t-20 -65q-12 -40 -25 -90h122zM347 -1
q-9 28 -21.5 65.5t-24.5 72.5q-14 40 -28 83q-7 -14 -20 -26t-42 -12q0 -1 -13 -1h-28q-18 0 -41 1q-13 -35 -24 -68q-10 -29 -20.5 -59.5t-18.5 -53.5q-15 -2 -36.5 -1.5t-33.5 0.5l66 184l-27 3q11 10 20 21q8 9 15 19t10 19q7 23 15.5 52.5t17.5 60t17.5 60t15 52.5
t11 38.5t4.5 17.5q3 14 -0.5 33.5t-9.5 39.5t-12.5 38t-9.5 29h180l214 -668h-176z"/>
            <glyph glyph-name="Udieresis" unicode="&#xdc;" horiz-adv-x="572"
                   d="M133 753q0 18 13 30.5t31 12.5t30.5 -12.5t12.5 -30.5t-12.5 -30.5t-30.5 -12.5t-31 12.5t-13 30.5zM277 753q0 18 13 30.5t31 12.5t30.5 -12.5t12.5 -30.5t-12.5 -30.5t-30.5 -12.5t-31 12.5t-13 30.5zM79 1q-19 7 -32.5 21.5t-21.5 31t-11.5 32t-3.5 26.5v555h171
l1 -536q1 -23 9.5 -36t20 -19.5t23 -8.5t19.5 -2h58v601h167v-665h-400z"/>
            <glyph glyph-name="udieresis" unicode="&#xfc;" horiz-adv-x="572"
                   d="M133 753q0 18 13 30.5t31 12.5t30.5 -12.5t12.5 -30.5t-12.5 -30.5t-30.5 -12.5t-31 12.5t-13 30.5zM277 753q0 18 13 30.5t31 12.5t30.5 -12.5t12.5 -30.5t-12.5 -30.5t-30.5 -12.5t-31 12.5t-13 30.5zM79 1q-19 7 -32.5 21.5t-21.5 31t-11.5 32t-3.5 26.5v555h171
l1 -536q1 -23 9.5 -36t20 -19.5t23 -8.5t19.5 -2h58v601h167v-665h-400z"/>
            <glyph glyph-name="odieresis" unicode="&#xf6;" horiz-adv-x="717"
                   d="M213 753q0 18 13 30.5t31 12.5t30.5 -12.5t12.5 -30.5t-12.5 -30.5t-30.5 -12.5t-31 12.5t-13 30.5zM357 753q0 18 13 30.5t31 12.5t30.5 -12.5t12.5 -30.5t-12.5 -30.5t-30.5 -12.5t-31 12.5t-13 30.5zM468 391q-4 28 -17 65.5t-36 71.5t-56 57t-76 23
q-23 0 -43.5 -25.5t-35.5 -63t-22.5 -79.5t-5.5 -74q3 -37 9 -66t18 -58t31 -61t47 -75q1 -3 9.5 -12t18.5 -19.5t19.5 -18.5t13.5 -8q9 0 23 11t27.5 25t23 25.5t10.5 13.5q17 33 28.5 61.5t17 59t4.5 65.5t-8 82zM614 231q-33 -79 -68 -124.5t-69 -69t-64.5 -30
t-53.5 -6.5q-3 0 -28.5 -0.5t-55.5 -0.5h-56t-29 1q-2 0 -9.5 7t-17.5 17t-20.5 22t-18.5 21q-18 22 -39 55t-39.5 72t-31 83t-12.5 89q0 59 17.5 112.5t51 94.5t81.5 66.5t109 28.5q45 2 85 2.5t79 0.5q14 -8 26 -15q11 -6 20.5 -11t12.5 -7q37 -23 62.5 -50.5t42 -58
t26 -62t14.5 -61.5q3 -20 4 -43.5t-1 -47.5t-6.5 -46t-11.5 -39z"/>
            <glyph glyph-name="Odieresis" unicode="&#xd6;" horiz-adv-x="717"
                   d="M213 753q0 18 13 30.5t31 12.5t30.5 -12.5t12.5 -30.5t-12.5 -30.5t-30.5 -12.5t-31 12.5t-13 30.5zM357 753q0 18 13 30.5t31 12.5t30.5 -12.5t12.5 -30.5t-12.5 -30.5t-30.5 -12.5t-31 12.5t-13 30.5zM468 391q-4 28 -17 65.5t-36 71.5t-56 57t-76 23
q-23 0 -43.5 -25.5t-35.5 -63t-22.5 -79.5t-5.5 -74q3 -37 9 -66t18 -58t31 -61t47 -75q1 -3 9.5 -12t18.5 -19.5t19.5 -18.5t13.5 -8q9 0 23 11t27.5 25t23 25.5t10.5 13.5q17 33 28.5 61.5t17 59t4.5 65.5t-8 82zM614 231q-33 -79 -68 -124.5t-69 -69t-64.5 -30
t-53.5 -6.5q-3 0 -28.5 -0.5t-55.5 -0.5h-56t-29 1q-2 0 -9.5 7t-17.5 17t-20.5 22t-18.5 21q-18 22 -39 55t-39.5 72t-31 83t-12.5 89q0 59 17.5 112.5t51 94.5t81.5 66.5t109 28.5q45 2 85 2.5t79 0.5q14 -8 26 -15q11 -6 20.5 -11t12.5 -7q37 -23 62.5 -50.5t42 -58
t26 -62t14.5 -61.5q3 -20 4 -43.5t-1 -47.5t-6.5 -46t-11.5 -39z"/>
            </font>
</defs>
</svg>
